<svg width="1363" height="163" viewBox="0 0 1363 163" fill="none" xmlns="http://www.w3.org/2000/svg">
<path d="M0 15C0 6.71573 6.71573 0 15 0H37V163H15C6.71573 163 0 156.284 0 148V15Z" fill="#424242"/>
<rect width="1097" height="163" transform="translate(37)" fill="#F0F0F0"/>
<path d="M95.472 59.728C95.2 59.84 94.952 59.864 94.728 59.8C94.52 59.736 94.352 59.616 94.224 59.44C94.096 59.264 94.024 59.072 94.008 58.864C93.992 58.64 94.04 58.432 94.152 58.24C94.264 58.032 94.448 57.872 94.704 57.76L105.168 53.368V54.856L94.704 50.464C94.448 50.352 94.264 50.2 94.152 50.008C94.04 49.8 93.992 49.584 94.008 49.36C94.024 49.136 94.096 48.936 94.224 48.76C94.352 48.584 94.52 48.464 94.728 48.4C94.952 48.336 95.2 48.36 95.472 48.472L105.072 52.552C105.808 52.856 106.176 53.368 106.176 54.088C106.176 54.456 106.08 54.776 105.888 55.048C105.712 55.304 105.44 55.512 105.072 55.672L95.472 59.728ZM123.626 61.24C121.866 61.24 120.354 60.888 119.09 60.184C117.842 59.464 116.882 58.456 116.21 57.16C115.538 55.848 115.202 54.304 115.202 52.528C115.202 51.2 115.394 50.008 115.778 48.952C116.162 47.88 116.714 46.968 117.434 46.216C118.154 45.448 119.034 44.864 120.074 44.464C121.13 44.048 122.314 43.84 123.626 43.84C124.506 43.84 125.37 43.952 126.218 44.176C127.066 44.4 127.81 44.72 128.45 45.136C128.786 45.344 129.01 45.6 129.122 45.904C129.234 46.192 129.258 46.48 129.194 46.768C129.13 47.04 128.994 47.272 128.786 47.464C128.594 47.656 128.346 47.768 128.042 47.8C127.754 47.816 127.434 47.712 127.082 47.488C126.586 47.168 126.05 46.936 125.474 46.792C124.898 46.648 124.314 46.576 123.722 46.576C122.586 46.576 121.626 46.808 120.842 47.272C120.058 47.736 119.466 48.408 119.066 49.288C118.666 50.168 118.466 51.248 118.466 52.528C118.466 53.792 118.666 54.872 119.066 55.768C119.466 56.664 120.058 57.344 120.842 57.808C121.626 58.272 122.586 58.504 123.722 58.504C124.33 58.504 124.93 58.432 125.522 58.288C126.114 58.128 126.674 57.888 127.202 57.568C127.554 57.36 127.866 57.272 128.138 57.304C128.426 57.32 128.666 57.416 128.858 57.592C129.05 57.768 129.178 57.992 129.242 58.264C129.306 58.52 129.29 58.792 129.194 59.08C129.098 59.352 128.906 59.592 128.618 59.8C127.978 60.264 127.21 60.624 126.314 60.88C125.434 61.12 124.538 61.24 123.626 61.24ZM136.287 61.24C135.071 61.24 134.015 60.992 133.119 60.496C132.223 60 131.527 59.296 131.031 58.384C130.535 57.456 130.287 56.368 130.287 55.12C130.287 54.176 130.423 53.336 130.695 52.6C130.983 51.848 131.391 51.208 131.919 50.68C132.447 50.136 133.079 49.728 133.815 49.456C134.551 49.168 135.375 49.024 136.287 49.024C137.503 49.024 138.559 49.272 139.455 49.768C140.351 50.264 141.047 50.968 141.543 51.88C142.039 52.792 142.287 53.872 142.287 55.12C142.287 56.064 142.143 56.912 141.855 57.664C141.583 58.416 141.183 59.064 140.655 59.608C140.127 60.136 139.495 60.544 138.759 60.832C138.023 61.104 137.199 61.24 136.287 61.24ZM136.287 58.96C136.879 58.96 137.399 58.816 137.847 58.528C138.295 58.24 138.639 57.816 138.879 57.256C139.135 56.68 139.263 55.968 139.263 55.12C139.263 53.84 138.991 52.888 138.447 52.264C137.903 51.624 137.183 51.304 136.287 51.304C135.695 51.304 135.175 51.448 134.727 51.736C134.279 52.008 133.927 52.432 133.671 53.008C133.431 53.568 133.311 54.272 133.311 55.12C133.311 56.384 133.583 57.344 134.127 58C134.671 58.64 135.391 58.96 136.287 58.96ZM146.251 61.192C145.771 61.192 145.403 61.064 145.147 60.808C144.891 60.536 144.763 60.152 144.763 59.656V50.584C144.763 50.088 144.891 49.712 145.147 49.456C145.403 49.2 145.763 49.072 146.227 49.072C146.691 49.072 147.051 49.2 147.307 49.456C147.563 49.712 147.691 50.088 147.691 50.584V52.216L147.427 51.616C147.779 50.768 148.323 50.128 149.059 49.696C149.811 49.248 150.659 49.024 151.603 49.024C152.547 49.024 153.323 49.2 153.931 49.552C154.539 49.904 154.995 50.44 155.299 51.16C155.603 51.864 155.755 52.76 155.755 53.848V59.656C155.755 60.152 155.627 60.536 155.371 60.808C155.115 61.064 154.747 61.192 154.267 61.192C153.787 61.192 153.411 61.064 153.139 60.808C152.883 60.536 152.755 60.152 152.755 59.656V53.992C152.755 53.08 152.579 52.416 152.227 52C151.891 51.584 151.363 51.376 150.643 51.376C149.763 51.376 149.059 51.656 148.531 52.216C148.019 52.76 147.763 53.488 147.763 54.4V59.656C147.763 60.68 147.259 61.192 146.251 61.192ZM163.437 61.192C163.037 61.192 162.685 61.088 162.381 60.88C162.093 60.672 161.853 60.352 161.661 59.92L157.845 51.064C157.701 50.712 157.645 50.384 157.677 50.08C157.725 49.776 157.869 49.536 158.109 49.36C158.365 49.168 158.709 49.072 159.141 49.072C159.509 49.072 159.805 49.16 160.029 49.336C160.253 49.496 160.453 49.808 160.629 50.272L163.869 58.36H163.149L166.485 50.248C166.661 49.8 166.861 49.496 167.085 49.336C167.325 49.16 167.645 49.072 168.045 49.072C168.397 49.072 168.677 49.168 168.885 49.36C169.093 49.536 169.221 49.776 169.269 50.08C169.317 50.368 169.261 50.688 169.101 51.04L165.213 59.92C165.037 60.352 164.797 60.672 164.493 60.88C164.205 61.088 163.853 61.192 163.437 61.192ZM176.459 61.24C175.243 61.24 174.187 60.992 173.291 60.496C172.395 60 171.699 59.296 171.203 58.384C170.707 57.456 170.459 56.368 170.459 55.12C170.459 54.176 170.595 53.336 170.867 52.6C171.155 51.848 171.563 51.208 172.091 50.68C172.619 50.136 173.251 49.728 173.987 49.456C174.723 49.168 175.547 49.024 176.459 49.024C177.675 49.024 178.731 49.272 179.627 49.768C180.523 50.264 181.219 50.968 181.715 51.88C182.211 52.792 182.459 53.872 182.459 55.12C182.459 56.064 182.315 56.912 182.027 57.664C181.755 58.416 181.355 59.064 180.827 59.608C180.299 60.136 179.667 60.544 178.931 60.832C178.195 61.104 177.371 61.24 176.459 61.24ZM176.459 58.96C177.051 58.96 177.571 58.816 178.019 58.528C178.467 58.24 178.811 57.816 179.051 57.256C179.307 56.68 179.435 55.968 179.435 55.12C179.435 53.84 179.163 52.888 178.619 52.264C178.075 51.624 177.355 51.304 176.459 51.304C175.867 51.304 175.347 51.448 174.899 51.736C174.451 52.008 174.099 52.432 173.843 53.008C173.603 53.568 173.483 54.272 173.483 55.12C173.483 56.384 173.755 57.344 174.299 58C174.843 58.64 175.563 58.96 176.459 58.96ZM191.943 61.192C191.511 61.192 191.151 61.096 190.863 60.904C190.591 60.696 190.367 60.392 190.191 59.992L183.927 45.928C183.751 45.528 183.703 45.176 183.783 44.872C183.863 44.568 184.031 44.328 184.287 44.152C184.543 43.976 184.847 43.888 185.199 43.888C185.663 43.888 186.007 43.992 186.231 44.2C186.471 44.392 186.671 44.688 186.831 45.088L192.519 58.264H191.487L197.151 45.064C197.327 44.68 197.535 44.392 197.775 44.2C198.015 43.992 198.351 43.888 198.783 43.888C199.135 43.888 199.423 43.976 199.647 44.152C199.887 44.328 200.039 44.568 200.103 44.872C200.167 45.176 200.111 45.528 199.935 45.928L193.671 59.992C193.495 60.392 193.271 60.696 192.999 60.904C192.743 61.096 192.391 61.192 191.943 61.192ZM206.328 61.24C205 61.24 203.856 60.992 202.896 60.496C201.936 60 201.192 59.296 200.664 58.384C200.152 57.472 199.896 56.392 199.896 55.144C199.896 53.928 200.144 52.864 200.64 51.952C201.152 51.04 201.848 50.328 202.728 49.816C203.624 49.288 204.64 49.024 205.776 49.024C206.608 49.024 207.352 49.16 208.008 49.432C208.68 49.704 209.248 50.096 209.712 50.608C210.192 51.12 210.552 51.744 210.792 52.48C211.048 53.2 211.176 54.016 211.176 54.928C211.176 55.216 211.072 55.44 210.864 55.6C210.672 55.744 210.392 55.816 210.024 55.816H202.32V54.088H209.064L208.68 54.448C208.68 53.712 208.568 53.096 208.344 52.6C208.136 52.104 207.824 51.728 207.408 51.472C207.008 51.2 206.504 51.064 205.896 51.064C205.224 51.064 204.648 51.224 204.168 51.544C203.704 51.848 203.344 52.288 203.088 52.864C202.848 53.424 202.728 54.096 202.728 54.88V55.048C202.728 56.36 203.032 57.344 203.64 58C204.264 58.64 205.176 58.96 206.376 58.96C206.792 58.96 207.256 58.912 207.768 58.816C208.296 58.704 208.792 58.52 209.256 58.264C209.592 58.072 209.888 57.992 210.144 58.024C210.4 58.04 210.6 58.128 210.744 58.288C210.904 58.448 211 58.648 211.032 58.888C211.064 59.112 211.016 59.344 210.888 59.584C210.776 59.824 210.576 60.032 210.288 60.208C209.728 60.56 209.08 60.824 208.344 61C207.624 61.16 206.952 61.24 206.328 61.24ZM215.088 61.192C214.592 61.192 214.208 61.064 213.936 60.808C213.68 60.536 213.552 60.152 213.552 59.656V50.584C213.552 50.088 213.68 49.712 213.936 49.456C214.192 49.2 214.552 49.072 215.016 49.072C215.48 49.072 215.84 49.2 216.096 49.456C216.352 49.712 216.48 50.088 216.48 50.584V52.096H216.24C216.464 51.136 216.904 50.408 217.56 49.912C218.216 49.416 219.088 49.12 220.176 49.024C220.512 48.992 220.776 49.08 220.968 49.288C221.176 49.48 221.296 49.784 221.328 50.2C221.36 50.6 221.264 50.928 221.04 51.184C220.832 51.424 220.512 51.568 220.08 51.616L219.552 51.664C218.576 51.76 217.84 52.064 217.344 52.576C216.848 53.072 216.6 53.776 216.6 54.688V59.656C216.6 60.152 216.472 60.536 216.216 60.808C215.96 61.064 215.584 61.192 215.088 61.192ZM227.129 61.24C226.441 61.24 225.713 61.168 224.945 61.024C224.177 60.88 223.489 60.632 222.881 60.28C222.625 60.12 222.441 59.936 222.329 59.728C222.233 59.504 222.193 59.288 222.209 59.08C222.241 58.856 222.321 58.664 222.449 58.504C222.593 58.344 222.769 58.24 222.977 58.192C223.201 58.144 223.441 58.184 223.697 58.312C224.337 58.616 224.937 58.832 225.497 58.96C226.057 59.072 226.609 59.128 227.153 59.128C227.921 59.128 228.489 59 228.857 58.744C229.241 58.472 229.433 58.12 229.433 57.688C229.433 57.32 229.305 57.04 229.049 56.848C228.809 56.64 228.441 56.488 227.945 56.392L225.545 55.936C224.553 55.744 223.793 55.384 223.265 54.856C222.753 54.312 222.497 53.616 222.497 52.768C222.497 52 222.705 51.336 223.121 50.776C223.553 50.216 224.145 49.784 224.897 49.48C225.649 49.176 226.513 49.024 227.489 49.024C228.193 49.024 228.849 49.104 229.457 49.264C230.081 49.408 230.681 49.64 231.257 49.96C231.497 50.088 231.657 50.256 231.737 50.464C231.833 50.672 231.857 50.888 231.809 51.112C231.761 51.32 231.665 51.512 231.521 51.688C231.377 51.848 231.193 51.952 230.969 52C230.761 52.032 230.521 51.984 230.249 51.856C229.753 51.6 229.273 51.416 228.809 51.304C228.361 51.192 227.929 51.136 227.513 51.136C226.729 51.136 226.145 51.272 225.761 51.544C225.393 51.816 225.209 52.176 225.209 52.624C225.209 52.96 225.321 53.24 225.545 53.464C225.769 53.688 226.113 53.84 226.577 53.92L228.977 54.376C230.017 54.568 230.801 54.92 231.329 55.432C231.873 55.944 232.145 56.632 232.145 57.496C232.145 58.664 231.689 59.584 230.777 60.256C229.865 60.912 228.649 61.24 227.129 61.24ZM240.336 61.24C239.008 61.24 237.864 60.992 236.904 60.496C235.944 60 235.2 59.296 234.672 58.384C234.16 57.472 233.904 56.392 233.904 55.144C233.904 53.928 234.152 52.864 234.648 51.952C235.16 51.04 235.856 50.328 236.736 49.816C237.632 49.288 238.648 49.024 239.784 49.024C240.616 49.024 241.36 49.16 242.016 49.432C242.688 49.704 243.256 50.096 243.72 50.608C244.2 51.12 244.56 51.744 244.8 52.48C245.056 53.2 245.184 54.016 245.184 54.928C245.184 55.216 245.08 55.44 244.872 55.6C244.68 55.744 244.4 55.816 244.032 55.816H236.328V54.088H243.072L242.688 54.448C242.688 53.712 242.576 53.096 242.352 52.6C242.144 52.104 241.832 51.728 241.416 51.472C241.016 51.2 240.512 51.064 239.904 51.064C239.232 51.064 238.656 51.224 238.176 51.544C237.712 51.848 237.352 52.288 237.096 52.864C236.856 53.424 236.736 54.096 236.736 54.88V55.048C236.736 56.36 237.04 57.344 237.648 58C238.272 58.64 239.184 58.96 240.384 58.96C240.8 58.96 241.264 58.912 241.776 58.816C242.304 58.704 242.8 58.52 243.264 58.264C243.6 58.072 243.896 57.992 244.152 58.024C244.408 58.04 244.608 58.128 244.752 58.288C244.912 58.448 245.008 58.648 245.04 58.888C245.072 59.112 245.024 59.344 244.896 59.584C244.784 59.824 244.584 60.032 244.296 60.208C243.736 60.56 243.088 60.824 242.352 61C241.632 61.16 240.96 61.24 240.336 61.24Z" fill="#888888"/>
<path d="M100.488 119.432C99.08 119.432 97.992 119.048 97.224 118.28C96.456 117.48 96.072 116.376 96.072 114.968V89.624C96.072 88.184 96.456 87.08 97.224 86.312C98.024 85.544 99.128 85.16 100.536 85.16H112.344C116.184 85.16 119.144 86.152 121.224 88.136C123.336 90.088 124.392 92.792 124.392 96.248C124.392 99.704 123.336 102.424 121.224 104.408C119.144 106.36 116.184 107.336 112.344 107.336H104.904V114.968C104.904 116.376 104.536 117.48 103.8 118.28C103.064 119.048 101.96 119.432 100.488 119.432ZM104.904 100.568H110.808C112.472 100.568 113.752 100.216 114.648 99.512C115.544 98.776 115.992 97.688 115.992 96.248C115.992 94.776 115.544 93.688 114.648 92.984C113.752 92.28 112.472 91.928 110.808 91.928H104.904V100.568ZM131.833 119.432C130.425 119.432 129.337 119.064 128.569 118.328C127.833 117.592 127.465 116.52 127.465 115.112V99.224C127.465 97.848 127.817 96.792 128.521 96.056C129.257 95.32 130.297 94.952 131.641 94.952C132.985 94.952 134.009 95.32 134.713 96.056C135.417 96.792 135.769 97.848 135.769 99.224V101.192H135.289C135.609 99.272 136.425 97.752 137.737 96.632C139.081 95.512 140.745 94.92 142.729 94.856C143.657 94.824 144.345 95.064 144.793 95.576C145.273 96.056 145.529 96.968 145.561 98.312C145.561 99.464 145.321 100.376 144.841 101.048C144.361 101.72 143.449 102.12 142.105 102.248L141.001 102.344C139.305 102.504 138.073 102.984 137.305 103.784C136.537 104.552 136.153 105.704 136.153 107.24V115.112C136.153 116.52 135.785 117.592 135.049 118.328C134.313 119.064 133.241 119.432 131.833 119.432ZM159.807 119.528C157.183 119.528 154.895 119.032 152.943 118.04C150.991 117.048 149.471 115.624 148.383 113.768C147.295 111.912 146.751 109.72 146.751 107.192C146.751 105.272 147.055 103.56 147.663 102.056C148.271 100.52 149.151 99.224 150.303 98.168C151.455 97.08 152.831 96.264 154.431 95.72C156.031 95.144 157.823 94.856 159.807 94.856C162.431 94.856 164.719 95.352 166.671 96.344C168.623 97.336 170.127 98.76 171.183 100.616C172.271 102.44 172.815 104.632 172.815 107.192C172.815 109.08 172.511 110.792 171.903 112.328C171.295 113.864 170.415 115.176 169.263 116.264C168.143 117.32 166.767 118.136 165.135 118.712C163.535 119.256 161.759 119.528 159.807 119.528ZM159.807 113.24C160.671 113.24 161.439 113.032 162.111 112.616C162.783 112.168 163.295 111.512 163.647 110.648C164.031 109.752 164.223 108.6 164.223 107.192C164.223 105.048 163.807 103.512 162.975 102.584C162.143 101.624 161.087 101.144 159.807 101.144C158.943 101.144 158.175 101.352 157.503 101.768C156.831 102.184 156.303 102.84 155.919 103.736C155.535 104.6 155.343 105.752 155.343 107.192C155.343 109.304 155.759 110.84 156.591 111.8C157.423 112.76 158.495 113.24 159.807 113.24ZM175.338 127.976C174.346 128.008 173.562 127.832 172.986 127.448C172.378 127.064 171.962 126.584 171.738 126.008C171.514 125.432 171.466 124.84 171.594 124.232C171.69 123.656 171.946 123.144 172.362 122.696C172.778 122.28 173.306 122.04 173.946 121.976C175.002 121.912 175.77 121.624 176.25 121.112C176.73 120.632 176.97 119.88 176.97 118.856V99.224C176.97 97.848 177.338 96.792 178.074 96.056C178.81 95.32 179.866 94.952 181.242 94.952C182.618 94.952 183.674 95.32 184.41 96.056C185.146 96.792 185.514 97.848 185.514 99.224V118.04C185.514 120.184 185.146 121.976 184.41 123.416C183.674 124.888 182.554 125.992 181.05 126.728C179.578 127.496 177.674 127.912 175.338 127.976ZM181.194 91.544C179.658 91.544 178.474 91.192 177.642 90.488C176.842 89.784 176.442 88.76 176.442 87.416C176.442 86.104 176.842 85.096 177.642 84.392C178.474 83.688 179.658 83.336 181.194 83.336C182.73 83.336 183.898 83.688 184.698 84.392C185.53 85.096 185.946 86.104 185.946 87.416C185.946 88.76 185.53 89.784 184.698 90.488C183.898 91.192 182.73 91.544 181.194 91.544ZM203.376 119.528C200.496 119.528 198 119.032 195.888 118.04C193.808 117.016 192.208 115.576 191.088 113.72C189.968 111.864 189.408 109.672 189.408 107.144C189.408 104.712 189.936 102.584 190.992 100.76C192.08 98.904 193.552 97.464 195.408 96.44C197.296 95.384 199.44 94.856 201.84 94.856C203.6 94.856 205.2 95.144 206.64 95.72C208.08 96.264 209.312 97.08 210.336 98.168C211.36 99.224 212.128 100.504 212.64 102.008C213.184 103.512 213.456 105.192 213.456 107.048C213.456 107.688 213.28 108.168 212.928 108.488C212.576 108.776 212.016 108.92 211.248 108.92H196.56V104.888H207.216L206.448 105.512C206.448 104.328 206.288 103.368 205.968 102.632C205.648 101.896 205.168 101.336 204.528 100.952C203.92 100.568 203.152 100.376 202.224 100.376C201.232 100.376 200.368 100.616 199.632 101.096C198.928 101.544 198.384 102.216 198 103.112C197.616 104.008 197.424 105.128 197.424 106.472V106.904C197.424 109.176 197.92 110.808 198.912 111.8C199.936 112.76 201.504 113.24 203.616 113.24C204.32 113.24 205.12 113.16 206.016 113C206.944 112.808 207.824 112.552 208.656 112.232C209.488 111.912 210.208 111.864 210.816 112.088C211.424 112.28 211.888 112.632 212.208 113.144C212.56 113.624 212.752 114.184 212.784 114.824C212.816 115.432 212.672 116.04 212.352 116.648C212.032 117.224 211.504 117.672 210.768 117.992C209.648 118.504 208.448 118.888 207.168 119.144C205.92 119.4 204.656 119.528 203.376 119.528ZM229.185 119.528C226.529 119.528 224.209 119.032 222.225 118.04C220.273 117.048 218.753 115.624 217.665 113.768C216.577 111.88 216.033 109.672 216.033 107.144C216.033 105.224 216.337 103.512 216.945 102.008C217.553 100.472 218.433 99.176 219.585 98.12C220.769 97.064 222.161 96.264 223.761 95.72C225.393 95.144 227.201 94.856 229.185 94.856C230.113 94.856 231.089 94.952 232.113 95.144C233.137 95.304 234.193 95.624 235.281 96.104C236.049 96.392 236.577 96.84 236.865 97.448C237.185 98.024 237.313 98.648 237.249 99.32C237.217 99.992 237.025 100.6 236.673 101.144C236.353 101.688 235.889 102.056 235.281 102.248C234.705 102.44 234.049 102.36 233.313 102.008C232.801 101.752 232.257 101.576 231.681 101.48C231.137 101.352 230.609 101.288 230.097 101.288C229.233 101.288 228.465 101.416 227.793 101.672C227.153 101.928 226.609 102.312 226.161 102.824C225.713 103.304 225.361 103.912 225.105 104.648C224.881 105.384 224.769 106.216 224.769 107.144C224.769 109 225.233 110.456 226.161 111.512C227.089 112.568 228.401 113.096 230.097 113.096C230.609 113.096 231.137 113.048 231.681 112.952C232.225 112.824 232.769 112.632 233.313 112.376C234.049 112.024 234.705 111.96 235.281 112.184C235.857 112.376 236.321 112.744 236.673 113.288C237.025 113.832 237.217 114.44 237.249 115.112C237.281 115.752 237.137 116.376 236.817 116.984C236.497 117.56 235.953 117.992 235.185 118.28C234.129 118.76 233.089 119.08 232.065 119.24C231.073 119.432 230.113 119.528 229.185 119.528ZM252.958 119.528C250.558 119.528 248.574 119.16 247.006 118.424C245.47 117.688 244.318 116.584 243.55 115.112C242.782 113.608 242.398 111.736 242.398 109.496V101.672H240.766C239.742 101.672 238.942 101.4 238.366 100.856C237.822 100.312 237.55 99.528 237.55 98.504C237.55 97.48 237.822 96.712 238.366 96.2C238.942 95.656 239.742 95.384 240.766 95.384H242.398V92.408C242.398 91 242.766 89.928 243.502 89.192C244.238 88.456 245.294 88.088 246.67 88.088C248.046 88.088 249.102 88.456 249.838 89.192C250.574 89.928 250.942 91 250.942 92.408V95.384H254.878C255.934 95.384 256.734 95.656 257.278 96.2C257.854 96.712 258.142 97.48 258.142 98.504C258.142 99.528 257.854 100.312 257.278 100.856C256.734 101.4 255.934 101.672 254.878 101.672H250.942V109.208C250.942 110.392 251.214 111.272 251.758 111.848C252.334 112.392 253.23 112.664 254.446 112.664C254.894 112.664 255.326 112.616 255.742 112.52C256.158 112.424 256.542 112.376 256.894 112.376C257.406 112.344 257.822 112.504 258.142 112.856C258.462 113.176 258.622 113.928 258.622 115.112C258.622 116.072 258.478 116.888 258.19 117.56C257.902 118.2 257.39 118.664 256.654 118.952C256.206 119.112 255.598 119.24 254.83 119.336C254.062 119.464 253.438 119.528 252.958 119.528ZM291.642 119.528C288.218 119.528 285.21 118.808 282.618 117.368C280.026 115.896 278.01 113.848 276.57 111.224C275.162 108.6 274.458 105.544 274.458 102.056C274.458 99.432 274.858 97.048 275.658 94.904C276.49 92.76 277.658 90.92 279.162 89.384C280.698 87.848 282.522 86.68 284.634 85.88C286.746 85.048 289.082 84.632 291.642 84.632C295.066 84.632 298.058 85.352 300.618 86.792C303.21 88.232 305.226 90.264 306.666 92.888C308.106 95.48 308.826 98.536 308.826 102.056C308.826 104.68 308.41 107.064 307.578 109.208C306.778 111.352 305.61 113.208 304.074 114.776C302.57 116.312 300.762 117.496 298.65 118.328C296.538 119.128 294.202 119.528 291.642 119.528ZM291.642 112.136C293.338 112.136 294.778 111.736 295.962 110.936C297.146 110.136 298.058 108.984 298.698 107.48C299.338 105.976 299.658 104.168 299.658 102.056C299.658 98.888 298.954 96.424 297.546 94.664C296.138 92.904 294.17 92.024 291.642 92.024C289.978 92.024 288.538 92.424 287.322 93.224C286.138 93.992 285.226 95.128 284.586 96.632C283.946 98.104 283.626 99.912 283.626 102.056C283.626 105.224 284.33 107.704 285.738 109.496C287.146 111.256 289.114 112.136 291.642 112.136ZM323.929 119.432C322.809 119.432 321.849 119.16 321.049 118.616C320.281 118.04 319.641 117.192 319.129 116.072L312.265 100.376C311.881 99.416 311.753 98.52 311.881 97.688C312.009 96.856 312.409 96.2 313.081 95.72C313.785 95.208 314.745 94.952 315.961 94.952C316.985 94.952 317.801 95.192 318.409 95.672C319.049 96.12 319.625 97.016 320.137 98.36L324.985 110.84H323.353L328.441 98.312C328.953 97 329.529 96.12 330.169 95.672C330.809 95.192 331.689 94.952 332.809 94.952C333.769 94.952 334.537 95.208 335.113 95.72C335.721 96.2 336.089 96.856 336.217 97.688C336.345 98.52 336.185 99.416 335.737 100.376L328.729 116.12C328.249 117.24 327.609 118.072 326.809 118.616C326.041 119.16 325.081 119.432 323.929 119.432ZM351.735 119.528C348.855 119.528 346.359 119.032 344.247 118.04C342.167 117.016 340.567 115.576 339.447 113.72C338.327 111.864 337.767 109.672 337.767 107.144C337.767 104.712 338.295 102.584 339.351 100.76C340.439 98.904 341.911 97.464 343.767 96.44C345.655 95.384 347.799 94.856 350.199 94.856C351.959 94.856 353.559 95.144 354.999 95.72C356.439 96.264 357.671 97.08 358.695 98.168C359.719 99.224 360.487 100.504 360.999 102.008C361.543 103.512 361.815 105.192 361.815 107.048C361.815 107.688 361.639 108.168 361.287 108.488C360.935 108.776 360.375 108.92 359.607 108.92H344.919V104.888H355.575L354.807 105.512C354.807 104.328 354.647 103.368 354.327 102.632C354.007 101.896 353.527 101.336 352.887 100.952C352.279 100.568 351.511 100.376 350.583 100.376C349.591 100.376 348.727 100.616 347.991 101.096C347.287 101.544 346.743 102.216 346.359 103.112C345.975 104.008 345.783 105.128 345.783 106.472V106.904C345.783 109.176 346.279 110.808 347.271 111.8C348.295 112.76 349.863 113.24 351.975 113.24C352.679 113.24 353.479 113.16 354.375 113C355.303 112.808 356.183 112.552 357.015 112.232C357.847 111.912 358.567 111.864 359.175 112.088C359.783 112.28 360.247 112.632 360.567 113.144C360.919 113.624 361.111 114.184 361.143 114.824C361.175 115.432 361.031 116.04 360.711 116.648C360.391 117.224 359.863 117.672 359.127 117.992C358.007 118.504 356.807 118.888 355.527 119.144C354.279 119.4 353.015 119.528 351.735 119.528ZM369.864 119.432C368.456 119.432 367.368 119.064 366.6 118.328C365.864 117.592 365.496 116.52 365.496 115.112V99.224C365.496 97.848 365.848 96.792 366.552 96.056C367.288 95.32 368.328 94.952 369.672 94.952C371.016 94.952 372.04 95.32 372.744 96.056C373.448 96.792 373.8 97.848 373.8 99.224V101.192H373.32C373.64 99.272 374.456 97.752 375.768 96.632C377.112 95.512 378.776 94.92 380.76 94.856C381.688 94.824 382.376 95.064 382.824 95.576C383.304 96.056 383.56 96.968 383.592 98.312C383.592 99.464 383.352 100.376 382.872 101.048C382.392 101.72 381.48 102.12 380.136 102.248L379.032 102.344C377.336 102.504 376.104 102.984 375.336 103.784C374.568 104.552 374.184 105.704 374.184 107.24V115.112C374.184 116.52 373.816 117.592 373.08 118.328C372.344 119.064 371.272 119.432 369.864 119.432ZM398.226 119.432C397.106 119.432 396.146 119.16 395.346 118.616C394.578 118.04 393.938 117.192 393.426 116.072L386.562 100.376C386.178 99.416 386.05 98.52 386.178 97.688C386.306 96.856 386.706 96.2 387.378 95.72C388.082 95.208 389.042 94.952 390.258 94.952C391.282 94.952 392.098 95.192 392.706 95.672C393.346 96.12 393.922 97.016 394.434 98.36L399.282 110.84H397.65L402.738 98.312C403.25 97 403.826 96.12 404.466 95.672C405.106 95.192 405.986 94.952 407.106 94.952C408.066 94.952 408.834 95.208 409.41 95.72C410.018 96.2 410.386 96.856 410.514 97.688C410.642 98.52 410.482 99.416 410.034 100.376L403.026 116.12C402.546 117.24 401.906 118.072 401.106 118.616C400.338 119.16 399.378 119.432 398.226 119.432ZM418.001 119.432C416.657 119.432 415.617 119.032 414.881 118.232C414.145 117.432 413.777 116.28 413.777 114.776V99.608C413.777 98.104 414.145 96.952 414.881 96.152C415.617 95.352 416.657 94.952 418.001 94.952C419.377 94.952 420.433 95.352 421.169 96.152C421.937 96.952 422.321 98.104 422.321 99.608V114.776C422.321 116.28 421.953 117.432 421.217 118.232C420.481 119.032 419.409 119.432 418.001 119.432ZM418.001 91.544C416.497 91.544 415.329 91.192 414.497 90.488C413.697 89.784 413.297 88.76 413.297 87.416C413.297 86.104 413.697 85.096 414.497 84.392C415.329 83.688 416.497 83.336 418.001 83.336C419.569 83.336 420.753 83.688 421.553 84.392C422.353 85.096 422.753 86.104 422.753 87.416C422.753 88.76 422.353 89.784 421.553 90.488C420.753 91.192 419.569 91.544 418.001 91.544ZM440.141 119.528C437.261 119.528 434.765 119.032 432.653 118.04C430.573 117.016 428.973 115.576 427.853 113.72C426.733 111.864 426.173 109.672 426.173 107.144C426.173 104.712 426.701 102.584 427.757 100.76C428.845 98.904 430.317 97.464 432.173 96.44C434.061 95.384 436.205 94.856 438.605 94.856C440.365 94.856 441.965 95.144 443.405 95.72C444.845 96.264 446.077 97.08 447.101 98.168C448.125 99.224 448.893 100.504 449.405 102.008C449.949 103.512 450.221 105.192 450.221 107.048C450.221 107.688 450.045 108.168 449.693 108.488C449.341 108.776 448.781 108.92 448.013 108.92H433.325V104.888H443.981L443.213 105.512C443.213 104.328 443.053 103.368 442.733 102.632C442.413 101.896 441.933 101.336 441.293 100.952C440.685 100.568 439.917 100.376 438.989 100.376C437.997 100.376 437.133 100.616 436.397 101.096C435.693 101.544 435.149 102.216 434.765 103.112C434.381 104.008 434.189 105.128 434.189 106.472V106.904C434.189 109.176 434.685 110.808 435.677 111.8C436.701 112.76 438.269 113.24 440.381 113.24C441.085 113.24 441.885 113.16 442.781 113C443.709 112.808 444.589 112.552 445.421 112.232C446.253 111.912 446.973 111.864 447.581 112.088C448.189 112.28 448.653 112.632 448.973 113.144C449.325 113.624 449.517 114.184 449.549 114.824C449.581 115.432 449.437 116.04 449.117 116.648C448.797 117.224 448.269 117.672 447.533 117.992C446.413 118.504 445.213 118.888 443.933 119.144C442.685 119.4 441.421 119.528 440.141 119.528ZM463.752 119.432C462.664 119.432 461.72 119.176 460.92 118.664C460.12 118.12 459.48 117.288 459 116.168L452.472 100.376C452.056 99.384 451.912 98.488 452.04 97.688C452.168 96.856 452.552 96.2 453.192 95.72C453.864 95.208 454.776 94.952 455.928 94.952C456.92 94.952 457.736 95.192 458.376 95.672C459.016 96.12 459.592 97.016 460.104 98.36L464.712 110.456H463.704L468.552 97.448C468.872 96.584 469.304 95.96 469.848 95.576C470.424 95.16 471.144 94.952 472.008 94.952C472.936 94.952 473.672 95.16 474.216 95.576C474.76 95.992 475.192 96.616 475.512 97.448L480.36 110.456H479.496L484.152 98.072C484.6 96.856 485.176 96.04 485.88 95.624C486.584 95.176 487.336 94.952 488.136 94.952C489.224 94.952 490.056 95.208 490.632 95.72C491.208 96.232 491.528 96.904 491.592 97.736C491.688 98.568 491.528 99.464 491.112 100.424L484.632 116.12C484.184 117.24 483.56 118.072 482.76 118.616C481.96 119.16 481.016 119.432 479.928 119.432C478.808 119.432 477.848 119.16 477.048 118.616C476.28 118.072 475.656 117.24 475.176 116.12L469.896 102.92H473.4L468.408 116.024C467.96 117.176 467.352 118.04 466.584 118.616C465.816 119.16 464.872 119.432 463.752 119.432Z" fill="black"/>
<path d="M1134 0H1348C1356.28 0 1363 6.71573 1363 15V148C1363 156.284 1356.28 163 1348 163H1134V0Z" fill="#02103C"/>
<path d="M1234.26 103.786H1262.74V109.357H1234.26V103.786ZM1239.96 114.929H1257.04V120.5H1239.96V114.929ZM1248.5 42.5C1240.95 42.5 1233.71 45.4349 1228.37 50.6592C1223.03 55.8834 1220.03 62.969 1220.03 70.3571C1219.84 74.4057 1220.63 78.4412 1222.34 82.1315C1224.05 85.8219 1226.64 89.0616 1229.88 91.5843C1232.73 94.175 1234.26 95.6514 1234.26 98.2143H1239.96C1239.96 93.0886 1236.8 90.2193 1233.72 87.4614C1231.06 85.4676 1228.94 82.8658 1227.55 79.8838C1226.15 76.9019 1225.53 73.6308 1225.72 70.3571C1225.72 64.4466 1228.12 58.7781 1232.39 54.5988C1236.67 50.4194 1242.46 48.0714 1248.5 48.0714C1254.54 48.0714 1260.33 50.4194 1264.61 54.5988C1268.88 58.7781 1271.28 64.4466 1271.28 70.3571C1271.47 73.6333 1270.84 76.9059 1269.44 79.888C1268.04 82.8701 1265.92 85.4706 1263.25 87.4614C1260.2 90.2471 1257.04 93.0329 1257.04 98.2143H1262.74C1262.74 95.6514 1264.25 94.175 1267.12 91.5564C1270.36 89.0381 1272.94 85.8031 1274.66 82.1176C1276.37 78.4321 1277.16 74.4014 1276.97 70.3571C1276.97 66.6989 1276.24 63.0765 1274.81 59.6967C1273.37 56.3169 1271.28 53.2459 1268.63 50.6592C1265.99 48.0724 1262.85 46.0205 1259.4 44.6205C1255.94 43.2205 1252.24 42.5 1248.5 42.5Z" fill="white"/>
</svg>
