<svg width="1363" height="163" viewBox="0 0 1363 163" fill="none" xmlns="http://www.w3.org/2000/svg">
<path d="M0 15C0 6.71573 6.71573 0 15 0H37V163H15C6.71573 163 0 156.284 0 148V15Z" fill="#424242"/>
<rect width="1097" height="163" transform="translate(37)" fill="#F0F0F0"/>
<path d="M95.472 59.728C95.2 59.84 94.952 59.864 94.728 59.8C94.52 59.736 94.352 59.616 94.224 59.44C94.096 59.264 94.024 59.072 94.008 58.864C93.992 58.64 94.04 58.432 94.152 58.24C94.264 58.032 94.448 57.872 94.704 57.76L105.168 53.368V54.856L94.704 50.464C94.448 50.352 94.264 50.2 94.152 50.008C94.04 49.8 93.992 49.584 94.008 49.36C94.024 49.136 94.096 48.936 94.224 48.76C94.352 48.584 94.52 48.464 94.728 48.4C94.952 48.336 95.2 48.36 95.472 48.472L105.072 52.552C105.808 52.856 106.176 53.368 106.176 54.088C106.176 54.456 106.08 54.776 105.888 55.048C105.712 55.304 105.44 55.512 105.072 55.672L95.472 59.728ZM123.626 61.24C121.866 61.24 120.354 60.888 119.09 60.184C117.842 59.464 116.882 58.456 116.21 57.16C115.538 55.848 115.202 54.304 115.202 52.528C115.202 51.2 115.394 50.008 115.778 48.952C116.162 47.88 116.714 46.968 117.434 46.216C118.154 45.448 119.034 44.864 120.074 44.464C121.13 44.048 122.314 43.84 123.626 43.84C124.506 43.84 125.37 43.952 126.218 44.176C127.066 44.4 127.81 44.72 128.45 45.136C128.786 45.344 129.01 45.6 129.122 45.904C129.234 46.192 129.258 46.48 129.194 46.768C129.13 47.04 128.994 47.272 128.786 47.464C128.594 47.656 128.346 47.768 128.042 47.8C127.754 47.816 127.434 47.712 127.082 47.488C126.586 47.168 126.05 46.936 125.474 46.792C124.898 46.648 124.314 46.576 123.722 46.576C122.586 46.576 121.626 46.808 120.842 47.272C120.058 47.736 119.466 48.408 119.066 49.288C118.666 50.168 118.466 51.248 118.466 52.528C118.466 53.792 118.666 54.872 119.066 55.768C119.466 56.664 120.058 57.344 120.842 57.808C121.626 58.272 122.586 58.504 123.722 58.504C124.33 58.504 124.93 58.432 125.522 58.288C126.114 58.128 126.674 57.888 127.202 57.568C127.554 57.36 127.866 57.272 128.138 57.304C128.426 57.32 128.666 57.416 128.858 57.592C129.05 57.768 129.178 57.992 129.242 58.264C129.306 58.52 129.29 58.792 129.194 59.08C129.098 59.352 128.906 59.592 128.618 59.8C127.978 60.264 127.21 60.624 126.314 60.88C125.434 61.12 124.538 61.24 123.626 61.24ZM136.287 61.24C135.071 61.24 134.015 60.992 133.119 60.496C132.223 60 131.527 59.296 131.031 58.384C130.535 57.456 130.287 56.368 130.287 55.12C130.287 54.176 130.423 53.336 130.695 52.6C130.983 51.848 131.391 51.208 131.919 50.68C132.447 50.136 133.079 49.728 133.815 49.456C134.551 49.168 135.375 49.024 136.287 49.024C137.503 49.024 138.559 49.272 139.455 49.768C140.351 50.264 141.047 50.968 141.543 51.88C142.039 52.792 142.287 53.872 142.287 55.12C142.287 56.064 142.143 56.912 141.855 57.664C141.583 58.416 141.183 59.064 140.655 59.608C140.127 60.136 139.495 60.544 138.759 60.832C138.023 61.104 137.199 61.24 136.287 61.24ZM136.287 58.96C136.879 58.96 137.399 58.816 137.847 58.528C138.295 58.24 138.639 57.816 138.879 57.256C139.135 56.68 139.263 55.968 139.263 55.12C139.263 53.84 138.991 52.888 138.447 52.264C137.903 51.624 137.183 51.304 136.287 51.304C135.695 51.304 135.175 51.448 134.727 51.736C134.279 52.008 133.927 52.432 133.671 53.008C133.431 53.568 133.311 54.272 133.311 55.12C133.311 56.384 133.583 57.344 134.127 58C134.671 58.64 135.391 58.96 136.287 58.96ZM146.251 61.192C145.771 61.192 145.403 61.064 145.147 60.808C144.891 60.536 144.763 60.152 144.763 59.656V50.584C144.763 50.088 144.891 49.712 145.147 49.456C145.403 49.2 145.763 49.072 146.227 49.072C146.691 49.072 147.051 49.2 147.307 49.456C147.563 49.712 147.691 50.088 147.691 50.584V52.216L147.427 51.616C147.779 50.768 148.323 50.128 149.059 49.696C149.811 49.248 150.659 49.024 151.603 49.024C152.547 49.024 153.323 49.2 153.931 49.552C154.539 49.904 154.995 50.44 155.299 51.16C155.603 51.864 155.755 52.76 155.755 53.848V59.656C155.755 60.152 155.627 60.536 155.371 60.808C155.115 61.064 154.747 61.192 154.267 61.192C153.787 61.192 153.411 61.064 153.139 60.808C152.883 60.536 152.755 60.152 152.755 59.656V53.992C152.755 53.08 152.579 52.416 152.227 52C151.891 51.584 151.363 51.376 150.643 51.376C149.763 51.376 149.059 51.656 148.531 52.216C148.019 52.76 147.763 53.488 147.763 54.4V59.656C147.763 60.68 147.259 61.192 146.251 61.192ZM163.437 61.192C163.037 61.192 162.685 61.088 162.381 60.88C162.093 60.672 161.853 60.352 161.661 59.92L157.845 51.064C157.701 50.712 157.645 50.384 157.677 50.08C157.725 49.776 157.869 49.536 158.109 49.36C158.365 49.168 158.709 49.072 159.141 49.072C159.509 49.072 159.805 49.16 160.029 49.336C160.253 49.496 160.453 49.808 160.629 50.272L163.869 58.36H163.149L166.485 50.248C166.661 49.8 166.861 49.496 167.085 49.336C167.325 49.16 167.645 49.072 168.045 49.072C168.397 49.072 168.677 49.168 168.885 49.36C169.093 49.536 169.221 49.776 169.269 50.08C169.317 50.368 169.261 50.688 169.101 51.04L165.213 59.92C165.037 60.352 164.797 60.672 164.493 60.88C164.205 61.088 163.853 61.192 163.437 61.192ZM176.459 61.24C175.243 61.24 174.187 60.992 173.291 60.496C172.395 60 171.699 59.296 171.203 58.384C170.707 57.456 170.459 56.368 170.459 55.12C170.459 54.176 170.595 53.336 170.867 52.6C171.155 51.848 171.563 51.208 172.091 50.68C172.619 50.136 173.251 49.728 173.987 49.456C174.723 49.168 175.547 49.024 176.459 49.024C177.675 49.024 178.731 49.272 179.627 49.768C180.523 50.264 181.219 50.968 181.715 51.88C182.211 52.792 182.459 53.872 182.459 55.12C182.459 56.064 182.315 56.912 182.027 57.664C181.755 58.416 181.355 59.064 180.827 59.608C180.299 60.136 179.667 60.544 178.931 60.832C178.195 61.104 177.371 61.24 176.459 61.24ZM176.459 58.96C177.051 58.96 177.571 58.816 178.019 58.528C178.467 58.24 178.811 57.816 179.051 57.256C179.307 56.68 179.435 55.968 179.435 55.12C179.435 53.84 179.163 52.888 178.619 52.264C178.075 51.624 177.355 51.304 176.459 51.304C175.867 51.304 175.347 51.448 174.899 51.736C174.451 52.008 174.099 52.432 173.843 53.008C173.603 53.568 173.483 54.272 173.483 55.12C173.483 56.384 173.755 57.344 174.299 58C174.843 58.64 175.563 58.96 176.459 58.96ZM191.943 61.192C191.511 61.192 191.151 61.096 190.863 60.904C190.591 60.696 190.367 60.392 190.191 59.992L183.927 45.928C183.751 45.528 183.703 45.176 183.783 44.872C183.863 44.568 184.031 44.328 184.287 44.152C184.543 43.976 184.847 43.888 185.199 43.888C185.663 43.888 186.007 43.992 186.231 44.2C186.471 44.392 186.671 44.688 186.831 45.088L192.519 58.264H191.487L197.151 45.064C197.327 44.68 197.535 44.392 197.775 44.2C198.015 43.992 198.351 43.888 198.783 43.888C199.135 43.888 199.423 43.976 199.647 44.152C199.887 44.328 200.039 44.568 200.103 44.872C200.167 45.176 200.111 45.528 199.935 45.928L193.671 59.992C193.495 60.392 193.271 60.696 192.999 60.904C192.743 61.096 192.391 61.192 191.943 61.192ZM206.328 61.24C205 61.24 203.856 60.992 202.896 60.496C201.936 60 201.192 59.296 200.664 58.384C200.152 57.472 199.896 56.392 199.896 55.144C199.896 53.928 200.144 52.864 200.64 51.952C201.152 51.04 201.848 50.328 202.728 49.816C203.624 49.288 204.64 49.024 205.776 49.024C206.608 49.024 207.352 49.16 208.008 49.432C208.68 49.704 209.248 50.096 209.712 50.608C210.192 51.12 210.552 51.744 210.792 52.48C211.048 53.2 211.176 54.016 211.176 54.928C211.176 55.216 211.072 55.44 210.864 55.6C210.672 55.744 210.392 55.816 210.024 55.816H202.32V54.088H209.064L208.68 54.448C208.68 53.712 208.568 53.096 208.344 52.6C208.136 52.104 207.824 51.728 207.408 51.472C207.008 51.2 206.504 51.064 205.896 51.064C205.224 51.064 204.648 51.224 204.168 51.544C203.704 51.848 203.344 52.288 203.088 52.864C202.848 53.424 202.728 54.096 202.728 54.88V55.048C202.728 56.36 203.032 57.344 203.64 58C204.264 58.64 205.176 58.96 206.376 58.96C206.792 58.96 207.256 58.912 207.768 58.816C208.296 58.704 208.792 58.52 209.256 58.264C209.592 58.072 209.888 57.992 210.144 58.024C210.4 58.04 210.6 58.128 210.744 58.288C210.904 58.448 211 58.648 211.032 58.888C211.064 59.112 211.016 59.344 210.888 59.584C210.776 59.824 210.576 60.032 210.288 60.208C209.728 60.56 209.08 60.824 208.344 61C207.624 61.16 206.952 61.24 206.328 61.24ZM215.088 61.192C214.592 61.192 214.208 61.064 213.936 60.808C213.68 60.536 213.552 60.152 213.552 59.656V50.584C213.552 50.088 213.68 49.712 213.936 49.456C214.192 49.2 214.552 49.072 215.016 49.072C215.48 49.072 215.84 49.2 216.096 49.456C216.352 49.712 216.48 50.088 216.48 50.584V52.096H216.24C216.464 51.136 216.904 50.408 217.56 49.912C218.216 49.416 219.088 49.12 220.176 49.024C220.512 48.992 220.776 49.08 220.968 49.288C221.176 49.48 221.296 49.784 221.328 50.2C221.36 50.6 221.264 50.928 221.04 51.184C220.832 51.424 220.512 51.568 220.08 51.616L219.552 51.664C218.576 51.76 217.84 52.064 217.344 52.576C216.848 53.072 216.6 53.776 216.6 54.688V59.656C216.6 60.152 216.472 60.536 216.216 60.808C215.96 61.064 215.584 61.192 215.088 61.192ZM227.129 61.24C226.441 61.24 225.713 61.168 224.945 61.024C224.177 60.88 223.489 60.632 222.881 60.28C222.625 60.12 222.441 59.936 222.329 59.728C222.233 59.504 222.193 59.288 222.209 59.08C222.241 58.856 222.321 58.664 222.449 58.504C222.593 58.344 222.769 58.24 222.977 58.192C223.201 58.144 223.441 58.184 223.697 58.312C224.337 58.616 224.937 58.832 225.497 58.96C226.057 59.072 226.609 59.128 227.153 59.128C227.921 59.128 228.489 59 228.857 58.744C229.241 58.472 229.433 58.12 229.433 57.688C229.433 57.32 229.305 57.04 229.049 56.848C228.809 56.64 228.441 56.488 227.945 56.392L225.545 55.936C224.553 55.744 223.793 55.384 223.265 54.856C222.753 54.312 222.497 53.616 222.497 52.768C222.497 52 222.705 51.336 223.121 50.776C223.553 50.216 224.145 49.784 224.897 49.48C225.649 49.176 226.513 49.024 227.489 49.024C228.193 49.024 228.849 49.104 229.457 49.264C230.081 49.408 230.681 49.64 231.257 49.96C231.497 50.088 231.657 50.256 231.737 50.464C231.833 50.672 231.857 50.888 231.809 51.112C231.761 51.32 231.665 51.512 231.521 51.688C231.377 51.848 231.193 51.952 230.969 52C230.761 52.032 230.521 51.984 230.249 51.856C229.753 51.6 229.273 51.416 228.809 51.304C228.361 51.192 227.929 51.136 227.513 51.136C226.729 51.136 226.145 51.272 225.761 51.544C225.393 51.816 225.209 52.176 225.209 52.624C225.209 52.96 225.321 53.24 225.545 53.464C225.769 53.688 226.113 53.84 226.577 53.92L228.977 54.376C230.017 54.568 230.801 54.92 231.329 55.432C231.873 55.944 232.145 56.632 232.145 57.496C232.145 58.664 231.689 59.584 230.777 60.256C229.865 60.912 228.649 61.24 227.129 61.24ZM240.336 61.24C239.008 61.24 237.864 60.992 236.904 60.496C235.944 60 235.2 59.296 234.672 58.384C234.16 57.472 233.904 56.392 233.904 55.144C233.904 53.928 234.152 52.864 234.648 51.952C235.16 51.04 235.856 50.328 236.736 49.816C237.632 49.288 238.648 49.024 239.784 49.024C240.616 49.024 241.36 49.16 242.016 49.432C242.688 49.704 243.256 50.096 243.72 50.608C244.2 51.12 244.56 51.744 244.8 52.48C245.056 53.2 245.184 54.016 245.184 54.928C245.184 55.216 245.08 55.44 244.872 55.6C244.68 55.744 244.4 55.816 244.032 55.816H236.328V54.088H243.072L242.688 54.448C242.688 53.712 242.576 53.096 242.352 52.6C242.144 52.104 241.832 51.728 241.416 51.472C241.016 51.2 240.512 51.064 239.904 51.064C239.232 51.064 238.656 51.224 238.176 51.544C237.712 51.848 237.352 52.288 237.096 52.864C236.856 53.424 236.736 54.096 236.736 54.88V55.048C236.736 56.36 237.04 57.344 237.648 58C238.272 58.64 239.184 58.96 240.384 58.96C240.8 58.96 241.264 58.912 241.776 58.816C242.304 58.704 242.8 58.52 243.264 58.264C243.6 58.072 243.896 57.992 244.152 58.024C244.408 58.04 244.608 58.128 244.752 58.288C244.912 58.448 245.008 58.648 245.04 58.888C245.072 59.112 245.024 59.344 244.896 59.584C244.784 59.824 244.584 60.032 244.296 60.208C243.736 60.56 243.088 60.824 242.352 61C241.632 61.16 240.96 61.24 240.336 61.24Z" fill="#888888"/>
<path d="M100.68 119C99.176 119 98.024 118.616 97.224 117.848C96.456 117.048 96.072 115.912 96.072 114.44V89.72C96.072 88.248 96.456 87.128 97.224 86.36C98.024 85.56 99.176 85.16 100.68 85.16H110.088C115.976 85.16 120.52 86.632 123.72 89.576C126.952 92.52 128.568 96.68 128.568 102.056C128.568 104.744 128.152 107.144 127.32 109.256C126.488 111.336 125.288 113.112 123.72 114.584C122.152 116.024 120.216 117.128 117.912 117.896C115.64 118.632 113.032 119 110.088 119H100.68ZM104.904 111.848H109.512C111.208 111.848 112.664 111.64 113.88 111.224C115.128 110.808 116.152 110.2 116.952 109.4C117.784 108.6 118.392 107.592 118.776 106.376C119.192 105.16 119.4 103.72 119.4 102.056C119.4 98.728 118.584 96.28 116.952 94.712C115.32 93.112 112.84 92.312 109.512 92.312H104.904V111.848ZM146.094 119.528C143.214 119.528 140.718 119.032 138.606 118.04C136.526 117.016 134.926 115.576 133.806 113.72C132.686 111.864 132.126 109.672 132.126 107.144C132.126 104.712 132.654 102.584 133.71 100.76C134.798 98.904 136.27 97.464 138.126 96.44C140.014 95.384 142.158 94.856 144.558 94.856C146.318 94.856 147.918 95.144 149.358 95.72C150.798 96.264 152.03 97.08 153.054 98.168C154.078 99.224 154.846 100.504 155.358 102.008C155.902 103.512 156.174 105.192 156.174 107.048C156.174 107.688 155.998 108.168 155.646 108.488C155.294 108.776 154.734 108.92 153.966 108.92H139.278V104.888H149.934L149.166 105.512C149.166 104.328 149.006 103.368 148.686 102.632C148.366 101.896 147.886 101.336 147.246 100.952C146.638 100.568 145.87 100.376 144.942 100.376C143.95 100.376 143.086 100.616 142.35 101.096C141.646 101.544 141.102 102.216 140.718 103.112C140.334 104.008 140.142 105.128 140.142 106.472V106.904C140.142 109.176 140.638 110.808 141.63 111.8C142.654 112.76 144.222 113.24 146.334 113.24C147.038 113.24 147.838 113.16 148.734 113C149.662 112.808 150.542 112.552 151.374 112.232C152.206 111.912 152.926 111.864 153.534 112.088C154.142 112.28 154.606 112.632 154.926 113.144C155.278 113.624 155.47 114.184 155.502 114.824C155.534 115.432 155.39 116.04 155.07 116.648C154.75 117.224 154.222 117.672 153.486 117.992C152.366 118.504 151.166 118.888 149.886 119.144C148.638 119.4 147.374 119.528 146.094 119.528ZM164.079 128.072C162.735 128.072 161.695 127.704 160.959 126.968C160.223 126.232 159.855 125.16 159.855 123.752V99.224C159.855 97.848 160.207 96.792 160.911 96.056C161.647 95.32 162.687 94.952 164.031 94.952C165.407 94.952 166.447 95.32 167.151 96.056C167.887 96.792 168.255 97.848 168.255 99.224V102.008L167.727 99.656C168.175 98.216 169.103 97.064 170.511 96.2C171.951 95.304 173.583 94.856 175.407 94.856C177.455 94.856 179.247 95.352 180.783 96.344C182.351 97.336 183.567 98.744 184.431 100.568C185.295 102.392 185.727 104.6 185.727 107.192C185.727 109.72 185.295 111.912 184.431 113.768C183.567 115.624 182.351 117.048 180.783 118.04C179.247 119.032 177.455 119.528 175.407 119.528C173.647 119.528 172.063 119.112 170.655 118.28C169.247 117.448 168.303 116.36 167.823 115.016H168.399V123.752C168.399 125.16 168.015 126.232 167.247 126.968C166.511 127.704 165.455 128.072 164.079 128.072ZM172.719 113.24C173.583 113.24 174.335 113.032 174.975 112.616C175.647 112.168 176.175 111.512 176.559 110.648C176.943 109.752 177.135 108.6 177.135 107.192C177.135 105.048 176.719 103.512 175.887 102.584C175.055 101.624 173.999 101.144 172.719 101.144C171.855 101.144 171.087 101.352 170.415 101.768C169.743 102.184 169.215 102.84 168.831 103.736C168.447 104.6 168.255 105.752 168.255 107.192C168.255 109.304 168.671 110.84 169.503 111.8C170.335 112.76 171.407 113.24 172.719 113.24ZM198.597 119.528C195.525 119.528 193.253 118.712 191.781 117.08C190.341 115.416 189.621 112.92 189.621 109.592V89.048C189.621 87.64 189.989 86.568 190.725 85.832C191.461 85.096 192.501 84.728 193.845 84.728C195.221 84.728 196.277 85.096 197.013 85.832C197.781 86.568 198.165 87.64 198.165 89.048V109.304C198.165 110.488 198.389 111.352 198.837 111.896C199.317 112.44 199.925 112.712 200.661 112.712C200.885 112.712 201.109 112.696 201.333 112.664C201.589 112.6 201.861 112.552 202.149 112.52C202.693 112.52 203.093 112.728 203.349 113.144C203.637 113.56 203.781 114.408 203.781 115.688C203.781 116.808 203.557 117.656 203.109 118.232C202.661 118.776 201.973 119.128 201.045 119.288C200.789 119.32 200.421 119.368 199.941 119.432C199.461 119.496 199.013 119.528 198.597 119.528ZM218.026 119.528C215.402 119.528 213.114 119.032 211.162 118.04C209.21 117.048 207.69 115.624 206.602 113.768C205.514 111.912 204.97 109.72 204.97 107.192C204.97 105.272 205.274 103.56 205.882 102.056C206.49 100.52 207.37 99.224 208.522 98.168C209.674 97.08 211.05 96.264 212.65 95.72C214.25 95.144 216.042 94.856 218.026 94.856C220.65 94.856 222.938 95.352 224.89 96.344C226.842 97.336 228.346 98.76 229.402 100.616C230.49 102.44 231.034 104.632 231.034 107.192C231.034 109.08 230.73 110.792 230.122 112.328C229.514 113.864 228.634 115.176 227.482 116.264C226.362 117.32 224.986 118.136 223.354 118.712C221.754 119.256 219.978 119.528 218.026 119.528ZM218.026 113.24C218.89 113.24 219.658 113.032 220.33 112.616C221.002 112.168 221.514 111.512 221.866 110.648C222.25 109.752 222.442 108.6 222.442 107.192C222.442 105.048 222.026 103.512 221.194 102.584C220.362 101.624 219.306 101.144 218.026 101.144C217.162 101.144 216.394 101.352 215.722 101.768C215.05 102.184 214.522 102.84 214.138 103.736C213.754 104.6 213.562 105.752 213.562 107.192C213.562 109.304 213.978 110.84 214.81 111.8C215.642 112.76 216.714 113.24 218.026 113.24ZM241.204 128.072C240.212 128.072 239.412 127.816 238.804 127.304C238.196 126.792 237.812 126.12 237.652 125.288C237.524 124.456 237.668 123.576 238.084 122.648L241.3 115.688V119.144L233.092 100.376C232.676 99.416 232.532 98.52 232.66 97.688C232.82 96.856 233.252 96.2 233.956 95.72C234.66 95.208 235.62 94.952 236.836 94.952C237.86 94.952 238.676 95.192 239.284 95.672C239.924 96.12 240.5 97.016 241.012 98.36L245.812 110.84H244.18L249.268 98.312C249.78 97 250.356 96.12 250.996 95.672C251.668 95.192 252.564 94.952 253.684 94.952C254.644 94.952 255.412 95.208 255.988 95.72C256.564 96.2 256.916 96.856 257.044 97.688C257.172 98.52 257.028 99.416 256.612 100.376L245.716 124.856C245.14 126.136 244.5 126.984 243.796 127.4C243.124 127.848 242.26 128.072 241.204 128.072ZM264.629 119.432C263.285 119.432 262.245 119.064 261.509 118.328C260.773 117.592 260.405 116.52 260.405 115.112V99.224C260.405 97.848 260.757 96.792 261.461 96.056C262.197 95.32 263.237 94.952 264.581 94.952C265.925 94.952 266.949 95.32 267.653 96.056C268.357 96.792 268.709 97.848 268.709 99.224V101.864L268.181 99.512C268.853 98.104 269.845 96.984 271.157 96.152C272.501 95.288 274.085 94.856 275.909 94.856C277.637 94.856 279.109 95.272 280.325 96.104C281.573 96.936 282.469 98.2 283.013 99.896H282.341C283.077 98.328 284.181 97.096 285.653 96.2C287.125 95.304 288.757 94.856 290.549 94.856C292.405 94.856 293.925 95.224 295.109 95.96C296.293 96.664 297.173 97.784 297.749 99.32C298.357 100.824 298.661 102.728 298.661 105.032V115.112C298.661 116.52 298.277 117.592 297.509 118.328C296.773 119.064 295.717 119.432 294.341 119.432C292.997 119.432 291.957 119.064 291.221 118.328C290.485 117.592 290.117 116.52 290.117 115.112V105.272C290.117 103.896 289.909 102.904 289.493 102.296C289.077 101.688 288.389 101.384 287.429 101.384C286.245 101.384 285.333 101.8 284.693 102.632C284.085 103.464 283.781 104.648 283.781 106.184V115.112C283.781 116.52 283.413 117.592 282.677 118.328C281.941 119.064 280.885 119.432 279.509 119.432C278.133 119.432 277.077 119.064 276.341 118.328C275.605 117.592 275.237 116.52 275.237 115.112V105.272C275.237 103.896 275.029 102.904 274.613 102.296C274.197 101.688 273.509 101.384 272.549 101.384C271.397 101.384 270.501 101.8 269.861 102.632C269.253 103.464 268.949 104.648 268.949 106.184V115.112C268.949 117.992 267.509 119.432 264.629 119.432ZM316.485 119.528C313.605 119.528 311.109 119.032 308.997 118.04C306.917 117.016 305.317 115.576 304.197 113.72C303.077 111.864 302.517 109.672 302.517 107.144C302.517 104.712 303.045 102.584 304.101 100.76C305.189 98.904 306.661 97.464 308.517 96.44C310.405 95.384 312.549 94.856 314.949 94.856C316.709 94.856 318.309 95.144 319.749 95.72C321.189 96.264 322.421 97.08 323.445 98.168C324.469 99.224 325.237 100.504 325.749 102.008C326.293 103.512 326.565 105.192 326.565 107.048C326.565 107.688 326.389 108.168 326.037 108.488C325.685 108.776 325.125 108.92 324.357 108.92H309.669V104.888H320.325L319.557 105.512C319.557 104.328 319.397 103.368 319.077 102.632C318.757 101.896 318.277 101.336 317.637 100.952C317.029 100.568 316.261 100.376 315.333 100.376C314.341 100.376 313.477 100.616 312.741 101.096C312.037 101.544 311.493 102.216 311.109 103.112C310.725 104.008 310.533 105.128 310.533 106.472V106.904C310.533 109.176 311.029 110.808 312.021 111.8C313.045 112.76 314.613 113.24 316.725 113.24C317.429 113.24 318.229 113.16 319.125 113C320.053 112.808 320.933 112.552 321.765 112.232C322.597 111.912 323.317 111.864 323.925 112.088C324.533 112.28 324.997 112.632 325.317 113.144C325.669 113.624 325.861 114.184 325.893 114.824C325.925 115.432 325.781 116.04 325.461 116.648C325.141 117.224 324.613 117.672 323.877 117.992C322.757 118.504 321.557 118.888 320.277 119.144C319.029 119.4 317.765 119.528 316.485 119.528ZM334.47 119.432C333.126 119.432 332.086 119.064 331.35 118.328C330.614 117.592 330.246 116.52 330.246 115.112V99.224C330.246 97.848 330.598 96.792 331.302 96.056C332.038 95.32 333.078 94.952 334.422 94.952C335.766 94.952 336.79 95.32 337.494 96.056C338.198 96.792 338.55 97.848 338.55 99.224V101.48L338.022 99.512C338.79 98.008 339.878 96.856 341.286 96.056C342.726 95.256 344.358 94.856 346.182 94.856C348.07 94.856 349.622 95.224 350.838 95.96C352.054 96.664 352.966 97.784 353.574 99.32C354.182 100.824 354.486 102.728 354.486 105.032V115.112C354.486 116.52 354.118 117.592 353.382 118.328C352.646 119.064 351.59 119.432 350.214 119.432C348.838 119.432 347.782 119.064 347.046 118.328C346.31 117.592 345.942 116.52 345.942 115.112V105.368C345.942 103.928 345.686 102.904 345.174 102.296C344.694 101.688 343.974 101.384 343.014 101.384C341.734 101.384 340.71 101.8 339.942 102.632C339.174 103.432 338.79 104.52 338.79 105.896V115.112C338.79 117.992 337.35 119.432 334.47 119.432ZM371.739 119.528C369.339 119.528 367.355 119.16 365.787 118.424C364.251 117.688 363.099 116.584 362.331 115.112C361.563 113.608 361.179 111.736 361.179 109.496V101.672H359.547C358.523 101.672 357.723 101.4 357.147 100.856C356.603 100.312 356.331 99.528 356.331 98.504C356.331 97.48 356.603 96.712 357.147 96.2C357.723 95.656 358.523 95.384 359.547 95.384H361.179V92.408C361.179 91 361.547 89.928 362.283 89.192C363.019 88.456 364.075 88.088 365.451 88.088C366.827 88.088 367.883 88.456 368.619 89.192C369.355 89.928 369.723 91 369.723 92.408V95.384H373.659C374.715 95.384 375.515 95.656 376.059 96.2C376.635 96.712 376.923 97.48 376.923 98.504C376.923 99.528 376.635 100.312 376.059 100.856C375.515 101.4 374.715 101.672 373.659 101.672H369.723V109.208C369.723 110.392 369.995 111.272 370.539 111.848C371.115 112.392 372.011 112.664 373.227 112.664C373.675 112.664 374.107 112.616 374.523 112.52C374.939 112.424 375.323 112.376 375.675 112.376C376.187 112.344 376.603 112.504 376.923 112.856C377.243 113.176 377.403 113.928 377.403 115.112C377.403 116.072 377.259 116.888 376.971 117.56C376.683 118.2 376.171 118.664 375.435 118.952C374.987 119.112 374.379 119.24 373.611 119.336C372.843 119.464 372.219 119.528 371.739 119.528Z" fill="black"/>
<path d="M1134 0H1348C1356.28 0 1363 6.71573 1363 15V148C1363 156.284 1356.28 163 1348 163H1134V0Z" fill="#02103C"/>
<path d="M1212.5 117.5L1212.5 45.5L1284.5 45.5L1284.5 117.5L1212.5 117.5Z" fill="white" fill-opacity="0.01"/>
<path d="M1221.5 81.5125L1221.5 108.5L1275.5 108.5L1275.5 81.5" stroke="white" stroke-width="7.24" stroke-linecap="round" stroke-linejoin="round"/>
<path d="M1262 68L1248.5 54.5L1235 68" stroke="white" stroke-width="7.24" stroke-linecap="round" stroke-linejoin="round"/>
<path d="M1248.49 93.4999L1248.49 54.5" stroke="white" stroke-width="7.24" stroke-linecap="round" stroke-linejoin="round"/>
</svg>
