<svg width="1363" height="163" viewBox="0 0 1363 163" fill="none" xmlns="http://www.w3.org/2000/svg">
<path d="M0 15C0 6.71573 6.71573 0 15 0H37V163H15C6.71573 163 0 156.284 0 148V15Z" fill="#424242"/>
<rect width="1097" height="163" transform="translate(37)" fill="#F0F0F0"/>
<path d="M95.472 59.728C95.2 59.84 94.952 59.864 94.728 59.8C94.52 59.736 94.352 59.616 94.224 59.44C94.096 59.264 94.024 59.072 94.008 58.864C93.992 58.64 94.04 58.432 94.152 58.24C94.264 58.032 94.448 57.872 94.704 57.76L105.168 53.368V54.856L94.704 50.464C94.448 50.352 94.264 50.2 94.152 50.008C94.04 49.8 93.992 49.584 94.008 49.36C94.024 49.136 94.096 48.936 94.224 48.76C94.352 48.584 94.52 48.464 94.728 48.4C94.952 48.336 95.2 48.36 95.472 48.472L105.072 52.552C105.808 52.856 106.176 53.368 106.176 54.088C106.176 54.456 106.08 54.776 105.888 55.048C105.712 55.304 105.44 55.512 105.072 55.672L95.472 59.728ZM123.626 61.24C121.866 61.24 120.354 60.888 119.09 60.184C117.842 59.464 116.882 58.456 116.21 57.16C115.538 55.848 115.202 54.304 115.202 52.528C115.202 51.2 115.394 50.008 115.778 48.952C116.162 47.88 116.714 46.968 117.434 46.216C118.154 45.448 119.034 44.864 120.074 44.464C121.13 44.048 122.314 43.84 123.626 43.84C124.506 43.84 125.37 43.952 126.218 44.176C127.066 44.4 127.81 44.72 128.45 45.136C128.786 45.344 129.01 45.6 129.122 45.904C129.234 46.192 129.258 46.48 129.194 46.768C129.13 47.04 128.994 47.272 128.786 47.464C128.594 47.656 128.346 47.768 128.042 47.8C127.754 47.816 127.434 47.712 127.082 47.488C126.586 47.168 126.05 46.936 125.474 46.792C124.898 46.648 124.314 46.576 123.722 46.576C122.586 46.576 121.626 46.808 120.842 47.272C120.058 47.736 119.466 48.408 119.066 49.288C118.666 50.168 118.466 51.248 118.466 52.528C118.466 53.792 118.666 54.872 119.066 55.768C119.466 56.664 120.058 57.344 120.842 57.808C121.626 58.272 122.586 58.504 123.722 58.504C124.33 58.504 124.93 58.432 125.522 58.288C126.114 58.128 126.674 57.888 127.202 57.568C127.554 57.36 127.866 57.272 128.138 57.304C128.426 57.32 128.666 57.416 128.858 57.592C129.05 57.768 129.178 57.992 129.242 58.264C129.306 58.52 129.29 58.792 129.194 59.08C129.098 59.352 128.906 59.592 128.618 59.8C127.978 60.264 127.21 60.624 126.314 60.88C125.434 61.12 124.538 61.24 123.626 61.24ZM136.287 61.24C135.071 61.24 134.015 60.992 133.119 60.496C132.223 60 131.527 59.296 131.031 58.384C130.535 57.456 130.287 56.368 130.287 55.12C130.287 54.176 130.423 53.336 130.695 52.6C130.983 51.848 131.391 51.208 131.919 50.68C132.447 50.136 133.079 49.728 133.815 49.456C134.551 49.168 135.375 49.024 136.287 49.024C137.503 49.024 138.559 49.272 139.455 49.768C140.351 50.264 141.047 50.968 141.543 51.88C142.039 52.792 142.287 53.872 142.287 55.12C142.287 56.064 142.143 56.912 141.855 57.664C141.583 58.416 141.183 59.064 140.655 59.608C140.127 60.136 139.495 60.544 138.759 60.832C138.023 61.104 137.199 61.24 136.287 61.24ZM136.287 58.96C136.879 58.96 137.399 58.816 137.847 58.528C138.295 58.24 138.639 57.816 138.879 57.256C139.135 56.68 139.263 55.968 139.263 55.12C139.263 53.84 138.991 52.888 138.447 52.264C137.903 51.624 137.183 51.304 136.287 51.304C135.695 51.304 135.175 51.448 134.727 51.736C134.279 52.008 133.927 52.432 133.671 53.008C133.431 53.568 133.311 54.272 133.311 55.12C133.311 56.384 133.583 57.344 134.127 58C134.671 58.64 135.391 58.96 136.287 58.96ZM146.251 61.192C145.771 61.192 145.403 61.064 145.147 60.808C144.891 60.536 144.763 60.152 144.763 59.656V50.584C144.763 50.088 144.891 49.712 145.147 49.456C145.403 49.2 145.763 49.072 146.227 49.072C146.691 49.072 147.051 49.2 147.307 49.456C147.563 49.712 147.691 50.088 147.691 50.584V52.216L147.427 51.616C147.779 50.768 148.323 50.128 149.059 49.696C149.811 49.248 150.659 49.024 151.603 49.024C152.547 49.024 153.323 49.2 153.931 49.552C154.539 49.904 154.995 50.44 155.299 51.16C155.603 51.864 155.755 52.76 155.755 53.848V59.656C155.755 60.152 155.627 60.536 155.371 60.808C155.115 61.064 154.747 61.192 154.267 61.192C153.787 61.192 153.411 61.064 153.139 60.808C152.883 60.536 152.755 60.152 152.755 59.656V53.992C152.755 53.08 152.579 52.416 152.227 52C151.891 51.584 151.363 51.376 150.643 51.376C149.763 51.376 149.059 51.656 148.531 52.216C148.019 52.76 147.763 53.488 147.763 54.4V59.656C147.763 60.68 147.259 61.192 146.251 61.192ZM163.437 61.192C163.037 61.192 162.685 61.088 162.381 60.88C162.093 60.672 161.853 60.352 161.661 59.92L157.845 51.064C157.701 50.712 157.645 50.384 157.677 50.08C157.725 49.776 157.869 49.536 158.109 49.36C158.365 49.168 158.709 49.072 159.141 49.072C159.509 49.072 159.805 49.16 160.029 49.336C160.253 49.496 160.453 49.808 160.629 50.272L163.869 58.36H163.149L166.485 50.248C166.661 49.8 166.861 49.496 167.085 49.336C167.325 49.16 167.645 49.072 168.045 49.072C168.397 49.072 168.677 49.168 168.885 49.36C169.093 49.536 169.221 49.776 169.269 50.08C169.317 50.368 169.261 50.688 169.101 51.04L165.213 59.92C165.037 60.352 164.797 60.672 164.493 60.88C164.205 61.088 163.853 61.192 163.437 61.192ZM176.459 61.24C175.243 61.24 174.187 60.992 173.291 60.496C172.395 60 171.699 59.296 171.203 58.384C170.707 57.456 170.459 56.368 170.459 55.12C170.459 54.176 170.595 53.336 170.867 52.6C171.155 51.848 171.563 51.208 172.091 50.68C172.619 50.136 173.251 49.728 173.987 49.456C174.723 49.168 175.547 49.024 176.459 49.024C177.675 49.024 178.731 49.272 179.627 49.768C180.523 50.264 181.219 50.968 181.715 51.88C182.211 52.792 182.459 53.872 182.459 55.12C182.459 56.064 182.315 56.912 182.027 57.664C181.755 58.416 181.355 59.064 180.827 59.608C180.299 60.136 179.667 60.544 178.931 60.832C178.195 61.104 177.371 61.24 176.459 61.24ZM176.459 58.96C177.051 58.96 177.571 58.816 178.019 58.528C178.467 58.24 178.811 57.816 179.051 57.256C179.307 56.68 179.435 55.968 179.435 55.12C179.435 53.84 179.163 52.888 178.619 52.264C178.075 51.624 177.355 51.304 176.459 51.304C175.867 51.304 175.347 51.448 174.899 51.736C174.451 52.008 174.099 52.432 173.843 53.008C173.603 53.568 173.483 54.272 173.483 55.12C173.483 56.384 173.755 57.344 174.299 58C174.843 58.64 175.563 58.96 176.459 58.96ZM191.943 61.192C191.511 61.192 191.151 61.096 190.863 60.904C190.591 60.696 190.367 60.392 190.191 59.992L183.927 45.928C183.751 45.528 183.703 45.176 183.783 44.872C183.863 44.568 184.031 44.328 184.287 44.152C184.543 43.976 184.847 43.888 185.199 43.888C185.663 43.888 186.007 43.992 186.231 44.2C186.471 44.392 186.671 44.688 186.831 45.088L192.519 58.264H191.487L197.151 45.064C197.327 44.68 197.535 44.392 197.775 44.2C198.015 43.992 198.351 43.888 198.783 43.888C199.135 43.888 199.423 43.976 199.647 44.152C199.887 44.328 200.039 44.568 200.103 44.872C200.167 45.176 200.111 45.528 199.935 45.928L193.671 59.992C193.495 60.392 193.271 60.696 192.999 60.904C192.743 61.096 192.391 61.192 191.943 61.192ZM206.328 61.24C205 61.24 203.856 60.992 202.896 60.496C201.936 60 201.192 59.296 200.664 58.384C200.152 57.472 199.896 56.392 199.896 55.144C199.896 53.928 200.144 52.864 200.64 51.952C201.152 51.04 201.848 50.328 202.728 49.816C203.624 49.288 204.64 49.024 205.776 49.024C206.608 49.024 207.352 49.16 208.008 49.432C208.68 49.704 209.248 50.096 209.712 50.608C210.192 51.12 210.552 51.744 210.792 52.48C211.048 53.2 211.176 54.016 211.176 54.928C211.176 55.216 211.072 55.44 210.864 55.6C210.672 55.744 210.392 55.816 210.024 55.816H202.32V54.088H209.064L208.68 54.448C208.68 53.712 208.568 53.096 208.344 52.6C208.136 52.104 207.824 51.728 207.408 51.472C207.008 51.2 206.504 51.064 205.896 51.064C205.224 51.064 204.648 51.224 204.168 51.544C203.704 51.848 203.344 52.288 203.088 52.864C202.848 53.424 202.728 54.096 202.728 54.88V55.048C202.728 56.36 203.032 57.344 203.64 58C204.264 58.64 205.176 58.96 206.376 58.96C206.792 58.96 207.256 58.912 207.768 58.816C208.296 58.704 208.792 58.52 209.256 58.264C209.592 58.072 209.888 57.992 210.144 58.024C210.4 58.04 210.6 58.128 210.744 58.288C210.904 58.448 211 58.648 211.032 58.888C211.064 59.112 211.016 59.344 210.888 59.584C210.776 59.824 210.576 60.032 210.288 60.208C209.728 60.56 209.08 60.824 208.344 61C207.624 61.16 206.952 61.24 206.328 61.24ZM215.088 61.192C214.592 61.192 214.208 61.064 213.936 60.808C213.68 60.536 213.552 60.152 213.552 59.656V50.584C213.552 50.088 213.68 49.712 213.936 49.456C214.192 49.2 214.552 49.072 215.016 49.072C215.48 49.072 215.84 49.2 216.096 49.456C216.352 49.712 216.48 50.088 216.48 50.584V52.096H216.24C216.464 51.136 216.904 50.408 217.56 49.912C218.216 49.416 219.088 49.12 220.176 49.024C220.512 48.992 220.776 49.08 220.968 49.288C221.176 49.48 221.296 49.784 221.328 50.2C221.36 50.6 221.264 50.928 221.04 51.184C220.832 51.424 220.512 51.568 220.08 51.616L219.552 51.664C218.576 51.76 217.84 52.064 217.344 52.576C216.848 53.072 216.6 53.776 216.6 54.688V59.656C216.6 60.152 216.472 60.536 216.216 60.808C215.96 61.064 215.584 61.192 215.088 61.192ZM227.129 61.24C226.441 61.24 225.713 61.168 224.945 61.024C224.177 60.88 223.489 60.632 222.881 60.28C222.625 60.12 222.441 59.936 222.329 59.728C222.233 59.504 222.193 59.288 222.209 59.08C222.241 58.856 222.321 58.664 222.449 58.504C222.593 58.344 222.769 58.24 222.977 58.192C223.201 58.144 223.441 58.184 223.697 58.312C224.337 58.616 224.937 58.832 225.497 58.96C226.057 59.072 226.609 59.128 227.153 59.128C227.921 59.128 228.489 59 228.857 58.744C229.241 58.472 229.433 58.12 229.433 57.688C229.433 57.32 229.305 57.04 229.049 56.848C228.809 56.64 228.441 56.488 227.945 56.392L225.545 55.936C224.553 55.744 223.793 55.384 223.265 54.856C222.753 54.312 222.497 53.616 222.497 52.768C222.497 52 222.705 51.336 223.121 50.776C223.553 50.216 224.145 49.784 224.897 49.48C225.649 49.176 226.513 49.024 227.489 49.024C228.193 49.024 228.849 49.104 229.457 49.264C230.081 49.408 230.681 49.64 231.257 49.96C231.497 50.088 231.657 50.256 231.737 50.464C231.833 50.672 231.857 50.888 231.809 51.112C231.761 51.32 231.665 51.512 231.521 51.688C231.377 51.848 231.193 51.952 230.969 52C230.761 52.032 230.521 51.984 230.249 51.856C229.753 51.6 229.273 51.416 228.809 51.304C228.361 51.192 227.929 51.136 227.513 51.136C226.729 51.136 226.145 51.272 225.761 51.544C225.393 51.816 225.209 52.176 225.209 52.624C225.209 52.96 225.321 53.24 225.545 53.464C225.769 53.688 226.113 53.84 226.577 53.92L228.977 54.376C230.017 54.568 230.801 54.92 231.329 55.432C231.873 55.944 232.145 56.632 232.145 57.496C232.145 58.664 231.689 59.584 230.777 60.256C229.865 60.912 228.649 61.24 227.129 61.24ZM240.336 61.24C239.008 61.24 237.864 60.992 236.904 60.496C235.944 60 235.2 59.296 234.672 58.384C234.16 57.472 233.904 56.392 233.904 55.144C233.904 53.928 234.152 52.864 234.648 51.952C235.16 51.04 235.856 50.328 236.736 49.816C237.632 49.288 238.648 49.024 239.784 49.024C240.616 49.024 241.36 49.16 242.016 49.432C242.688 49.704 243.256 50.096 243.72 50.608C244.2 51.12 244.56 51.744 244.8 52.48C245.056 53.2 245.184 54.016 245.184 54.928C245.184 55.216 245.08 55.44 244.872 55.6C244.68 55.744 244.4 55.816 244.032 55.816H236.328V54.088H243.072L242.688 54.448C242.688 53.712 242.576 53.096 242.352 52.6C242.144 52.104 241.832 51.728 241.416 51.472C241.016 51.2 240.512 51.064 239.904 51.064C239.232 51.064 238.656 51.224 238.176 51.544C237.712 51.848 237.352 52.288 237.096 52.864C236.856 53.424 236.736 54.096 236.736 54.88V55.048C236.736 56.36 237.04 57.344 237.648 58C238.272 58.64 239.184 58.96 240.384 58.96C240.8 58.96 241.264 58.912 241.776 58.816C242.304 58.704 242.8 58.52 243.264 58.264C243.6 58.072 243.896 57.992 244.152 58.024C244.408 58.04 244.608 58.128 244.752 58.288C244.912 58.448 245.008 58.648 245.04 58.888C245.072 59.112 245.024 59.344 244.896 59.584C244.784 59.824 244.584 60.032 244.296 60.208C243.736 60.56 243.088 60.824 242.352 61C241.632 61.16 240.96 61.24 240.336 61.24Z" fill="#888888"/>
<path d="M100.68 119C99.176 119 98.024 118.616 97.224 117.848C96.456 117.048 96.072 115.912 96.072 114.44V89.72C96.072 88.248 96.456 87.128 97.224 86.36C98.024 85.56 99.176 85.16 100.68 85.16H110.088C115.976 85.16 120.52 86.632 123.72 89.576C126.952 92.52 128.568 96.68 128.568 102.056C128.568 104.744 128.152 107.144 127.32 109.256C126.488 111.336 125.288 113.112 123.72 114.584C122.152 116.024 120.216 117.128 117.912 117.896C115.64 118.632 113.032 119 110.088 119H100.68ZM104.904 111.848H109.512C111.208 111.848 112.664 111.64 113.88 111.224C115.128 110.808 116.152 110.2 116.952 109.4C117.784 108.6 118.392 107.592 118.776 106.376C119.192 105.16 119.4 103.72 119.4 102.056C119.4 98.728 118.584 96.28 116.952 94.712C115.32 93.112 112.84 92.312 109.512 92.312H104.904V111.848ZM146.094 119.528C143.214 119.528 140.718 119.032 138.606 118.04C136.526 117.016 134.926 115.576 133.806 113.72C132.686 111.864 132.126 109.672 132.126 107.144C132.126 104.712 132.654 102.584 133.71 100.76C134.798 98.904 136.27 97.464 138.126 96.44C140.014 95.384 142.158 94.856 144.558 94.856C146.318 94.856 147.918 95.144 149.358 95.72C150.798 96.264 152.03 97.08 153.054 98.168C154.078 99.224 154.846 100.504 155.358 102.008C155.902 103.512 156.174 105.192 156.174 107.048C156.174 107.688 155.998 108.168 155.646 108.488C155.294 108.776 154.734 108.92 153.966 108.92H139.278V104.888H149.934L149.166 105.512C149.166 104.328 149.006 103.368 148.686 102.632C148.366 101.896 147.886 101.336 147.246 100.952C146.638 100.568 145.87 100.376 144.942 100.376C143.95 100.376 143.086 100.616 142.35 101.096C141.646 101.544 141.102 102.216 140.718 103.112C140.334 104.008 140.142 105.128 140.142 106.472V106.904C140.142 109.176 140.638 110.808 141.63 111.8C142.654 112.76 144.222 113.24 146.334 113.24C147.038 113.24 147.838 113.16 148.734 113C149.662 112.808 150.542 112.552 151.374 112.232C152.206 111.912 152.926 111.864 153.534 112.088C154.142 112.28 154.606 112.632 154.926 113.144C155.278 113.624 155.47 114.184 155.502 114.824C155.534 115.432 155.39 116.04 155.07 116.648C154.75 117.224 154.222 117.672 153.486 117.992C152.366 118.504 151.166 118.888 149.886 119.144C148.638 119.4 147.374 119.528 146.094 119.528ZM169.898 119.432C168.778 119.432 167.818 119.16 167.018 118.616C166.25 118.04 165.61 117.192 165.098 116.072L158.234 100.376C157.85 99.416 157.722 98.52 157.85 97.688C157.978 96.856 158.378 96.2 159.05 95.72C159.754 95.208 160.714 94.952 161.93 94.952C162.954 94.952 163.77 95.192 164.378 95.672C165.018 96.12 165.594 97.016 166.106 98.36L170.954 110.84H169.322L174.41 98.312C174.922 97 175.498 96.12 176.138 95.672C176.778 95.192 177.658 94.952 178.778 94.952C179.738 94.952 180.506 95.208 181.082 95.72C181.69 96.2 182.058 96.856 182.186 97.688C182.314 98.52 182.154 99.416 181.706 100.376L174.698 116.12C174.218 117.24 173.578 118.072 172.778 118.616C172.01 119.16 171.05 119.432 169.898 119.432ZM197.704 119.528C194.824 119.528 192.328 119.032 190.216 118.04C188.136 117.016 186.536 115.576 185.416 113.72C184.296 111.864 183.736 109.672 183.736 107.144C183.736 104.712 184.264 102.584 185.32 100.76C186.408 98.904 187.88 97.464 189.736 96.44C191.624 95.384 193.768 94.856 196.168 94.856C197.928 94.856 199.528 95.144 200.968 95.72C202.408 96.264 203.64 97.08 204.664 98.168C205.688 99.224 206.456 100.504 206.968 102.008C207.512 103.512 207.784 105.192 207.784 107.048C207.784 107.688 207.608 108.168 207.256 108.488C206.904 108.776 206.344 108.92 205.576 108.92H190.888V104.888H201.544L200.776 105.512C200.776 104.328 200.616 103.368 200.296 102.632C199.976 101.896 199.496 101.336 198.856 100.952C198.248 100.568 197.48 100.376 196.552 100.376C195.56 100.376 194.696 100.616 193.96 101.096C193.256 101.544 192.712 102.216 192.328 103.112C191.944 104.008 191.752 105.128 191.752 106.472V106.904C191.752 109.176 192.248 110.808 193.24 111.8C194.264 112.76 195.832 113.24 197.944 113.24C198.648 113.24 199.448 113.16 200.344 113C201.272 112.808 202.152 112.552 202.984 112.232C203.816 111.912 204.536 111.864 205.144 112.088C205.752 112.28 206.216 112.632 206.536 113.144C206.888 113.624 207.08 114.184 207.112 114.824C207.144 115.432 207 116.04 206.68 116.648C206.36 117.224 205.832 117.672 205.096 117.992C203.976 118.504 202.776 118.888 201.496 119.144C200.248 119.4 198.984 119.528 197.704 119.528ZM220.441 119.528C217.369 119.528 215.097 118.712 213.625 117.08C212.185 115.416 211.465 112.92 211.465 109.592V89.048C211.465 87.64 211.833 86.568 212.569 85.832C213.305 85.096 214.345 84.728 215.689 84.728C217.065 84.728 218.121 85.096 218.857 85.832C219.625 86.568 220.009 87.64 220.009 89.048V109.304C220.009 110.488 220.233 111.352 220.681 111.896C221.161 112.44 221.769 112.712 222.505 112.712C222.729 112.712 222.953 112.696 223.177 112.664C223.433 112.6 223.705 112.552 223.993 112.52C224.537 112.52 224.937 112.728 225.193 113.144C225.481 113.56 225.625 114.408 225.625 115.688C225.625 116.808 225.401 117.656 224.953 118.232C224.505 118.776 223.817 119.128 222.889 119.288C222.633 119.32 222.265 119.368 221.785 119.432C221.305 119.496 220.857 119.528 220.441 119.528ZM239.87 119.528C237.246 119.528 234.958 119.032 233.006 118.04C231.054 117.048 229.534 115.624 228.446 113.768C227.358 111.912 226.814 109.72 226.814 107.192C226.814 105.272 227.118 103.56 227.726 102.056C228.334 100.52 229.214 99.224 230.366 98.168C231.518 97.08 232.894 96.264 234.494 95.72C236.094 95.144 237.886 94.856 239.87 94.856C242.494 94.856 244.782 95.352 246.734 96.344C248.686 97.336 250.19 98.76 251.246 100.616C252.334 102.44 252.878 104.632 252.878 107.192C252.878 109.08 252.574 110.792 251.966 112.328C251.358 113.864 250.478 115.176 249.326 116.264C248.206 117.32 246.83 118.136 245.198 118.712C243.598 119.256 241.822 119.528 239.87 119.528ZM239.87 113.24C240.734 113.24 241.502 113.032 242.174 112.616C242.846 112.168 243.358 111.512 243.71 110.648C244.094 109.752 244.286 108.6 244.286 107.192C244.286 105.048 243.87 103.512 243.038 102.584C242.206 101.624 241.15 101.144 239.87 101.144C239.006 101.144 238.238 101.352 237.566 101.768C236.894 102.184 236.366 102.84 235.982 103.736C235.598 104.6 235.406 105.752 235.406 107.192C235.406 109.304 235.822 110.84 236.654 111.8C237.486 112.76 238.558 113.24 239.87 113.24ZM261.017 128.072C259.673 128.072 258.633 127.704 257.897 126.968C257.161 126.232 256.793 125.16 256.793 123.752V99.224C256.793 97.848 257.145 96.792 257.849 96.056C258.585 95.32 259.625 94.952 260.969 94.952C262.345 94.952 263.385 95.32 264.089 96.056C264.825 96.792 265.193 97.848 265.193 99.224V102.008L264.665 99.656C265.113 98.216 266.041 97.064 267.449 96.2C268.889 95.304 270.521 94.856 272.345 94.856C274.393 94.856 276.185 95.352 277.721 96.344C279.289 97.336 280.505 98.744 281.369 100.568C282.233 102.392 282.665 104.6 282.665 107.192C282.665 109.72 282.233 111.912 281.369 113.768C280.505 115.624 279.289 117.048 277.721 118.04C276.185 119.032 274.393 119.528 272.345 119.528C270.585 119.528 269.001 119.112 267.593 118.28C266.185 117.448 265.241 116.36 264.761 115.016H265.337V123.752C265.337 125.16 264.953 126.232 264.185 126.968C263.449 127.704 262.393 128.072 261.017 128.072ZM269.657 113.24C270.521 113.24 271.273 113.032 271.913 112.616C272.585 112.168 273.113 111.512 273.497 110.648C273.881 109.752 274.073 108.6 274.073 107.192C274.073 105.048 273.657 103.512 272.825 102.584C271.993 101.624 270.937 101.144 269.657 101.144C268.793 101.144 268.025 101.352 267.353 101.768C266.681 102.184 266.153 102.84 265.769 103.736C265.385 104.6 265.193 105.752 265.193 107.192C265.193 109.304 265.609 110.84 266.441 111.8C267.273 112.76 268.345 113.24 269.657 113.24ZM290.879 119.432C289.535 119.432 288.495 119.064 287.759 118.328C287.023 117.592 286.655 116.52 286.655 115.112V99.224C286.655 97.848 287.007 96.792 287.711 96.056C288.447 95.32 289.487 94.952 290.831 94.952C292.175 94.952 293.199 95.32 293.903 96.056C294.607 96.792 294.959 97.848 294.959 99.224V101.864L294.431 99.512C295.103 98.104 296.095 96.984 297.407 96.152C298.751 95.288 300.335 94.856 302.159 94.856C303.887 94.856 305.359 95.272 306.575 96.104C307.823 96.936 308.719 98.2 309.263 99.896H308.591C309.327 98.328 310.431 97.096 311.903 96.2C313.375 95.304 315.007 94.856 316.799 94.856C318.655 94.856 320.175 95.224 321.359 95.96C322.543 96.664 323.423 97.784 323.999 99.32C324.607 100.824 324.911 102.728 324.911 105.032V115.112C324.911 116.52 324.527 117.592 323.759 118.328C323.023 119.064 321.967 119.432 320.591 119.432C319.247 119.432 318.207 119.064 317.471 118.328C316.735 117.592 316.367 116.52 316.367 115.112V105.272C316.367 103.896 316.159 102.904 315.743 102.296C315.327 101.688 314.639 101.384 313.679 101.384C312.495 101.384 311.583 101.8 310.943 102.632C310.335 103.464 310.031 104.648 310.031 106.184V115.112C310.031 116.52 309.663 117.592 308.927 118.328C308.191 119.064 307.135 119.432 305.759 119.432C304.383 119.432 303.327 119.064 302.591 118.328C301.855 117.592 301.487 116.52 301.487 115.112V105.272C301.487 103.896 301.279 102.904 300.863 102.296C300.447 101.688 299.759 101.384 298.799 101.384C297.647 101.384 296.751 101.8 296.111 102.632C295.503 103.464 295.199 104.648 295.199 106.184V115.112C295.199 117.992 293.759 119.432 290.879 119.432ZM342.735 119.528C339.855 119.528 337.359 119.032 335.247 118.04C333.167 117.016 331.567 115.576 330.447 113.72C329.327 111.864 328.767 109.672 328.767 107.144C328.767 104.712 329.295 102.584 330.351 100.76C331.439 98.904 332.911 97.464 334.767 96.44C336.655 95.384 338.799 94.856 341.199 94.856C342.959 94.856 344.559 95.144 345.999 95.72C347.439 96.264 348.671 97.08 349.695 98.168C350.719 99.224 351.487 100.504 351.999 102.008C352.543 103.512 352.815 105.192 352.815 107.048C352.815 107.688 352.639 108.168 352.287 108.488C351.935 108.776 351.375 108.92 350.607 108.92H335.919V104.888H346.575L345.807 105.512C345.807 104.328 345.647 103.368 345.327 102.632C345.007 101.896 344.527 101.336 343.887 100.952C343.279 100.568 342.511 100.376 341.583 100.376C340.591 100.376 339.727 100.616 338.991 101.096C338.287 101.544 337.743 102.216 337.359 103.112C336.975 104.008 336.783 105.128 336.783 106.472V106.904C336.783 109.176 337.279 110.808 338.271 111.8C339.295 112.76 340.863 113.24 342.975 113.24C343.679 113.24 344.479 113.16 345.375 113C346.303 112.808 347.183 112.552 348.015 112.232C348.847 111.912 349.567 111.864 350.175 112.088C350.783 112.28 351.247 112.632 351.567 113.144C351.919 113.624 352.111 114.184 352.143 114.824C352.175 115.432 352.031 116.04 351.711 116.648C351.391 117.224 350.863 117.672 350.127 117.992C349.007 118.504 347.807 118.888 346.527 119.144C345.279 119.4 344.015 119.528 342.735 119.528ZM360.72 119.432C359.376 119.432 358.336 119.064 357.6 118.328C356.864 117.592 356.496 116.52 356.496 115.112V99.224C356.496 97.848 356.848 96.792 357.552 96.056C358.288 95.32 359.328 94.952 360.672 94.952C362.016 94.952 363.04 95.32 363.744 96.056C364.448 96.792 364.8 97.848 364.8 99.224V101.48L364.272 99.512C365.04 98.008 366.128 96.856 367.536 96.056C368.976 95.256 370.608 94.856 372.432 94.856C374.32 94.856 375.872 95.224 377.088 95.96C378.304 96.664 379.216 97.784 379.824 99.32C380.432 100.824 380.736 102.728 380.736 105.032V115.112C380.736 116.52 380.368 117.592 379.632 118.328C378.896 119.064 377.84 119.432 376.464 119.432C375.088 119.432 374.032 119.064 373.296 118.328C372.56 117.592 372.192 116.52 372.192 115.112V105.368C372.192 103.928 371.936 102.904 371.424 102.296C370.944 101.688 370.224 101.384 369.264 101.384C367.984 101.384 366.96 101.8 366.192 102.632C365.424 103.432 365.04 104.52 365.04 105.896V115.112C365.04 117.992 363.6 119.432 360.72 119.432ZM397.989 119.528C395.589 119.528 393.605 119.16 392.037 118.424C390.501 117.688 389.349 116.584 388.581 115.112C387.813 113.608 387.429 111.736 387.429 109.496V101.672H385.797C384.773 101.672 383.973 101.4 383.397 100.856C382.853 100.312 382.581 99.528 382.581 98.504C382.581 97.48 382.853 96.712 383.397 96.2C383.973 95.656 384.773 95.384 385.797 95.384H387.429V92.408C387.429 91 387.797 89.928 388.533 89.192C389.269 88.456 390.325 88.088 391.701 88.088C393.077 88.088 394.133 88.456 394.869 89.192C395.605 89.928 395.973 91 395.973 92.408V95.384H399.909C400.965 95.384 401.765 95.656 402.309 96.2C402.885 96.712 403.173 97.48 403.173 98.504C403.173 99.528 402.885 100.312 402.309 100.856C401.765 101.4 400.965 101.672 399.909 101.672H395.973V109.208C395.973 110.392 396.245 111.272 396.789 111.848C397.365 112.392 398.261 112.664 399.477 112.664C399.925 112.664 400.357 112.616 400.773 112.52C401.189 112.424 401.573 112.376 401.925 112.376C402.437 112.344 402.853 112.504 403.173 112.856C403.493 113.176 403.653 113.928 403.653 115.112C403.653 116.072 403.509 116.888 403.221 117.56C402.933 118.2 402.421 118.664 401.685 118.952C401.237 119.112 400.629 119.24 399.861 119.336C399.093 119.464 398.469 119.528 397.989 119.528ZM432.497 119.528C429.905 119.528 427.649 119.128 425.729 118.328C423.809 117.496 422.321 116.36 421.265 114.92C420.241 113.448 419.729 111.736 419.729 109.784C419.729 108.696 419.873 107.688 420.161 106.76C420.481 105.832 420.929 104.984 421.505 104.216C422.113 103.416 422.817 102.696 423.617 102.056C424.449 101.416 425.361 100.824 426.353 100.28L428.033 99.416L426.737 101.048C425.521 99.928 424.593 98.728 423.953 97.448C423.345 96.136 423.041 94.792 423.041 93.416C423.041 91.688 423.473 90.168 424.337 88.856C425.233 87.512 426.465 86.472 428.033 85.736C429.633 85 431.505 84.632 433.649 84.632C436.497 84.632 438.753 85.368 440.417 86.84C442.113 88.28 442.961 90.232 442.961 92.696C442.961 93.976 442.705 95.176 442.193 96.296C441.713 97.416 440.977 98.456 439.985 99.416C438.993 100.344 437.729 101.176 436.193 101.912V100.28L443.393 107.24H441.569C441.953 106.664 442.273 106.04 442.529 105.368C442.817 104.696 443.057 103.992 443.249 103.256C443.473 102.52 443.665 101.752 443.825 100.952C444.081 99.864 444.497 99.048 445.073 98.504C445.649 97.96 446.481 97.688 447.569 97.688C448.721 97.688 449.585 98.008 450.161 98.648C450.769 99.288 450.977 100.2 450.785 101.384C450.593 102.76 450.289 104.072 449.873 105.32C449.457 106.568 448.961 107.752 448.385 108.872C447.809 109.992 447.169 111.016 446.465 111.944V110.072L450.497 113.912C451.393 114.712 451.841 115.544 451.841 116.408C451.873 117.272 451.553 117.992 450.881 118.568C450.241 119.144 449.345 119.432 448.193 119.432C447.169 119.432 446.337 119.24 445.697 118.856C445.089 118.44 444.401 117.88 443.633 117.176L441.713 115.256H443.537C442.001 116.568 440.273 117.608 438.353 118.376C436.465 119.144 434.513 119.528 432.497 119.528ZM433.073 113.096C434.257 113.096 435.313 112.888 436.241 112.472C437.169 112.024 438.065 111.384 438.929 110.552L438.689 112.52L429.185 103.4L432.833 103.448L431.585 104.072C430.849 104.456 430.225 104.904 429.713 105.416C429.201 105.928 428.817 106.488 428.561 107.096C428.305 107.704 428.177 108.392 428.177 109.16C428.177 110.376 428.609 111.336 429.473 112.04C430.337 112.744 431.537 113.096 433.073 113.096ZM433.649 90.2C432.753 90.2 432.049 90.472 431.537 91.016C431.025 91.56 430.769 92.28 430.769 93.176C430.769 93.688 430.849 94.168 431.009 94.616C431.201 95.064 431.489 95.544 431.873 96.056C432.289 96.568 432.833 97.144 433.505 97.784L431.777 97.736C432.929 97.224 433.825 96.728 434.465 96.248C435.137 95.768 435.617 95.272 435.905 94.76C436.225 94.216 436.385 93.608 436.385 92.936C436.385 92.04 436.129 91.368 435.617 90.92C435.137 90.44 434.481 90.2 433.649 90.2ZM483.222 119.432C481.814 119.432 480.726 119.048 479.958 118.28C479.19 117.48 478.806 116.376 478.806 114.968V92.36H471.27C470.086 92.36 469.174 92.056 468.534 91.448C467.926 90.808 467.622 89.912 467.622 88.76C467.622 87.576 467.926 86.68 468.534 86.072C469.174 85.464 470.086 85.16 471.27 85.16H495.174C496.358 85.16 497.254 85.464 497.862 86.072C498.502 86.68 498.822 87.576 498.822 88.76C498.822 89.912 498.502 90.808 497.862 91.448C497.254 92.056 496.358 92.36 495.174 92.36H487.638V114.968C487.638 116.376 487.27 117.48 486.534 118.28C485.798 119.048 484.694 119.432 483.222 119.432ZM510.219 119.528C507.339 119.528 504.843 119.032 502.731 118.04C500.651 117.016 499.051 115.576 497.931 113.72C496.811 111.864 496.251 109.672 496.251 107.144C496.251 104.712 496.779 102.584 497.835 100.76C498.923 98.904 500.395 97.464 502.251 96.44C504.139 95.384 506.283 94.856 508.683 94.856C510.443 94.856 512.043 95.144 513.483 95.72C514.923 96.264 516.155 97.08 517.179 98.168C518.203 99.224 518.971 100.504 519.483 102.008C520.027 103.512 520.299 105.192 520.299 107.048C520.299 107.688 520.123 108.168 519.771 108.488C519.419 108.776 518.859 108.92 518.091 108.92H503.403V104.888H514.059L513.291 105.512C513.291 104.328 513.131 103.368 512.811 102.632C512.491 101.896 512.011 101.336 511.371 100.952C510.763 100.568 509.995 100.376 509.067 100.376C508.075 100.376 507.211 100.616 506.475 101.096C505.771 101.544 505.227 102.216 504.843 103.112C504.459 104.008 504.267 105.128 504.267 106.472V106.904C504.267 109.176 504.763 110.808 505.755 111.8C506.779 112.76 508.347 113.24 510.459 113.24C511.163 113.24 511.963 113.16 512.859 113C513.787 112.808 514.667 112.552 515.499 112.232C516.331 111.912 517.051 111.864 517.659 112.088C518.267 112.28 518.731 112.632 519.051 113.144C519.403 113.624 519.595 114.184 519.627 114.824C519.659 115.432 519.515 116.04 519.195 116.648C518.875 117.224 518.347 117.672 517.611 117.992C516.491 118.504 515.291 118.888 514.011 119.144C512.763 119.4 511.499 119.528 510.219 119.528ZM533.388 119.528C531.98 119.528 530.54 119.416 529.068 119.192C527.628 119 526.316 118.632 525.132 118.088C524.332 117.768 523.756 117.336 523.404 116.792C523.084 116.248 522.924 115.672 522.924 115.064C522.956 114.456 523.132 113.912 523.452 113.432C523.804 112.92 524.252 112.568 524.796 112.376C525.372 112.152 526.012 112.168 526.716 112.424C528.06 112.904 529.26 113.256 530.316 113.48C531.404 113.672 532.444 113.768 533.436 113.768C534.62 113.768 535.468 113.608 535.98 113.288C536.492 112.936 536.748 112.488 536.748 111.944C536.748 111.464 536.572 111.096 536.22 110.84C535.9 110.584 535.436 110.408 534.828 110.312L529.5 109.448C527.516 109.096 525.98 108.376 524.892 107.288C523.804 106.168 523.26 104.712 523.26 102.92C523.26 101.256 523.724 99.832 524.652 98.648C525.612 97.432 526.908 96.504 528.54 95.864C530.204 95.192 532.108 94.856 534.252 94.856C535.692 94.856 537.004 94.968 538.188 95.192C539.372 95.384 540.524 95.752 541.644 96.296C542.348 96.584 542.844 97 543.132 97.544C543.42 98.088 543.532 98.664 543.468 99.272C543.404 99.848 543.196 100.392 542.844 100.904C542.524 101.384 542.076 101.72 541.5 101.912C540.924 102.072 540.252 102.024 539.484 101.768C538.428 101.352 537.484 101.048 536.652 100.856C535.852 100.664 535.1 100.568 534.396 100.568C533.084 100.568 532.156 100.744 531.612 101.096C531.068 101.448 530.796 101.896 530.796 102.44C530.796 102.856 530.94 103.208 531.228 103.496C531.516 103.752 531.964 103.928 532.572 104.024L537.9 104.936C539.948 105.256 541.516 105.96 542.604 107.048C543.724 108.104 544.284 109.544 544.284 111.368C544.284 113.96 543.292 115.976 541.308 117.416C539.324 118.824 536.684 119.528 533.388 119.528ZM559.943 119.528C557.543 119.528 555.559 119.16 553.991 118.424C552.455 117.688 551.303 116.584 550.535 115.112C549.767 113.608 549.383 111.736 549.383 109.496V101.672H547.751C546.727 101.672 545.927 101.4 545.351 100.856C544.806 100.312 544.534 99.528 544.534 98.504C544.534 97.48 544.806 96.712 545.351 96.2C545.927 95.656 546.727 95.384 547.751 95.384H549.383V92.408C549.383 91 549.751 89.928 550.487 89.192C551.223 88.456 552.279 88.088 553.655 88.088C555.031 88.088 556.087 88.456 556.823 89.192C557.559 89.928 557.927 91 557.927 92.408V95.384H561.863C562.919 95.384 563.719 95.656 564.263 96.2C564.839 96.712 565.127 97.48 565.127 98.504C565.127 99.528 564.839 100.312 564.263 100.856C563.719 101.4 562.919 101.672 561.863 101.672H557.927V109.208C557.927 110.392 558.199 111.272 558.743 111.848C559.319 112.392 560.215 112.664 561.431 112.664C561.879 112.664 562.311 112.616 562.727 112.52C563.143 112.424 563.527 112.376 563.879 112.376C564.391 112.344 564.807 112.504 565.127 112.856C565.447 113.176 565.607 113.928 565.607 115.112C565.607 116.072 565.463 116.888 565.175 117.56C564.887 118.2 564.375 118.664 563.639 118.952C563.191 119.112 562.583 119.24 561.815 119.336C561.047 119.464 560.423 119.528 559.943 119.528ZM573.064 119.432C571.72 119.432 570.68 119.032 569.944 118.232C569.208 117.432 568.84 116.28 568.84 114.776V99.608C568.84 98.104 569.208 96.952 569.944 96.152C570.68 95.352 571.72 94.952 573.064 94.952C574.44 94.952 575.496 95.352 576.232 96.152C577 96.952 577.384 98.104 577.384 99.608V114.776C577.384 116.28 577.016 117.432 576.28 118.232C575.544 119.032 574.472 119.432 573.064 119.432ZM573.064 91.544C571.56 91.544 570.392 91.192 569.56 90.488C568.76 89.784 568.36 88.76 568.36 87.416C568.36 86.104 568.76 85.096 569.56 84.392C570.392 83.688 571.56 83.336 573.064 83.336C574.632 83.336 575.816 83.688 576.616 84.392C577.416 85.096 577.816 86.104 577.816 87.416C577.816 88.76 577.416 89.784 576.616 90.488C575.816 91.192 574.632 91.544 573.064 91.544ZM586.564 119.432C585.22 119.432 584.18 119.064 583.444 118.328C582.708 117.592 582.34 116.52 582.34 115.112V99.224C582.34 97.848 582.692 96.792 583.396 96.056C584.132 95.32 585.172 94.952 586.516 94.952C587.86 94.952 588.884 95.32 589.588 96.056C590.292 96.792 590.644 97.848 590.644 99.224V101.48L590.116 99.512C590.884 98.008 591.972 96.856 593.38 96.056C594.82 95.256 596.452 94.856 598.276 94.856C600.164 94.856 601.716 95.224 602.932 95.96C604.148 96.664 605.06 97.784 605.668 99.32C606.276 100.824 606.58 102.728 606.58 105.032V115.112C606.58 116.52 606.212 117.592 605.476 118.328C604.74 119.064 603.684 119.432 602.308 119.432C600.932 119.432 599.876 119.064 599.14 118.328C598.404 117.592 598.036 116.52 598.036 115.112V105.368C598.036 103.928 597.78 102.904 597.268 102.296C596.788 101.688 596.068 101.384 595.108 101.384C593.828 101.384 592.804 101.8 592.036 102.632C591.268 103.432 590.884 104.52 590.884 105.896V115.112C590.884 117.992 589.444 119.432 586.564 119.432ZM623.161 128.168C621.401 128.168 619.753 128.04 618.217 127.784C616.681 127.56 615.353 127.224 614.233 126.776C613.305 126.456 612.649 125.992 612.265 125.384C611.881 124.776 611.705 124.136 611.737 123.464C611.769 122.792 611.945 122.184 612.265 121.64C612.617 121.096 613.081 120.696 613.657 120.44C614.233 120.216 614.873 120.232 615.577 120.488C616.985 121.064 618.265 121.432 619.417 121.592C620.569 121.784 621.545 121.88 622.345 121.88C624.297 121.88 625.753 121.464 626.713 120.632C627.705 119.832 628.201 118.568 628.201 116.84V113.816H628.585C628.105 115.16 627.129 116.264 625.657 117.128C624.185 117.96 622.585 118.376 620.857 118.376C618.745 118.376 616.905 117.896 615.337 116.936C613.769 115.944 612.537 114.568 611.641 112.808C610.777 111.048 610.345 108.984 610.345 106.616C610.345 104.824 610.601 103.208 611.113 101.768C611.625 100.328 612.329 99.096 613.225 98.072C614.153 97.048 615.257 96.264 616.537 95.72C617.849 95.144 619.289 94.856 620.857 94.856C622.649 94.856 624.249 95.272 625.657 96.104C627.097 96.936 628.057 98.024 628.537 99.368L628.057 101.336V99.224C628.057 97.848 628.425 96.792 629.161 96.056C629.929 95.32 630.985 94.952 632.329 94.952C633.673 94.952 634.697 95.32 635.401 96.056C636.137 96.792 636.505 97.848 636.505 99.224V115.832C636.505 119.928 635.353 123 633.049 125.048C630.745 127.128 627.449 128.168 623.161 128.168ZM623.497 112.088C624.457 112.088 625.273 111.88 625.945 111.464C626.617 111.016 627.145 110.392 627.529 109.592C627.913 108.76 628.105 107.768 628.105 106.616C628.105 104.888 627.689 103.544 626.857 102.584C626.025 101.624 624.905 101.144 623.497 101.144C622.601 101.144 621.801 101.368 621.097 101.816C620.393 102.232 619.849 102.856 619.465 103.688C619.113 104.488 618.937 105.464 618.937 106.616C618.937 108.344 619.353 109.688 620.185 110.648C621.017 111.608 622.121 112.088 623.497 112.088Z" fill="black"/>
<path d="M1134 0H1348C1356.28 0 1363 6.71573 1363 15V148C1363 156.284 1356.28 163 1348 163H1134V0Z" fill="#02103C"/>
<path d="M1220.17 104.167H1276.83" stroke="white" stroke-width="5" stroke-linecap="round" stroke-linejoin="round"/>
<path d="M1240 75.8334L1245.67 81.5L1257 70.1667" stroke="white" stroke-width="5" stroke-linecap="round" stroke-linejoin="round"/>
<path d="M1268.33 58.8333H1228.67C1225.54 58.8333 1223 61.3704 1223 64.5V87.1666C1223 90.2963 1225.54 92.8333 1228.67 92.8333H1268.33C1271.46 92.8333 1274 90.2963 1274 87.1666V64.5C1274 61.3704 1271.46 58.8333 1268.33 58.8333Z" stroke="white" stroke-width="5" stroke-linecap="round" stroke-linejoin="round"/>
</svg>
