<svg width="1363" height="163" viewBox="0 0 1363 163" fill="none" xmlns="http://www.w3.org/2000/svg">
<path d="M0 15C0 6.71573 6.71573 0 15 0H37V163H15C6.71573 163 0 156.284 0 148V15Z" fill="#424242"/>
<rect width="1097" height="163" transform="translate(37)" fill="#F0F0F0"/>
<path d="M95.472 59.728C95.2 59.84 94.952 59.864 94.728 59.8C94.52 59.736 94.352 59.616 94.224 59.44C94.096 59.264 94.024 59.072 94.008 58.864C93.992 58.64 94.04 58.432 94.152 58.24C94.264 58.032 94.448 57.872 94.704 57.76L105.168 53.368V54.856L94.704 50.464C94.448 50.352 94.264 50.2 94.152 50.008C94.04 49.8 93.992 49.584 94.008 49.36C94.024 49.136 94.096 48.936 94.224 48.76C94.352 48.584 94.52 48.464 94.728 48.4C94.952 48.336 95.2 48.36 95.472 48.472L105.072 52.552C105.808 52.856 106.176 53.368 106.176 54.088C106.176 54.456 106.08 54.776 105.888 55.048C105.712 55.304 105.44 55.512 105.072 55.672L95.472 59.728ZM123.626 61.24C121.866 61.24 120.354 60.888 119.09 60.184C117.842 59.464 116.882 58.456 116.21 57.16C115.538 55.848 115.202 54.304 115.202 52.528C115.202 51.2 115.394 50.008 115.778 48.952C116.162 47.88 116.714 46.968 117.434 46.216C118.154 45.448 119.034 44.864 120.074 44.464C121.13 44.048 122.314 43.84 123.626 43.84C124.506 43.84 125.37 43.952 126.218 44.176C127.066 44.4 127.81 44.72 128.45 45.136C128.786 45.344 129.01 45.6 129.122 45.904C129.234 46.192 129.258 46.48 129.194 46.768C129.13 47.04 128.994 47.272 128.786 47.464C128.594 47.656 128.346 47.768 128.042 47.8C127.754 47.816 127.434 47.712 127.082 47.488C126.586 47.168 126.05 46.936 125.474 46.792C124.898 46.648 124.314 46.576 123.722 46.576C122.586 46.576 121.626 46.808 120.842 47.272C120.058 47.736 119.466 48.408 119.066 49.288C118.666 50.168 118.466 51.248 118.466 52.528C118.466 53.792 118.666 54.872 119.066 55.768C119.466 56.664 120.058 57.344 120.842 57.808C121.626 58.272 122.586 58.504 123.722 58.504C124.33 58.504 124.93 58.432 125.522 58.288C126.114 58.128 126.674 57.888 127.202 57.568C127.554 57.36 127.866 57.272 128.138 57.304C128.426 57.32 128.666 57.416 128.858 57.592C129.05 57.768 129.178 57.992 129.242 58.264C129.306 58.52 129.29 58.792 129.194 59.08C129.098 59.352 128.906 59.592 128.618 59.8C127.978 60.264 127.21 60.624 126.314 60.88C125.434 61.12 124.538 61.24 123.626 61.24ZM136.287 61.24C135.071 61.24 134.015 60.992 133.119 60.496C132.223 60 131.527 59.296 131.031 58.384C130.535 57.456 130.287 56.368 130.287 55.12C130.287 54.176 130.423 53.336 130.695 52.6C130.983 51.848 131.391 51.208 131.919 50.68C132.447 50.136 133.079 49.728 133.815 49.456C134.551 49.168 135.375 49.024 136.287 49.024C137.503 49.024 138.559 49.272 139.455 49.768C140.351 50.264 141.047 50.968 141.543 51.88C142.039 52.792 142.287 53.872 142.287 55.12C142.287 56.064 142.143 56.912 141.855 57.664C141.583 58.416 141.183 59.064 140.655 59.608C140.127 60.136 139.495 60.544 138.759 60.832C138.023 61.104 137.199 61.24 136.287 61.24ZM136.287 58.96C136.879 58.96 137.399 58.816 137.847 58.528C138.295 58.24 138.639 57.816 138.879 57.256C139.135 56.68 139.263 55.968 139.263 55.12C139.263 53.84 138.991 52.888 138.447 52.264C137.903 51.624 137.183 51.304 136.287 51.304C135.695 51.304 135.175 51.448 134.727 51.736C134.279 52.008 133.927 52.432 133.671 53.008C133.431 53.568 133.311 54.272 133.311 55.12C133.311 56.384 133.583 57.344 134.127 58C134.671 58.64 135.391 58.96 136.287 58.96ZM146.251 61.192C145.771 61.192 145.403 61.064 145.147 60.808C144.891 60.536 144.763 60.152 144.763 59.656V50.584C144.763 50.088 144.891 49.712 145.147 49.456C145.403 49.2 145.763 49.072 146.227 49.072C146.691 49.072 147.051 49.2 147.307 49.456C147.563 49.712 147.691 50.088 147.691 50.584V52.216L147.427 51.616C147.779 50.768 148.323 50.128 149.059 49.696C149.811 49.248 150.659 49.024 151.603 49.024C152.547 49.024 153.323 49.2 153.931 49.552C154.539 49.904 154.995 50.44 155.299 51.16C155.603 51.864 155.755 52.76 155.755 53.848V59.656C155.755 60.152 155.627 60.536 155.371 60.808C155.115 61.064 154.747 61.192 154.267 61.192C153.787 61.192 153.411 61.064 153.139 60.808C152.883 60.536 152.755 60.152 152.755 59.656V53.992C152.755 53.08 152.579 52.416 152.227 52C151.891 51.584 151.363 51.376 150.643 51.376C149.763 51.376 149.059 51.656 148.531 52.216C148.019 52.76 147.763 53.488 147.763 54.4V59.656C147.763 60.68 147.259 61.192 146.251 61.192ZM163.437 61.192C163.037 61.192 162.685 61.088 162.381 60.88C162.093 60.672 161.853 60.352 161.661 59.92L157.845 51.064C157.701 50.712 157.645 50.384 157.677 50.08C157.725 49.776 157.869 49.536 158.109 49.36C158.365 49.168 158.709 49.072 159.141 49.072C159.509 49.072 159.805 49.16 160.029 49.336C160.253 49.496 160.453 49.808 160.629 50.272L163.869 58.36H163.149L166.485 50.248C166.661 49.8 166.861 49.496 167.085 49.336C167.325 49.16 167.645 49.072 168.045 49.072C168.397 49.072 168.677 49.168 168.885 49.36C169.093 49.536 169.221 49.776 169.269 50.08C169.317 50.368 169.261 50.688 169.101 51.04L165.213 59.92C165.037 60.352 164.797 60.672 164.493 60.88C164.205 61.088 163.853 61.192 163.437 61.192ZM176.459 61.24C175.243 61.24 174.187 60.992 173.291 60.496C172.395 60 171.699 59.296 171.203 58.384C170.707 57.456 170.459 56.368 170.459 55.12C170.459 54.176 170.595 53.336 170.867 52.6C171.155 51.848 171.563 51.208 172.091 50.68C172.619 50.136 173.251 49.728 173.987 49.456C174.723 49.168 175.547 49.024 176.459 49.024C177.675 49.024 178.731 49.272 179.627 49.768C180.523 50.264 181.219 50.968 181.715 51.88C182.211 52.792 182.459 53.872 182.459 55.12C182.459 56.064 182.315 56.912 182.027 57.664C181.755 58.416 181.355 59.064 180.827 59.608C180.299 60.136 179.667 60.544 178.931 60.832C178.195 61.104 177.371 61.24 176.459 61.24ZM176.459 58.96C177.051 58.96 177.571 58.816 178.019 58.528C178.467 58.24 178.811 57.816 179.051 57.256C179.307 56.68 179.435 55.968 179.435 55.12C179.435 53.84 179.163 52.888 178.619 52.264C178.075 51.624 177.355 51.304 176.459 51.304C175.867 51.304 175.347 51.448 174.899 51.736C174.451 52.008 174.099 52.432 173.843 53.008C173.603 53.568 173.483 54.272 173.483 55.12C173.483 56.384 173.755 57.344 174.299 58C174.843 58.64 175.563 58.96 176.459 58.96ZM191.943 61.192C191.511 61.192 191.151 61.096 190.863 60.904C190.591 60.696 190.367 60.392 190.191 59.992L183.927 45.928C183.751 45.528 183.703 45.176 183.783 44.872C183.863 44.568 184.031 44.328 184.287 44.152C184.543 43.976 184.847 43.888 185.199 43.888C185.663 43.888 186.007 43.992 186.231 44.2C186.471 44.392 186.671 44.688 186.831 45.088L192.519 58.264H191.487L197.151 45.064C197.327 44.68 197.535 44.392 197.775 44.2C198.015 43.992 198.351 43.888 198.783 43.888C199.135 43.888 199.423 43.976 199.647 44.152C199.887 44.328 200.039 44.568 200.103 44.872C200.167 45.176 200.111 45.528 199.935 45.928L193.671 59.992C193.495 60.392 193.271 60.696 192.999 60.904C192.743 61.096 192.391 61.192 191.943 61.192ZM206.328 61.24C205 61.24 203.856 60.992 202.896 60.496C201.936 60 201.192 59.296 200.664 58.384C200.152 57.472 199.896 56.392 199.896 55.144C199.896 53.928 200.144 52.864 200.64 51.952C201.152 51.04 201.848 50.328 202.728 49.816C203.624 49.288 204.64 49.024 205.776 49.024C206.608 49.024 207.352 49.16 208.008 49.432C208.68 49.704 209.248 50.096 209.712 50.608C210.192 51.12 210.552 51.744 210.792 52.48C211.048 53.2 211.176 54.016 211.176 54.928C211.176 55.216 211.072 55.44 210.864 55.6C210.672 55.744 210.392 55.816 210.024 55.816H202.32V54.088H209.064L208.68 54.448C208.68 53.712 208.568 53.096 208.344 52.6C208.136 52.104 207.824 51.728 207.408 51.472C207.008 51.2 206.504 51.064 205.896 51.064C205.224 51.064 204.648 51.224 204.168 51.544C203.704 51.848 203.344 52.288 203.088 52.864C202.848 53.424 202.728 54.096 202.728 54.88V55.048C202.728 56.36 203.032 57.344 203.64 58C204.264 58.64 205.176 58.96 206.376 58.96C206.792 58.96 207.256 58.912 207.768 58.816C208.296 58.704 208.792 58.52 209.256 58.264C209.592 58.072 209.888 57.992 210.144 58.024C210.4 58.04 210.6 58.128 210.744 58.288C210.904 58.448 211 58.648 211.032 58.888C211.064 59.112 211.016 59.344 210.888 59.584C210.776 59.824 210.576 60.032 210.288 60.208C209.728 60.56 209.08 60.824 208.344 61C207.624 61.16 206.952 61.24 206.328 61.24ZM215.088 61.192C214.592 61.192 214.208 61.064 213.936 60.808C213.68 60.536 213.552 60.152 213.552 59.656V50.584C213.552 50.088 213.68 49.712 213.936 49.456C214.192 49.2 214.552 49.072 215.016 49.072C215.48 49.072 215.84 49.2 216.096 49.456C216.352 49.712 216.48 50.088 216.48 50.584V52.096H216.24C216.464 51.136 216.904 50.408 217.56 49.912C218.216 49.416 219.088 49.12 220.176 49.024C220.512 48.992 220.776 49.08 220.968 49.288C221.176 49.48 221.296 49.784 221.328 50.2C221.36 50.6 221.264 50.928 221.04 51.184C220.832 51.424 220.512 51.568 220.08 51.616L219.552 51.664C218.576 51.76 217.84 52.064 217.344 52.576C216.848 53.072 216.6 53.776 216.6 54.688V59.656C216.6 60.152 216.472 60.536 216.216 60.808C215.96 61.064 215.584 61.192 215.088 61.192ZM227.129 61.24C226.441 61.24 225.713 61.168 224.945 61.024C224.177 60.88 223.489 60.632 222.881 60.28C222.625 60.12 222.441 59.936 222.329 59.728C222.233 59.504 222.193 59.288 222.209 59.08C222.241 58.856 222.321 58.664 222.449 58.504C222.593 58.344 222.769 58.24 222.977 58.192C223.201 58.144 223.441 58.184 223.697 58.312C224.337 58.616 224.937 58.832 225.497 58.96C226.057 59.072 226.609 59.128 227.153 59.128C227.921 59.128 228.489 59 228.857 58.744C229.241 58.472 229.433 58.12 229.433 57.688C229.433 57.32 229.305 57.04 229.049 56.848C228.809 56.64 228.441 56.488 227.945 56.392L225.545 55.936C224.553 55.744 223.793 55.384 223.265 54.856C222.753 54.312 222.497 53.616 222.497 52.768C222.497 52 222.705 51.336 223.121 50.776C223.553 50.216 224.145 49.784 224.897 49.48C225.649 49.176 226.513 49.024 227.489 49.024C228.193 49.024 228.849 49.104 229.457 49.264C230.081 49.408 230.681 49.64 231.257 49.96C231.497 50.088 231.657 50.256 231.737 50.464C231.833 50.672 231.857 50.888 231.809 51.112C231.761 51.32 231.665 51.512 231.521 51.688C231.377 51.848 231.193 51.952 230.969 52C230.761 52.032 230.521 51.984 230.249 51.856C229.753 51.6 229.273 51.416 228.809 51.304C228.361 51.192 227.929 51.136 227.513 51.136C226.729 51.136 226.145 51.272 225.761 51.544C225.393 51.816 225.209 52.176 225.209 52.624C225.209 52.96 225.321 53.24 225.545 53.464C225.769 53.688 226.113 53.84 226.577 53.92L228.977 54.376C230.017 54.568 230.801 54.92 231.329 55.432C231.873 55.944 232.145 56.632 232.145 57.496C232.145 58.664 231.689 59.584 230.777 60.256C229.865 60.912 228.649 61.24 227.129 61.24ZM240.336 61.24C239.008 61.24 237.864 60.992 236.904 60.496C235.944 60 235.2 59.296 234.672 58.384C234.16 57.472 233.904 56.392 233.904 55.144C233.904 53.928 234.152 52.864 234.648 51.952C235.16 51.04 235.856 50.328 236.736 49.816C237.632 49.288 238.648 49.024 239.784 49.024C240.616 49.024 241.36 49.16 242.016 49.432C242.688 49.704 243.256 50.096 243.72 50.608C244.2 51.12 244.56 51.744 244.8 52.48C245.056 53.2 245.184 54.016 245.184 54.928C245.184 55.216 245.08 55.44 244.872 55.6C244.68 55.744 244.4 55.816 244.032 55.816H236.328V54.088H243.072L242.688 54.448C242.688 53.712 242.576 53.096 242.352 52.6C242.144 52.104 241.832 51.728 241.416 51.472C241.016 51.2 240.512 51.064 239.904 51.064C239.232 51.064 238.656 51.224 238.176 51.544C237.712 51.848 237.352 52.288 237.096 52.864C236.856 53.424 236.736 54.096 236.736 54.88V55.048C236.736 56.36 237.04 57.344 237.648 58C238.272 58.64 239.184 58.96 240.384 58.96C240.8 58.96 241.264 58.912 241.776 58.816C242.304 58.704 242.8 58.52 243.264 58.264C243.6 58.072 243.896 57.992 244.152 58.024C244.408 58.04 244.608 58.128 244.752 58.288C244.912 58.448 245.008 58.648 245.04 58.888C245.072 59.112 245.024 59.344 244.896 59.584C244.784 59.824 244.584 60.032 244.296 60.208C243.736 60.56 243.088 60.824 242.352 61C241.632 61.16 240.96 61.24 240.336 61.24Z" fill="#888888"/>
<path d="M100.488 119.432C99.08 119.432 97.992 119.048 97.224 118.28C96.456 117.48 96.072 116.376 96.072 114.968V89.624C96.072 88.184 96.456 87.08 97.224 86.312C98.024 85.544 99.128 85.16 100.536 85.16H112.344C116.184 85.16 119.144 86.152 121.224 88.136C123.336 90.088 124.392 92.792 124.392 96.248C124.392 99.704 123.336 102.424 121.224 104.408C119.144 106.36 116.184 107.336 112.344 107.336H104.904V114.968C104.904 116.376 104.536 117.48 103.8 118.28C103.064 119.048 101.96 119.432 100.488 119.432ZM104.904 100.568H110.808C112.472 100.568 113.752 100.216 114.648 99.512C115.544 98.776 115.992 97.688 115.992 96.248C115.992 94.776 115.544 93.688 114.648 92.984C113.752 92.28 112.472 91.928 110.808 91.928H104.904V100.568ZM131.833 119.432C130.425 119.432 129.337 119.064 128.569 118.328C127.833 117.592 127.465 116.52 127.465 115.112V99.224C127.465 97.848 127.817 96.792 128.521 96.056C129.257 95.32 130.297 94.952 131.641 94.952C132.985 94.952 134.009 95.32 134.713 96.056C135.417 96.792 135.769 97.848 135.769 99.224V101.192H135.289C135.609 99.272 136.425 97.752 137.737 96.632C139.081 95.512 140.745 94.92 142.729 94.856C143.657 94.824 144.345 95.064 144.793 95.576C145.273 96.056 145.529 96.968 145.561 98.312C145.561 99.464 145.321 100.376 144.841 101.048C144.361 101.72 143.449 102.12 142.105 102.248L141.001 102.344C139.305 102.504 138.073 102.984 137.305 103.784C136.537 104.552 136.153 105.704 136.153 107.24V115.112C136.153 116.52 135.785 117.592 135.049 118.328C134.313 119.064 133.241 119.432 131.833 119.432ZM159.807 119.528C157.183 119.528 154.895 119.032 152.943 118.04C150.991 117.048 149.471 115.624 148.383 113.768C147.295 111.912 146.751 109.72 146.751 107.192C146.751 105.272 147.055 103.56 147.663 102.056C148.271 100.52 149.151 99.224 150.303 98.168C151.455 97.08 152.831 96.264 154.431 95.72C156.031 95.144 157.823 94.856 159.807 94.856C162.431 94.856 164.719 95.352 166.671 96.344C168.623 97.336 170.127 98.76 171.183 100.616C172.271 102.44 172.815 104.632 172.815 107.192C172.815 109.08 172.511 110.792 171.903 112.328C171.295 113.864 170.415 115.176 169.263 116.264C168.143 117.32 166.767 118.136 165.135 118.712C163.535 119.256 161.759 119.528 159.807 119.528ZM159.807 113.24C160.671 113.24 161.439 113.032 162.111 112.616C162.783 112.168 163.295 111.512 163.647 110.648C164.031 109.752 164.223 108.6 164.223 107.192C164.223 105.048 163.807 103.512 162.975 102.584C162.143 101.624 161.087 101.144 159.807 101.144C158.943 101.144 158.175 101.352 157.503 101.768C156.831 102.184 156.303 102.84 155.919 103.736C155.535 104.6 155.343 105.752 155.343 107.192C155.343 109.304 155.759 110.84 156.591 111.8C157.423 112.76 158.495 113.24 159.807 113.24ZM175.338 127.976C174.346 128.008 173.562 127.832 172.986 127.448C172.378 127.064 171.962 126.584 171.738 126.008C171.514 125.432 171.466 124.84 171.594 124.232C171.69 123.656 171.946 123.144 172.362 122.696C172.778 122.28 173.306 122.04 173.946 121.976C175.002 121.912 175.77 121.624 176.25 121.112C176.73 120.632 176.97 119.88 176.97 118.856V99.224C176.97 97.848 177.338 96.792 178.074 96.056C178.81 95.32 179.866 94.952 181.242 94.952C182.618 94.952 183.674 95.32 184.41 96.056C185.146 96.792 185.514 97.848 185.514 99.224V118.04C185.514 120.184 185.146 121.976 184.41 123.416C183.674 124.888 182.554 125.992 181.05 126.728C179.578 127.496 177.674 127.912 175.338 127.976ZM181.194 91.544C179.658 91.544 178.474 91.192 177.642 90.488C176.842 89.784 176.442 88.76 176.442 87.416C176.442 86.104 176.842 85.096 177.642 84.392C178.474 83.688 179.658 83.336 181.194 83.336C182.73 83.336 183.898 83.688 184.698 84.392C185.53 85.096 185.946 86.104 185.946 87.416C185.946 88.76 185.53 89.784 184.698 90.488C183.898 91.192 182.73 91.544 181.194 91.544ZM203.376 119.528C200.496 119.528 198 119.032 195.888 118.04C193.808 117.016 192.208 115.576 191.088 113.72C189.968 111.864 189.408 109.672 189.408 107.144C189.408 104.712 189.936 102.584 190.992 100.76C192.08 98.904 193.552 97.464 195.408 96.44C197.296 95.384 199.44 94.856 201.84 94.856C203.6 94.856 205.2 95.144 206.64 95.72C208.08 96.264 209.312 97.08 210.336 98.168C211.36 99.224 212.128 100.504 212.64 102.008C213.184 103.512 213.456 105.192 213.456 107.048C213.456 107.688 213.28 108.168 212.928 108.488C212.576 108.776 212.016 108.92 211.248 108.92H196.56V104.888H207.216L206.448 105.512C206.448 104.328 206.288 103.368 205.968 102.632C205.648 101.896 205.168 101.336 204.528 100.952C203.92 100.568 203.152 100.376 202.224 100.376C201.232 100.376 200.368 100.616 199.632 101.096C198.928 101.544 198.384 102.216 198 103.112C197.616 104.008 197.424 105.128 197.424 106.472V106.904C197.424 109.176 197.92 110.808 198.912 111.8C199.936 112.76 201.504 113.24 203.616 113.24C204.32 113.24 205.12 113.16 206.016 113C206.944 112.808 207.824 112.552 208.656 112.232C209.488 111.912 210.208 111.864 210.816 112.088C211.424 112.28 211.888 112.632 212.208 113.144C212.56 113.624 212.752 114.184 212.784 114.824C212.816 115.432 212.672 116.04 212.352 116.648C212.032 117.224 211.504 117.672 210.768 117.992C209.648 118.504 208.448 118.888 207.168 119.144C205.92 119.4 204.656 119.528 203.376 119.528ZM229.185 119.528C226.529 119.528 224.209 119.032 222.225 118.04C220.273 117.048 218.753 115.624 217.665 113.768C216.577 111.88 216.033 109.672 216.033 107.144C216.033 105.224 216.337 103.512 216.945 102.008C217.553 100.472 218.433 99.176 219.585 98.12C220.769 97.064 222.161 96.264 223.761 95.72C225.393 95.144 227.201 94.856 229.185 94.856C230.113 94.856 231.089 94.952 232.113 95.144C233.137 95.304 234.193 95.624 235.281 96.104C236.049 96.392 236.577 96.84 236.865 97.448C237.185 98.024 237.313 98.648 237.249 99.32C237.217 99.992 237.025 100.6 236.673 101.144C236.353 101.688 235.889 102.056 235.281 102.248C234.705 102.44 234.049 102.36 233.313 102.008C232.801 101.752 232.257 101.576 231.681 101.48C231.137 101.352 230.609 101.288 230.097 101.288C229.233 101.288 228.465 101.416 227.793 101.672C227.153 101.928 226.609 102.312 226.161 102.824C225.713 103.304 225.361 103.912 225.105 104.648C224.881 105.384 224.769 106.216 224.769 107.144C224.769 109 225.233 110.456 226.161 111.512C227.089 112.568 228.401 113.096 230.097 113.096C230.609 113.096 231.137 113.048 231.681 112.952C232.225 112.824 232.769 112.632 233.313 112.376C234.049 112.024 234.705 111.96 235.281 112.184C235.857 112.376 236.321 112.744 236.673 113.288C237.025 113.832 237.217 114.44 237.249 115.112C237.281 115.752 237.137 116.376 236.817 116.984C236.497 117.56 235.953 117.992 235.185 118.28C234.129 118.76 233.089 119.08 232.065 119.24C231.073 119.432 230.113 119.528 229.185 119.528ZM252.958 119.528C250.558 119.528 248.574 119.16 247.006 118.424C245.47 117.688 244.318 116.584 243.55 115.112C242.782 113.608 242.398 111.736 242.398 109.496V101.672H240.766C239.742 101.672 238.942 101.4 238.366 100.856C237.822 100.312 237.55 99.528 237.55 98.504C237.55 97.48 237.822 96.712 238.366 96.2C238.942 95.656 239.742 95.384 240.766 95.384H242.398V92.408C242.398 91 242.766 89.928 243.502 89.192C244.238 88.456 245.294 88.088 246.67 88.088C248.046 88.088 249.102 88.456 249.838 89.192C250.574 89.928 250.942 91 250.942 92.408V95.384H254.878C255.934 95.384 256.734 95.656 257.278 96.2C257.854 96.712 258.142 97.48 258.142 98.504C258.142 99.528 257.854 100.312 257.278 100.856C256.734 101.4 255.934 101.672 254.878 101.672H250.942V109.208C250.942 110.392 251.214 111.272 251.758 111.848C252.334 112.392 253.23 112.664 254.446 112.664C254.894 112.664 255.326 112.616 255.742 112.52C256.158 112.424 256.542 112.376 256.894 112.376C257.406 112.344 257.822 112.504 258.142 112.856C258.462 113.176 258.622 113.928 258.622 115.112C258.622 116.072 258.478 116.888 258.19 117.56C257.902 118.2 257.39 118.664 256.654 118.952C256.206 119.112 255.598 119.24 254.83 119.336C254.062 119.464 253.438 119.528 252.958 119.528ZM279.738 119.432C278.33 119.432 277.242 119.048 276.474 118.28C275.706 117.48 275.322 116.36 275.322 114.92V89.24C275.322 87.768 275.706 86.648 276.474 85.88C277.242 85.112 278.33 84.728 279.738 84.728C281.178 84.728 282.266 85.112 283.002 85.88C283.77 86.648 284.154 87.768 284.154 89.24V98.216H298.122V89.24C298.122 87.768 298.49 86.648 299.226 85.88C299.994 85.112 301.098 84.728 302.538 84.728C303.946 84.728 305.018 85.112 305.754 85.88C306.522 86.648 306.906 87.768 306.906 89.24V114.92C306.906 116.36 306.522 117.48 305.754 118.28C305.018 119.048 303.946 119.432 302.538 119.432C301.098 119.432 299.994 119.048 299.226 118.28C298.49 117.48 298.122 116.36 298.122 114.92V105.464H284.154V114.92C284.154 116.36 283.786 117.48 283.05 118.28C282.314 119.048 281.21 119.432 279.738 119.432ZM316.704 119.432C315.36 119.432 314.32 119.032 313.584 118.232C312.848 117.432 312.48 116.28 312.48 114.776V99.608C312.48 98.104 312.848 96.952 313.584 96.152C314.32 95.352 315.36 94.952 316.704 94.952C318.08 94.952 319.136 95.352 319.872 96.152C320.64 96.952 321.024 98.104 321.024 99.608V114.776C321.024 116.28 320.656 117.432 319.92 118.232C319.184 119.032 318.112 119.432 316.704 119.432ZM316.704 91.544C315.2 91.544 314.032 91.192 313.2 90.488C312.4 89.784 312 88.76 312 87.416C312 86.104 312.4 85.096 313.2 84.392C314.032 83.688 315.2 83.336 316.704 83.336C318.272 83.336 319.456 83.688 320.256 84.392C321.056 85.096 321.456 86.104 321.456 87.416C321.456 88.76 321.056 89.784 320.256 90.488C319.456 91.192 318.272 91.544 316.704 91.544ZM337.692 128.168C335.932 128.168 334.284 128.04 332.748 127.784C331.212 127.56 329.884 127.224 328.764 126.776C327.836 126.456 327.18 125.992 326.796 125.384C326.412 124.776 326.236 124.136 326.268 123.464C326.3 122.792 326.476 122.184 326.796 121.64C327.148 121.096 327.612 120.696 328.188 120.44C328.764 120.216 329.404 120.232 330.108 120.488C331.516 121.064 332.796 121.432 333.948 121.592C335.1 121.784 336.076 121.88 336.876 121.88C338.828 121.88 340.284 121.464 341.244 120.632C342.236 119.832 342.732 118.568 342.732 116.84V113.816H343.116C342.636 115.16 341.66 116.264 340.188 117.128C338.716 117.96 337.116 118.376 335.388 118.376C333.276 118.376 331.436 117.896 329.868 116.936C328.3 115.944 327.068 114.568 326.172 112.808C325.308 111.048 324.876 108.984 324.876 106.616C324.876 104.824 325.132 103.208 325.644 101.768C326.156 100.328 326.86 99.096 327.756 98.072C328.684 97.048 329.788 96.264 331.068 95.72C332.38 95.144 333.82 94.856 335.388 94.856C337.18 94.856 338.78 95.272 340.188 96.104C341.628 96.936 342.588 98.024 343.068 99.368L342.588 101.336V99.224C342.588 97.848 342.956 96.792 343.692 96.056C344.46 95.32 345.516 94.952 346.86 94.952C348.204 94.952 349.228 95.32 349.932 96.056C350.668 96.792 351.036 97.848 351.036 99.224V115.832C351.036 119.928 349.884 123 347.58 125.048C345.276 127.128 341.98 128.168 337.692 128.168ZM338.028 112.088C338.988 112.088 339.804 111.88 340.476 111.464C341.148 111.016 341.676 110.392 342.06 109.592C342.444 108.76 342.636 107.768 342.636 106.616C342.636 104.888 342.22 103.544 341.388 102.584C340.556 101.624 339.436 101.144 338.028 101.144C337.132 101.144 336.332 101.368 335.628 101.816C334.924 102.232 334.38 102.856 333.996 103.688C333.644 104.488 333.468 105.464 333.468 106.616C333.468 108.344 333.884 109.688 334.716 110.648C335.548 111.608 336.652 112.088 338.028 112.088ZM360.251 119.432C358.907 119.432 357.867 119.064 357.131 118.328C356.395 117.592 356.027 116.52 356.027 115.112V89.048C356.027 87.64 356.395 86.568 357.131 85.832C357.867 85.096 358.907 84.728 360.251 84.728C361.627 84.728 362.683 85.096 363.419 85.832C364.187 86.568 364.571 87.64 364.571 89.048V99.512H363.803C364.571 98.008 365.659 96.856 367.067 96.056C368.507 95.256 370.139 94.856 371.963 94.856C373.851 94.856 375.403 95.224 376.619 95.96C377.835 96.664 378.747 97.784 379.355 99.32C379.963 100.824 380.267 102.728 380.267 105.032V115.112C380.267 116.52 379.899 117.592 379.163 118.328C378.427 119.064 377.371 119.432 375.995 119.432C374.619 119.432 373.563 119.064 372.827 118.328C372.091 117.592 371.723 116.52 371.723 115.112V105.368C371.723 103.928 371.467 102.904 370.955 102.296C370.475 101.688 369.755 101.384 368.795 101.384C367.515 101.384 366.491 101.8 365.723 102.632C364.955 103.432 364.571 104.52 364.571 105.896V115.112C364.571 117.992 363.131 119.432 360.251 119.432ZM394.113 119.528C391.041 119.528 388.769 118.712 387.297 117.08C385.857 115.416 385.137 112.92 385.137 109.592V89.048C385.137 87.64 385.505 86.568 386.241 85.832C386.977 85.096 388.017 84.728 389.361 84.728C390.737 84.728 391.793 85.096 392.529 85.832C393.297 86.568 393.681 87.64 393.681 89.048V109.304C393.681 110.488 393.905 111.352 394.353 111.896C394.833 112.44 395.441 112.712 396.177 112.712C396.401 112.712 396.625 112.696 396.849 112.664C397.105 112.6 397.377 112.552 397.665 112.52C398.209 112.52 398.609 112.728 398.865 113.144C399.153 113.56 399.297 114.408 399.297 115.688C399.297 116.808 399.073 117.656 398.625 118.232C398.177 118.776 397.489 119.128 396.561 119.288C396.305 119.32 395.937 119.368 395.457 119.432C394.977 119.496 394.529 119.528 394.113 119.528ZM406.048 119.432C404.704 119.432 403.664 119.032 402.928 118.232C402.192 117.432 401.824 116.28 401.824 114.776V99.608C401.824 98.104 402.192 96.952 402.928 96.152C403.664 95.352 404.704 94.952 406.048 94.952C407.424 94.952 408.48 95.352 409.216 96.152C409.984 96.952 410.368 98.104 410.368 99.608V114.776C410.368 116.28 410 117.432 409.264 118.232C408.528 119.032 407.456 119.432 406.048 119.432ZM406.048 91.544C404.544 91.544 403.376 91.192 402.544 90.488C401.744 89.784 401.344 88.76 401.344 87.416C401.344 86.104 401.744 85.096 402.544 84.392C403.376 83.688 404.544 83.336 406.048 83.336C407.616 83.336 408.8 83.688 409.6 84.392C410.4 85.096 410.8 86.104 410.8 87.416C410.8 88.76 410.4 89.784 409.6 90.488C408.8 91.192 407.616 91.544 406.048 91.544ZM427.036 128.168C425.276 128.168 423.628 128.04 422.092 127.784C420.556 127.56 419.228 127.224 418.108 126.776C417.18 126.456 416.524 125.992 416.14 125.384C415.756 124.776 415.58 124.136 415.612 123.464C415.644 122.792 415.82 122.184 416.14 121.64C416.492 121.096 416.956 120.696 417.532 120.44C418.108 120.216 418.748 120.232 419.452 120.488C420.86 121.064 422.14 121.432 423.292 121.592C424.444 121.784 425.42 121.88 426.22 121.88C428.172 121.88 429.628 121.464 430.588 120.632C431.58 119.832 432.076 118.568 432.076 116.84V113.816H432.46C431.98 115.16 431.004 116.264 429.532 117.128C428.06 117.96 426.46 118.376 424.732 118.376C422.62 118.376 420.78 117.896 419.212 116.936C417.644 115.944 416.412 114.568 415.516 112.808C414.652 111.048 414.22 108.984 414.22 106.616C414.22 104.824 414.476 103.208 414.988 101.768C415.5 100.328 416.204 99.096 417.1 98.072C418.028 97.048 419.132 96.264 420.412 95.72C421.724 95.144 423.164 94.856 424.732 94.856C426.524 94.856 428.124 95.272 429.532 96.104C430.972 96.936 431.932 98.024 432.412 99.368L431.932 101.336V99.224C431.932 97.848 432.3 96.792 433.036 96.056C433.804 95.32 434.86 94.952 436.204 94.952C437.548 94.952 438.572 95.32 439.276 96.056C440.012 96.792 440.38 97.848 440.38 99.224V115.832C440.38 119.928 439.228 123 436.924 125.048C434.62 127.128 431.324 128.168 427.036 128.168ZM427.372 112.088C428.332 112.088 429.148 111.88 429.82 111.464C430.492 111.016 431.02 110.392 431.404 109.592C431.788 108.76 431.98 107.768 431.98 106.616C431.98 104.888 431.564 103.544 430.732 102.584C429.9 101.624 428.78 101.144 427.372 101.144C426.476 101.144 425.676 101.368 424.972 101.816C424.268 102.232 423.724 102.856 423.34 103.688C422.988 104.488 422.812 105.464 422.812 106.616C422.812 108.344 423.228 109.688 424.06 110.648C424.892 111.608 425.996 112.088 427.372 112.088ZM449.595 119.432C448.251 119.432 447.211 119.064 446.475 118.328C445.739 117.592 445.371 116.52 445.371 115.112V89.048C445.371 87.64 445.739 86.568 446.475 85.832C447.211 85.096 448.251 84.728 449.595 84.728C450.971 84.728 452.027 85.096 452.763 85.832C453.531 86.568 453.915 87.64 453.915 89.048V99.512H453.147C453.915 98.008 455.003 96.856 456.411 96.056C457.851 95.256 459.483 94.856 461.307 94.856C463.195 94.856 464.747 95.224 465.963 95.96C467.179 96.664 468.091 97.784 468.699 99.32C469.307 100.824 469.611 102.728 469.611 105.032V115.112C469.611 116.52 469.243 117.592 468.507 118.328C467.771 119.064 466.715 119.432 465.339 119.432C463.963 119.432 462.907 119.064 462.171 118.328C461.435 117.592 461.067 116.52 461.067 115.112V105.368C461.067 103.928 460.811 102.904 460.299 102.296C459.819 101.688 459.099 101.384 458.139 101.384C456.859 101.384 455.835 101.8 455.067 102.632C454.299 103.432 453.915 104.52 453.915 105.896V115.112C453.915 117.992 452.475 119.432 449.595 119.432ZM486.864 119.528C484.464 119.528 482.48 119.16 480.912 118.424C479.376 117.688 478.224 116.584 477.456 115.112C476.688 113.608 476.304 111.736 476.304 109.496V101.672H474.672C473.648 101.672 472.848 101.4 472.272 100.856C471.728 100.312 471.456 99.528 471.456 98.504C471.456 97.48 471.728 96.712 472.272 96.2C472.848 95.656 473.648 95.384 474.672 95.384H476.304V92.408C476.304 91 476.672 89.928 477.408 89.192C478.144 88.456 479.2 88.088 480.576 88.088C481.952 88.088 483.008 88.456 483.744 89.192C484.48 89.928 484.848 91 484.848 92.408V95.384H488.784C489.84 95.384 490.64 95.656 491.184 96.2C491.76 96.712 492.048 97.48 492.048 98.504C492.048 99.528 491.76 100.312 491.184 100.856C490.64 101.4 489.84 101.672 488.784 101.672H484.848V109.208C484.848 110.392 485.12 111.272 485.664 111.848C486.24 112.392 487.136 112.664 488.352 112.664C488.8 112.664 489.232 112.616 489.648 112.52C490.064 112.424 490.448 112.376 490.8 112.376C491.312 112.344 491.728 112.504 492.048 112.856C492.368 113.176 492.528 113.928 492.528 115.112C492.528 116.072 492.384 116.888 492.096 117.56C491.808 118.2 491.296 118.664 490.56 118.952C490.112 119.112 489.504 119.24 488.736 119.336C487.968 119.464 487.344 119.528 486.864 119.528ZM504.326 119.528C502.918 119.528 501.478 119.416 500.006 119.192C498.566 119 497.254 118.632 496.07 118.088C495.27 117.768 494.694 117.336 494.342 116.792C494.022 116.248 493.862 115.672 493.862 115.064C493.894 114.456 494.07 113.912 494.39 113.432C494.742 112.92 495.19 112.568 495.734 112.376C496.31 112.152 496.95 112.168 497.654 112.424C498.998 112.904 500.198 113.256 501.254 113.48C502.342 113.672 503.382 113.768 504.374 113.768C505.558 113.768 506.406 113.608 506.918 113.288C507.43 112.936 507.686 112.488 507.686 111.944C507.686 111.464 507.51 111.096 507.158 110.84C506.838 110.584 506.374 110.408 505.766 110.312L500.438 109.448C498.454 109.096 496.918 108.376 495.83 107.288C494.742 106.168 494.198 104.712 494.198 102.92C494.198 101.256 494.662 99.832 495.59 98.648C496.55 97.432 497.846 96.504 499.478 95.864C501.142 95.192 503.046 94.856 505.19 94.856C506.63 94.856 507.942 94.968 509.126 95.192C510.31 95.384 511.462 95.752 512.582 96.296C513.286 96.584 513.782 97 514.07 97.544C514.358 98.088 514.47 98.664 514.406 99.272C514.342 99.848 514.134 100.392 513.782 100.904C513.462 101.384 513.014 101.72 512.438 101.912C511.862 102.072 511.19 102.024 510.422 101.768C509.366 101.352 508.422 101.048 507.59 100.856C506.79 100.664 506.038 100.568 505.334 100.568C504.022 100.568 503.094 100.744 502.55 101.096C502.006 101.448 501.734 101.896 501.734 102.44C501.734 102.856 501.878 103.208 502.166 103.496C502.454 103.752 502.902 103.928 503.51 104.024L508.838 104.936C510.886 105.256 512.454 105.96 513.542 107.048C514.662 108.104 515.222 109.544 515.222 111.368C515.222 113.96 514.23 115.976 512.246 117.416C510.262 118.824 507.622 119.528 504.326 119.528Z" fill="black"/>
<path d="M1134 0H1348C1356.28 0 1363 6.71573 1363 15V148C1363 156.284 1356.28 163 1348 163H1134V0Z" fill="#02103C"/>
<mask id="path-5-outside-1_3_82" maskUnits="userSpaceOnUse" x="1212.5" y="43.5" width="72" height="76" fill="black">
<rect fill="white" x="1212.5" y="43.5" width="72" height="76"/>
<path d="M1257.78 110.795L1258.17 117.033C1258.2 117.55 1257.82 118.005 1257.3 118.082C1255.41 118.359 1253.48 118.5 1251.56 118.5C1249.65 118.5 1247.72 118.359 1245.83 118.082C1245.3 118.005 1244.93 117.55 1244.96 117.033L1245.29 111.677C1241.26 110.891 1237.48 109.371 1234.05 107.148L1230.39 111.163C1230.04 111.55 1229.44 111.612 1229.01 111.305C1225.91 109.088 1223.19 106.436 1220.9 103.423C1220.59 103.006 1220.65 102.425 1221.05 102.081L1225.18 98.5235C1222.89 95.1861 1221.33 91.5191 1220.52 87.5987L1215.01 87.921C1214.48 87.9525 1214.01 87.5844 1213.93 87.0723C1213.64 85.2408 1213.5 83.3658 1213.5 81.4989C1213.5 79.6323 1213.64 77.7573 1213.93 75.9255C1214.01 75.4134 1214.48 75.037 1215.01 75.0768L1220.52 75.3991C1221.33 71.48 1222.89 67.8127 1225.18 64.4753L1221.05 60.9166C1220.65 60.5732 1220.59 59.9915 1220.9 59.5751C1223.18 56.565 1225.91 53.9132 1229.01 51.6928C1229.44 51.3858 1230.04 51.448 1230.39 51.8344L1234.05 55.8498C1237.51 53.619 1241.42 52.0541 1245.48 51.2839L1245.04 45.9743C1245 45.4495 1245.38 44.9818 1245.92 44.9043C1249.64 44.3652 1253.49 44.3652 1257.21 44.9043C1257.75 44.9818 1258.13 45.4496 1258.09 45.9743L1257.57 52.1893C1257.52 52.7401 1257.02 53.1503 1256.46 53.105C1255.89 53.0601 1255.47 52.5776 1255.52 52.0273L1255.96 46.7572C1253.05 46.4128 1250.08 46.4128 1247.17 46.7572L1247.61 52.0268C1247.66 52.546 1247.28 53.0109 1246.75 53.0949C1242.36 53.7915 1238.12 55.4843 1234.48 57.9899C1234.05 58.2849 1233.46 58.2181 1233.11 57.8373L1229.48 53.8537C1227.1 55.6511 1224.97 57.7247 1223.12 60.034L1227.22 63.565C1227.61 63.9035 1227.68 64.4749 1227.38 64.8912C1224.81 68.4236 1223.12 72.3693 1222.38 76.6188C1222.29 77.1218 1221.82 77.4795 1221.3 77.4485L1215.84 77.1288C1215.65 78.5723 1215.56 80.0384 1215.56 81.499C1215.56 82.9599 1215.65 84.4259 1215.84 85.8692L1221.3 85.5495C1221.82 85.5157 1222.29 85.8767 1222.38 86.3793C1223.12 90.6301 1224.81 94.5761 1227.38 98.1078C1227.68 98.5242 1227.61 99.0954 1227.22 99.434L1223.12 102.964C1224.97 105.276 1227.11 107.349 1229.48 109.144L1233.11 105.161C1233.46 104.779 1234.05 104.713 1234.48 105.008C1238.11 107.508 1242.17 109.143 1246.54 109.869C1247.06 109.955 1247.43 110.406 1247.4 110.915L1247.07 116.229C1250.04 116.589 1253.09 116.589 1256.06 116.229L1255.73 110.915C1255.7 110.363 1256.13 109.89 1256.7 109.857C1257.26 109.827 1257.75 110.244 1257.78 110.795ZM1279.87 67.5195C1281.52 67.5195 1282.86 68.8234 1282.86 70.4259C1282.86 72.0285 1281.52 73.3323 1279.87 73.3323C1279.49 73.3323 1279.13 73.2564 1278.8 73.131L1276 75.947C1275.8 76.142 1275.54 76.2524 1275.26 76.2524H1260.97C1260.4 76.2524 1259.94 75.8048 1259.94 75.2524C1259.94 74.7 1260.4 74.2524 1260.97 74.2524H1274.82L1277.25 71.8052C1277.02 71.3928 1276.88 70.9277 1276.88 70.4261C1276.88 68.8232 1278.22 67.5195 1279.87 67.5195ZM1278.93 70.4259C1278.93 70.9256 1279.35 71.3321 1279.87 71.3321C1280.38 71.3321 1280.8 70.9256 1280.8 70.4259C1280.8 69.9263 1280.38 69.5197 1279.87 69.5197C1279.35 69.5196 1278.93 69.9261 1278.93 70.4259ZM1268.7 64.8892L1272.51 59.5583C1272.12 59.0691 1271.89 58.4651 1271.89 57.8029C1271.89 56.2003 1273.23 54.8965 1274.87 54.8965C1276.52 54.8965 1277.86 56.2003 1277.86 57.8029C1277.86 59.4054 1276.52 60.7092 1274.87 60.7092C1274.66 60.7092 1274.45 60.6835 1274.24 60.6403L1270.08 66.4604C1269.89 66.729 1269.57 66.8895 1269.23 66.8895H1257.92C1257.35 66.8895 1256.89 66.4419 1256.89 65.8895C1256.89 65.3371 1257.35 64.8895 1257.92 64.8895L1268.7 64.8892ZM1273.94 57.8029C1273.94 58.3025 1274.36 58.7091 1274.87 58.7091C1275.39 58.7091 1275.81 58.3025 1275.81 57.8029C1275.81 57.3032 1275.39 56.8967 1274.87 56.8967C1274.36 56.8965 1273.94 57.3031 1273.94 57.8029ZM1277.62 105.196C1277.62 106.798 1276.28 108.102 1274.63 108.102C1272.98 108.102 1271.64 106.798 1271.64 105.196C1271.64 104.412 1271.96 103.703 1272.48 103.179L1268.69 97.8852H1257.92C1257.35 97.8852 1256.89 97.4376 1256.89 96.8852C1256.89 96.3328 1257.35 95.8852 1257.92 95.8852H1269.23C1269.57 95.8852 1269.89 96.0456 1270.08 96.3143L1274.37 102.315C1274.46 102.307 1274.54 102.289 1274.63 102.289C1276.28 102.289 1277.62 103.593 1277.62 105.196ZM1275.56 105.196C1275.56 104.696 1275.14 104.289 1274.63 104.289C1274.11 104.289 1273.69 104.696 1273.69 105.196C1273.69 105.695 1274.11 106.102 1274.63 106.102C1275.14 106.102 1275.56 105.695 1275.56 105.196ZM1282.61 92.8506C1282.61 94.4532 1281.27 95.757 1279.62 95.757C1277.97 95.757 1276.63 94.4532 1276.63 92.8506C1276.63 92.2267 1276.84 91.6518 1277.18 91.1777L1274.82 88.8004H1260.97C1260.4 88.8004 1259.94 88.3528 1259.94 87.8004C1259.94 87.248 1260.4 86.8004 1260.97 86.8004H1275.26C1275.54 86.8004 1275.8 86.9109 1276 87.1058L1278.91 90.0363C1279.14 89.9817 1279.37 89.9444 1279.62 89.9444C1281.27 89.9443 1282.61 91.2479 1282.61 92.8506ZM1280.55 92.8506C1280.55 92.351 1280.13 91.9444 1279.62 91.9444C1279.11 91.9444 1278.69 92.351 1278.69 92.8506C1278.69 93.3503 1279.11 93.7569 1279.62 93.7569C1280.13 93.7569 1280.55 93.3503 1280.55 92.8506ZM1283.5 81.5261C1283.5 83.1286 1282.16 84.4324 1280.51 84.4324C1279.22 84.4324 1278.14 83.6352 1277.71 82.5258H1255.16V100.204C1255.16 103.826 1252.13 106.773 1248.41 106.773C1245.68 106.773 1243.27 105.218 1242.21 102.835C1242.17 102.836 1242.13 102.837 1242.08 102.837C1238.36 102.837 1235.33 99.8896 1235.33 96.2674C1235.33 96.0939 1235.33 95.9203 1235.35 95.7475C1233.74 95.4353 1232.22 94.6326 1230.98 93.4249C1229.39 91.8756 1228.51 89.8161 1228.51 87.6253C1228.51 85.4345 1229.39 83.3749 1230.98 81.826C1231.1 81.7098 1231.23 81.6079 1231.36 81.4992C1231.23 81.3903 1231.1 81.2884 1230.98 81.1724C1229.39 79.6232 1228.51 77.5636 1228.51 75.3731C1228.51 73.1823 1229.39 71.1227 1230.98 69.5735C1232.22 68.3658 1233.74 67.563 1235.35 67.2509C1235.33 67.078 1235.33 66.9046 1235.33 66.731C1235.33 63.1085 1238.36 60.1615 1242.08 60.1615C1242.13 60.1615 1242.17 60.1618 1242.21 60.1628C1243.27 57.7799 1245.68 56.2252 1248.41 56.2252C1252.13 56.2252 1255.16 59.1721 1255.16 62.7944V80.5259H1277.71C1278.14 79.4168 1279.22 78.62 1280.51 78.62C1282.16 78.6198 1283.5 79.9235 1283.5 81.5261ZM1232.44 79.7581C1232.72 80.0356 1233.05 80.2792 1233.39 80.499H1253.11V62.7941C1253.11 60.2745 1251 58.225 1248.41 58.225C1246.68 58.225 1245.14 59.1203 1244.32 60.5297C1245.15 60.813 1245.92 61.2544 1246.59 61.8364C1246.6 61.8432 1246.6 61.8529 1246.61 61.8598C1246.99 61.6858 1247.42 61.5815 1247.87 61.5815C1249.51 61.5815 1250.86 62.8853 1250.86 64.4874C1250.86 66.09 1249.51 67.3938 1247.87 67.3938C1246.22 67.3938 1244.88 66.09 1244.88 64.4874C1244.88 64.0541 1244.98 63.6465 1245.16 63.2768C1244.3 62.5582 1243.22 62.1612 1242.08 62.1612C1239.49 62.1612 1237.38 64.2111 1237.38 66.7307C1237.38 66.8749 1237.4 67.0183 1237.41 67.1615C1238.63 67.284 1239.8 67.6579 1240.85 68.27C1241.31 67.9875 1241.85 67.8176 1242.43 67.8176C1244.08 67.8176 1245.42 69.1214 1245.42 70.7239C1245.42 72.3262 1244.08 73.6299 1242.43 73.6299C1240.78 73.6299 1239.44 72.3261 1239.44 70.7239C1239.44 70.43 1239.5 70.1516 1239.58 69.8839C1238.66 69.388 1237.63 69.1172 1236.55 69.1139C1235.06 69.1935 1233.6 69.857 1232.44 70.9873C1231.23 72.1588 1230.57 73.7162 1230.57 75.3728C1230.57 77.0293 1231.23 78.5866 1232.44 79.7581ZM1241.5 70.7241C1241.5 71.2237 1241.92 71.63 1242.43 71.63C1242.95 71.63 1243.36 71.2237 1243.36 70.7241C1243.36 70.2244 1242.95 69.8179 1242.43 69.8179C1241.92 69.8177 1241.5 70.2243 1241.5 70.7241ZM1247.87 65.3938C1248.38 65.3938 1248.8 64.9872 1248.8 64.4876C1248.8 63.9879 1248.38 63.5816 1247.87 63.5816C1247.35 63.5816 1246.93 63.9879 1246.93 64.4876C1246.93 64.9872 1247.35 65.3938 1247.87 65.3938ZM1253.11 100.204V82.499H1233.37C1233.03 82.7166 1232.72 82.9651 1232.44 83.2399C1231.23 84.4112 1230.57 85.9685 1230.57 87.6251C1230.57 89.2817 1231.23 90.8391 1232.44 92.0106C1233.6 93.1409 1235.06 93.8044 1236.55 93.884C1237.61 93.8807 1238.63 93.62 1239.54 93.1388C1239.48 92.9112 1239.44 92.6768 1239.44 92.4315C1239.44 90.8289 1240.78 89.5251 1242.43 89.5251C1244.08 89.5251 1245.42 90.8289 1245.42 92.4315C1245.42 94.0341 1244.08 95.3379 1242.43 95.3379C1241.79 95.3379 1241.2 95.1364 1240.71 94.8008C1239.7 95.3682 1238.58 95.7192 1237.41 95.8365C1237.4 95.9797 1237.38 96.1231 1237.38 96.2674C1237.38 98.787 1239.49 100.836 1242.08 100.836C1243.19 100.836 1244.26 100.455 1245.1 99.7652C1244.96 99.4261 1244.88 99.0564 1244.88 98.6677C1244.88 97.0652 1246.22 95.7614 1247.87 95.7614C1249.51 95.7614 1250.86 97.0652 1250.86 98.6677C1250.86 100.27 1249.51 101.574 1247.87 101.574C1247.37 101.574 1246.91 101.445 1246.5 101.236C1245.85 101.779 1245.11 102.198 1244.32 102.468C1245.14 103.878 1246.68 104.773 1248.41 104.773C1251 104.773 1253.11 102.724 1253.11 100.204ZM1247.87 99.5741C1248.38 99.5741 1248.8 99.1675 1248.8 98.6679C1248.8 98.1682 1248.38 97.7617 1247.87 97.7617C1247.35 97.7617 1246.93 98.1682 1246.93 98.6679C1246.93 99.1675 1247.35 99.5741 1247.87 99.5741ZM1242.43 93.3379C1242.95 93.3379 1243.36 92.9313 1243.36 92.4316C1243.36 91.932 1242.95 91.5254 1242.43 91.5254C1241.92 91.5254 1241.5 91.932 1241.5 92.4316C1241.5 92.5993 1241.55 92.7544 1241.63 92.8892C1241.65 92.9087 1241.67 92.9252 1241.68 92.9463C1241.7 92.9687 1241.71 92.9933 1241.73 93.0166C1241.9 93.2114 1242.15 93.3379 1242.43 93.3379ZM1281.44 81.5261C1281.44 81.0264 1281.02 80.6198 1280.51 80.6198C1280 80.6198 1279.58 81.0264 1279.58 81.5261C1279.58 82.0257 1280 82.4323 1280.51 82.4323C1281.02 82.4323 1281.44 82.0257 1281.44 81.5261Z"/>
</mask>
<path d="M1257.78 110.795L1258.17 117.033C1258.2 117.55 1257.82 118.005 1257.3 118.082C1255.41 118.359 1253.48 118.5 1251.56 118.5C1249.65 118.5 1247.72 118.359 1245.83 118.082C1245.3 118.005 1244.93 117.55 1244.96 117.033L1245.29 111.677C1241.26 110.891 1237.48 109.371 1234.05 107.148L1230.39 111.163C1230.04 111.55 1229.44 111.612 1229.01 111.305C1225.91 109.088 1223.19 106.436 1220.9 103.423C1220.59 103.006 1220.65 102.425 1221.05 102.081L1225.18 98.5235C1222.89 95.1861 1221.33 91.5191 1220.52 87.5987L1215.01 87.921C1214.48 87.9525 1214.01 87.5844 1213.93 87.0723C1213.64 85.2408 1213.5 83.3658 1213.5 81.4989C1213.5 79.6323 1213.64 77.7573 1213.93 75.9255C1214.01 75.4134 1214.48 75.037 1215.01 75.0768L1220.52 75.3991C1221.33 71.48 1222.89 67.8127 1225.18 64.4753L1221.05 60.9166C1220.65 60.5732 1220.59 59.9915 1220.9 59.5751C1223.18 56.565 1225.91 53.9132 1229.01 51.6928C1229.44 51.3858 1230.04 51.448 1230.39 51.8344L1234.05 55.8498C1237.51 53.619 1241.42 52.0541 1245.48 51.2839L1245.04 45.9743C1245 45.4495 1245.38 44.9818 1245.92 44.9043C1249.64 44.3652 1253.49 44.3652 1257.21 44.9043C1257.75 44.9818 1258.13 45.4496 1258.09 45.9743L1257.57 52.1893C1257.52 52.7401 1257.02 53.1503 1256.46 53.105C1255.89 53.0601 1255.47 52.5776 1255.52 52.0273L1255.96 46.7572C1253.05 46.4128 1250.08 46.4128 1247.17 46.7572L1247.61 52.0268C1247.66 52.546 1247.28 53.0109 1246.75 53.0949C1242.36 53.7915 1238.12 55.4843 1234.48 57.9899C1234.05 58.2849 1233.46 58.2181 1233.11 57.8373L1229.48 53.8537C1227.1 55.6511 1224.97 57.7247 1223.12 60.034L1227.22 63.565C1227.61 63.9035 1227.68 64.4749 1227.38 64.8912C1224.81 68.4236 1223.12 72.3693 1222.38 76.6188C1222.29 77.1218 1221.82 77.4795 1221.3 77.4485L1215.84 77.1288C1215.65 78.5723 1215.56 80.0384 1215.56 81.499C1215.56 82.9599 1215.65 84.4259 1215.84 85.8692L1221.3 85.5495C1221.82 85.5157 1222.29 85.8767 1222.38 86.3793C1223.12 90.6301 1224.81 94.5761 1227.38 98.1078C1227.68 98.5242 1227.61 99.0954 1227.22 99.434L1223.12 102.964C1224.97 105.276 1227.11 107.349 1229.48 109.144L1233.11 105.161C1233.46 104.779 1234.05 104.713 1234.48 105.008C1238.11 107.508 1242.17 109.143 1246.54 109.869C1247.06 109.955 1247.43 110.406 1247.4 110.915L1247.07 116.229C1250.04 116.589 1253.09 116.589 1256.06 116.229L1255.73 110.915C1255.7 110.363 1256.13 109.89 1256.7 109.857C1257.26 109.827 1257.75 110.244 1257.78 110.795ZM1279.87 67.5195C1281.52 67.5195 1282.86 68.8234 1282.86 70.4259C1282.86 72.0285 1281.52 73.3323 1279.87 73.3323C1279.49 73.3323 1279.13 73.2564 1278.8 73.131L1276 75.947C1275.8 76.142 1275.54 76.2524 1275.26 76.2524H1260.97C1260.4 76.2524 1259.94 75.8048 1259.94 75.2524C1259.94 74.7 1260.4 74.2524 1260.97 74.2524H1274.82L1277.25 71.8052C1277.02 71.3928 1276.88 70.9277 1276.88 70.4261C1276.88 68.8232 1278.22 67.5195 1279.87 67.5195ZM1278.93 70.4259C1278.93 70.9256 1279.35 71.3321 1279.87 71.3321C1280.38 71.3321 1280.8 70.9256 1280.8 70.4259C1280.8 69.9263 1280.38 69.5197 1279.87 69.5197C1279.35 69.5196 1278.93 69.9261 1278.93 70.4259ZM1268.7 64.8892L1272.51 59.5583C1272.12 59.0691 1271.89 58.4651 1271.89 57.8029C1271.89 56.2003 1273.23 54.8965 1274.87 54.8965C1276.52 54.8965 1277.86 56.2003 1277.86 57.8029C1277.86 59.4054 1276.52 60.7092 1274.87 60.7092C1274.66 60.7092 1274.45 60.6835 1274.24 60.6403L1270.08 66.4604C1269.89 66.729 1269.57 66.8895 1269.23 66.8895H1257.92C1257.35 66.8895 1256.89 66.4419 1256.89 65.8895C1256.89 65.3371 1257.35 64.8895 1257.92 64.8895L1268.7 64.8892ZM1273.94 57.8029C1273.94 58.3025 1274.36 58.7091 1274.87 58.7091C1275.39 58.7091 1275.81 58.3025 1275.81 57.8029C1275.81 57.3032 1275.39 56.8967 1274.87 56.8967C1274.36 56.8965 1273.94 57.3031 1273.94 57.8029ZM1277.62 105.196C1277.62 106.798 1276.28 108.102 1274.63 108.102C1272.98 108.102 1271.64 106.798 1271.64 105.196C1271.64 104.412 1271.96 103.703 1272.48 103.179L1268.69 97.8852H1257.92C1257.35 97.8852 1256.89 97.4376 1256.89 96.8852C1256.89 96.3328 1257.35 95.8852 1257.92 95.8852H1269.23C1269.57 95.8852 1269.89 96.0456 1270.08 96.3143L1274.37 102.315C1274.46 102.307 1274.54 102.289 1274.63 102.289C1276.28 102.289 1277.62 103.593 1277.62 105.196ZM1275.56 105.196C1275.56 104.696 1275.14 104.289 1274.63 104.289C1274.11 104.289 1273.69 104.696 1273.69 105.196C1273.69 105.695 1274.11 106.102 1274.63 106.102C1275.14 106.102 1275.56 105.695 1275.56 105.196ZM1282.61 92.8506C1282.61 94.4532 1281.27 95.757 1279.62 95.757C1277.97 95.757 1276.63 94.4532 1276.63 92.8506C1276.63 92.2267 1276.84 91.6518 1277.18 91.1777L1274.82 88.8004H1260.97C1260.4 88.8004 1259.94 88.3528 1259.94 87.8004C1259.94 87.248 1260.4 86.8004 1260.97 86.8004H1275.26C1275.54 86.8004 1275.8 86.9109 1276 87.1058L1278.91 90.0363C1279.14 89.9817 1279.37 89.9444 1279.62 89.9444C1281.27 89.9443 1282.61 91.2479 1282.61 92.8506ZM1280.55 92.8506C1280.55 92.351 1280.13 91.9444 1279.62 91.9444C1279.11 91.9444 1278.69 92.351 1278.69 92.8506C1278.69 93.3503 1279.11 93.7569 1279.62 93.7569C1280.13 93.7569 1280.55 93.3503 1280.55 92.8506ZM1283.5 81.5261C1283.5 83.1286 1282.16 84.4324 1280.51 84.4324C1279.22 84.4324 1278.14 83.6352 1277.71 82.5258H1255.16V100.204C1255.16 103.826 1252.13 106.773 1248.41 106.773C1245.68 106.773 1243.27 105.218 1242.21 102.835C1242.17 102.836 1242.13 102.837 1242.08 102.837C1238.36 102.837 1235.33 99.8896 1235.33 96.2674C1235.33 96.0939 1235.33 95.9203 1235.35 95.7475C1233.74 95.4353 1232.22 94.6326 1230.98 93.4249C1229.39 91.8756 1228.51 89.8161 1228.51 87.6253C1228.51 85.4345 1229.39 83.3749 1230.98 81.826C1231.1 81.7098 1231.23 81.6079 1231.36 81.4992C1231.23 81.3903 1231.1 81.2884 1230.98 81.1724C1229.39 79.6232 1228.51 77.5636 1228.51 75.3731C1228.51 73.1823 1229.39 71.1227 1230.98 69.5735C1232.22 68.3658 1233.74 67.563 1235.35 67.2509C1235.33 67.078 1235.33 66.9046 1235.33 66.731C1235.33 63.1085 1238.36 60.1615 1242.08 60.1615C1242.13 60.1615 1242.17 60.1618 1242.21 60.1628C1243.27 57.7799 1245.68 56.2252 1248.41 56.2252C1252.13 56.2252 1255.16 59.1721 1255.16 62.7944V80.5259H1277.71C1278.14 79.4168 1279.22 78.62 1280.51 78.62C1282.16 78.6198 1283.5 79.9235 1283.5 81.5261ZM1232.44 79.7581C1232.72 80.0356 1233.05 80.2792 1233.39 80.499H1253.11V62.7941C1253.11 60.2745 1251 58.225 1248.41 58.225C1246.68 58.225 1245.14 59.1203 1244.32 60.5297C1245.15 60.813 1245.92 61.2544 1246.59 61.8364C1246.6 61.8432 1246.6 61.8529 1246.61 61.8598C1246.99 61.6858 1247.42 61.5815 1247.87 61.5815C1249.51 61.5815 1250.86 62.8853 1250.86 64.4874C1250.86 66.09 1249.51 67.3938 1247.87 67.3938C1246.22 67.3938 1244.88 66.09 1244.88 64.4874C1244.88 64.0541 1244.98 63.6465 1245.16 63.2768C1244.3 62.5582 1243.22 62.1612 1242.08 62.1612C1239.49 62.1612 1237.38 64.2111 1237.38 66.7307C1237.38 66.8749 1237.4 67.0183 1237.41 67.1615C1238.63 67.284 1239.8 67.6579 1240.85 68.27C1241.31 67.9875 1241.85 67.8176 1242.43 67.8176C1244.08 67.8176 1245.42 69.1214 1245.42 70.7239C1245.42 72.3262 1244.08 73.6299 1242.43 73.6299C1240.78 73.6299 1239.44 72.3261 1239.44 70.7239C1239.44 70.43 1239.5 70.1516 1239.58 69.8839C1238.66 69.388 1237.63 69.1172 1236.55 69.1139C1235.06 69.1935 1233.6 69.857 1232.44 70.9873C1231.23 72.1588 1230.57 73.7162 1230.57 75.3728C1230.57 77.0293 1231.23 78.5866 1232.44 79.7581ZM1241.5 70.7241C1241.5 71.2237 1241.92 71.63 1242.43 71.63C1242.95 71.63 1243.36 71.2237 1243.36 70.7241C1243.36 70.2244 1242.95 69.8179 1242.43 69.8179C1241.92 69.8177 1241.5 70.2243 1241.5 70.7241ZM1247.87 65.3938C1248.38 65.3938 1248.8 64.9872 1248.8 64.4876C1248.8 63.9879 1248.38 63.5816 1247.87 63.5816C1247.35 63.5816 1246.93 63.9879 1246.93 64.4876C1246.93 64.9872 1247.35 65.3938 1247.87 65.3938ZM1253.11 100.204V82.499H1233.37C1233.03 82.7166 1232.72 82.9651 1232.44 83.2399C1231.23 84.4112 1230.57 85.9685 1230.57 87.6251C1230.57 89.2817 1231.23 90.8391 1232.44 92.0106C1233.6 93.1409 1235.06 93.8044 1236.55 93.884C1237.61 93.8807 1238.63 93.62 1239.54 93.1388C1239.48 92.9112 1239.44 92.6768 1239.44 92.4315C1239.44 90.8289 1240.78 89.5251 1242.43 89.5251C1244.08 89.5251 1245.42 90.8289 1245.42 92.4315C1245.42 94.0341 1244.08 95.3379 1242.43 95.3379C1241.79 95.3379 1241.2 95.1364 1240.71 94.8008C1239.7 95.3682 1238.58 95.7192 1237.41 95.8365C1237.4 95.9797 1237.38 96.1231 1237.38 96.2674C1237.38 98.787 1239.49 100.836 1242.08 100.836C1243.19 100.836 1244.26 100.455 1245.1 99.7652C1244.96 99.4261 1244.88 99.0564 1244.88 98.6677C1244.88 97.0652 1246.22 95.7614 1247.87 95.7614C1249.51 95.7614 1250.86 97.0652 1250.86 98.6677C1250.86 100.27 1249.51 101.574 1247.87 101.574C1247.37 101.574 1246.91 101.445 1246.5 101.236C1245.85 101.779 1245.11 102.198 1244.32 102.468C1245.14 103.878 1246.68 104.773 1248.41 104.773C1251 104.773 1253.11 102.724 1253.11 100.204ZM1247.87 99.5741C1248.38 99.5741 1248.8 99.1675 1248.8 98.6679C1248.8 98.1682 1248.38 97.7617 1247.87 97.7617C1247.35 97.7617 1246.93 98.1682 1246.93 98.6679C1246.93 99.1675 1247.35 99.5741 1247.87 99.5741ZM1242.43 93.3379C1242.95 93.3379 1243.36 92.9313 1243.36 92.4316C1243.36 91.932 1242.95 91.5254 1242.43 91.5254C1241.92 91.5254 1241.5 91.932 1241.5 92.4316C1241.5 92.5993 1241.55 92.7544 1241.63 92.8892C1241.65 92.9087 1241.67 92.9252 1241.68 92.9463C1241.7 92.9687 1241.71 92.9933 1241.73 93.0166C1241.9 93.2114 1242.15 93.3379 1242.43 93.3379ZM1281.44 81.5261C1281.44 81.0264 1281.02 80.6198 1280.51 80.6198C1280 80.6198 1279.58 81.0264 1279.58 81.5261C1279.58 82.0257 1280 82.4323 1280.51 82.4323C1281.02 82.4323 1281.44 82.0257 1281.44 81.5261Z" fill="white"/>
<path d="M1257.78 110.795L1258.17 117.033C1258.2 117.55 1257.82 118.005 1257.3 118.082C1255.41 118.359 1253.48 118.5 1251.56 118.5C1249.65 118.5 1247.72 118.359 1245.83 118.082C1245.3 118.005 1244.93 117.55 1244.96 117.033L1245.29 111.677C1241.26 110.891 1237.48 109.371 1234.05 107.148L1230.39 111.163C1230.04 111.55 1229.44 111.612 1229.01 111.305C1225.91 109.088 1223.19 106.436 1220.9 103.423C1220.59 103.006 1220.65 102.425 1221.05 102.081L1225.18 98.5235C1222.89 95.1861 1221.33 91.5191 1220.52 87.5987L1215.01 87.921C1214.48 87.9525 1214.01 87.5844 1213.93 87.0723C1213.64 85.2408 1213.5 83.3658 1213.5 81.4989C1213.5 79.6323 1213.64 77.7573 1213.93 75.9255C1214.01 75.4134 1214.48 75.037 1215.01 75.0768L1220.52 75.3991C1221.33 71.48 1222.89 67.8127 1225.18 64.4753L1221.05 60.9166C1220.65 60.5732 1220.59 59.9915 1220.9 59.5751C1223.18 56.565 1225.91 53.9132 1229.01 51.6928C1229.44 51.3858 1230.04 51.448 1230.39 51.8344L1234.05 55.8498C1237.51 53.619 1241.42 52.0541 1245.48 51.2839L1245.04 45.9743C1245 45.4495 1245.38 44.9818 1245.92 44.9043C1249.64 44.3652 1253.49 44.3652 1257.21 44.9043C1257.75 44.9818 1258.13 45.4496 1258.09 45.9743L1257.57 52.1893C1257.52 52.7401 1257.02 53.1503 1256.46 53.105C1255.89 53.0601 1255.47 52.5776 1255.52 52.0273L1255.96 46.7572C1253.05 46.4128 1250.08 46.4128 1247.17 46.7572L1247.61 52.0268C1247.66 52.546 1247.28 53.0109 1246.75 53.0949C1242.36 53.7915 1238.12 55.4843 1234.48 57.9899C1234.05 58.2849 1233.46 58.2181 1233.11 57.8373L1229.48 53.8537C1227.1 55.6511 1224.97 57.7247 1223.12 60.034L1227.22 63.565C1227.61 63.9035 1227.68 64.4749 1227.38 64.8912C1224.81 68.4236 1223.12 72.3693 1222.38 76.6188C1222.29 77.1218 1221.82 77.4795 1221.3 77.4485L1215.84 77.1288C1215.65 78.5723 1215.56 80.0384 1215.56 81.499C1215.56 82.9599 1215.65 84.4259 1215.84 85.8692L1221.3 85.5495C1221.82 85.5157 1222.29 85.8767 1222.38 86.3793C1223.12 90.6301 1224.81 94.5761 1227.38 98.1078C1227.68 98.5242 1227.61 99.0954 1227.22 99.434L1223.12 102.964C1224.97 105.276 1227.11 107.349 1229.48 109.144L1233.11 105.161C1233.46 104.779 1234.05 104.713 1234.48 105.008C1238.11 107.508 1242.17 109.143 1246.54 109.869C1247.06 109.955 1247.43 110.406 1247.4 110.915L1247.07 116.229C1250.04 116.589 1253.09 116.589 1256.06 116.229L1255.73 110.915C1255.7 110.363 1256.13 109.89 1256.7 109.857C1257.26 109.827 1257.75 110.244 1257.78 110.795ZM1279.87 67.5195C1281.52 67.5195 1282.86 68.8234 1282.86 70.4259C1282.86 72.0285 1281.52 73.3323 1279.87 73.3323C1279.49 73.3323 1279.13 73.2564 1278.8 73.131L1276 75.947C1275.8 76.142 1275.54 76.2524 1275.26 76.2524H1260.97C1260.4 76.2524 1259.94 75.8048 1259.94 75.2524C1259.94 74.7 1260.4 74.2524 1260.97 74.2524H1274.82L1277.25 71.8052C1277.02 71.3928 1276.88 70.9277 1276.88 70.4261C1276.88 68.8232 1278.22 67.5195 1279.87 67.5195ZM1278.93 70.4259C1278.93 70.9256 1279.35 71.3321 1279.87 71.3321C1280.38 71.3321 1280.8 70.9256 1280.8 70.4259C1280.8 69.9263 1280.38 69.5197 1279.87 69.5197C1279.35 69.5196 1278.93 69.9261 1278.93 70.4259ZM1268.7 64.8892L1272.51 59.5583C1272.12 59.0691 1271.89 58.4651 1271.89 57.8029C1271.89 56.2003 1273.23 54.8965 1274.87 54.8965C1276.52 54.8965 1277.86 56.2003 1277.86 57.8029C1277.86 59.4054 1276.52 60.7092 1274.87 60.7092C1274.66 60.7092 1274.45 60.6835 1274.24 60.6403L1270.08 66.4604C1269.89 66.729 1269.57 66.8895 1269.23 66.8895H1257.92C1257.35 66.8895 1256.89 66.4419 1256.89 65.8895C1256.89 65.3371 1257.35 64.8895 1257.92 64.8895L1268.7 64.8892ZM1273.94 57.8029C1273.94 58.3025 1274.36 58.7091 1274.87 58.7091C1275.39 58.7091 1275.81 58.3025 1275.81 57.8029C1275.81 57.3032 1275.39 56.8967 1274.87 56.8967C1274.36 56.8965 1273.94 57.3031 1273.94 57.8029ZM1277.62 105.196C1277.62 106.798 1276.28 108.102 1274.63 108.102C1272.98 108.102 1271.64 106.798 1271.64 105.196C1271.64 104.412 1271.96 103.703 1272.48 103.179L1268.69 97.8852H1257.92C1257.35 97.8852 1256.89 97.4376 1256.89 96.8852C1256.89 96.3328 1257.35 95.8852 1257.92 95.8852H1269.23C1269.57 95.8852 1269.89 96.0456 1270.08 96.3143L1274.37 102.315C1274.46 102.307 1274.54 102.289 1274.63 102.289C1276.28 102.289 1277.62 103.593 1277.62 105.196ZM1275.56 105.196C1275.56 104.696 1275.14 104.289 1274.63 104.289C1274.11 104.289 1273.69 104.696 1273.69 105.196C1273.69 105.695 1274.11 106.102 1274.63 106.102C1275.14 106.102 1275.56 105.695 1275.56 105.196ZM1282.61 92.8506C1282.61 94.4532 1281.27 95.757 1279.62 95.757C1277.97 95.757 1276.63 94.4532 1276.63 92.8506C1276.63 92.2267 1276.84 91.6518 1277.18 91.1777L1274.82 88.8004H1260.97C1260.4 88.8004 1259.94 88.3528 1259.94 87.8004C1259.94 87.248 1260.4 86.8004 1260.97 86.8004H1275.26C1275.54 86.8004 1275.8 86.9109 1276 87.1058L1278.91 90.0363C1279.14 89.9817 1279.37 89.9444 1279.62 89.9444C1281.27 89.9443 1282.61 91.2479 1282.61 92.8506ZM1280.55 92.8506C1280.55 92.351 1280.13 91.9444 1279.62 91.9444C1279.11 91.9444 1278.69 92.351 1278.69 92.8506C1278.69 93.3503 1279.11 93.7569 1279.62 93.7569C1280.13 93.7569 1280.55 93.3503 1280.55 92.8506ZM1283.5 81.5261C1283.5 83.1286 1282.16 84.4324 1280.51 84.4324C1279.22 84.4324 1278.14 83.6352 1277.71 82.5258H1255.16V100.204C1255.16 103.826 1252.13 106.773 1248.41 106.773C1245.68 106.773 1243.27 105.218 1242.21 102.835C1242.17 102.836 1242.13 102.837 1242.08 102.837C1238.36 102.837 1235.33 99.8896 1235.33 96.2674C1235.33 96.0939 1235.33 95.9203 1235.35 95.7475C1233.74 95.4353 1232.22 94.6326 1230.98 93.4249C1229.39 91.8756 1228.51 89.8161 1228.51 87.6253C1228.51 85.4345 1229.39 83.3749 1230.98 81.826C1231.1 81.7098 1231.23 81.6079 1231.36 81.4992C1231.23 81.3903 1231.1 81.2884 1230.98 81.1724C1229.39 79.6232 1228.51 77.5636 1228.51 75.3731C1228.51 73.1823 1229.39 71.1227 1230.98 69.5735C1232.22 68.3658 1233.74 67.563 1235.35 67.2509C1235.33 67.078 1235.33 66.9046 1235.33 66.731C1235.33 63.1085 1238.36 60.1615 1242.08 60.1615C1242.13 60.1615 1242.17 60.1618 1242.21 60.1628C1243.27 57.7799 1245.68 56.2252 1248.41 56.2252C1252.13 56.2252 1255.16 59.1721 1255.16 62.7944V80.5259H1277.71C1278.14 79.4168 1279.22 78.62 1280.51 78.62C1282.16 78.6198 1283.5 79.9235 1283.5 81.5261ZM1232.44 79.7581C1232.72 80.0356 1233.05 80.2792 1233.39 80.499H1253.11V62.7941C1253.11 60.2745 1251 58.225 1248.41 58.225C1246.68 58.225 1245.14 59.1203 1244.32 60.5297C1245.15 60.813 1245.92 61.2544 1246.59 61.8364C1246.6 61.8432 1246.6 61.8529 1246.61 61.8598C1246.99 61.6858 1247.42 61.5815 1247.87 61.5815C1249.51 61.5815 1250.86 62.8853 1250.86 64.4874C1250.86 66.09 1249.51 67.3938 1247.87 67.3938C1246.22 67.3938 1244.88 66.09 1244.88 64.4874C1244.88 64.0541 1244.98 63.6465 1245.16 63.2768C1244.3 62.5582 1243.22 62.1612 1242.08 62.1612C1239.49 62.1612 1237.38 64.2111 1237.38 66.7307C1237.38 66.8749 1237.4 67.0183 1237.41 67.1615C1238.63 67.284 1239.8 67.6579 1240.85 68.27C1241.31 67.9875 1241.85 67.8176 1242.43 67.8176C1244.08 67.8176 1245.42 69.1214 1245.42 70.7239C1245.42 72.3262 1244.08 73.6299 1242.43 73.6299C1240.78 73.6299 1239.44 72.3261 1239.44 70.7239C1239.44 70.43 1239.5 70.1516 1239.58 69.8839C1238.66 69.388 1237.63 69.1172 1236.55 69.1139C1235.06 69.1935 1233.6 69.857 1232.44 70.9873C1231.23 72.1588 1230.57 73.7162 1230.57 75.3728C1230.57 77.0293 1231.23 78.5866 1232.44 79.7581ZM1241.5 70.7241C1241.5 71.2237 1241.92 71.63 1242.43 71.63C1242.95 71.63 1243.36 71.2237 1243.36 70.7241C1243.36 70.2244 1242.95 69.8179 1242.43 69.8179C1241.92 69.8177 1241.5 70.2243 1241.5 70.7241ZM1247.87 65.3938C1248.38 65.3938 1248.8 64.9872 1248.8 64.4876C1248.8 63.9879 1248.38 63.5816 1247.87 63.5816C1247.35 63.5816 1246.93 63.9879 1246.93 64.4876C1246.93 64.9872 1247.35 65.3938 1247.87 65.3938ZM1253.11 100.204V82.499H1233.37C1233.03 82.7166 1232.72 82.9651 1232.44 83.2399C1231.23 84.4112 1230.57 85.9685 1230.57 87.6251C1230.57 89.2817 1231.23 90.8391 1232.44 92.0106C1233.6 93.1409 1235.06 93.8044 1236.55 93.884C1237.61 93.8807 1238.63 93.62 1239.54 93.1388C1239.48 92.9112 1239.44 92.6768 1239.44 92.4315C1239.44 90.8289 1240.78 89.5251 1242.43 89.5251C1244.08 89.5251 1245.42 90.8289 1245.42 92.4315C1245.42 94.0341 1244.08 95.3379 1242.43 95.3379C1241.79 95.3379 1241.2 95.1364 1240.71 94.8008C1239.7 95.3682 1238.58 95.7192 1237.41 95.8365C1237.4 95.9797 1237.38 96.1231 1237.38 96.2674C1237.38 98.787 1239.49 100.836 1242.08 100.836C1243.19 100.836 1244.26 100.455 1245.1 99.7652C1244.96 99.4261 1244.88 99.0564 1244.88 98.6677C1244.88 97.0652 1246.22 95.7614 1247.87 95.7614C1249.51 95.7614 1250.86 97.0652 1250.86 98.6677C1250.86 100.27 1249.51 101.574 1247.87 101.574C1247.37 101.574 1246.91 101.445 1246.5 101.236C1245.85 101.779 1245.11 102.198 1244.32 102.468C1245.14 103.878 1246.68 104.773 1248.41 104.773C1251 104.773 1253.11 102.724 1253.11 100.204ZM1247.87 99.5741C1248.38 99.5741 1248.8 99.1675 1248.8 98.6679C1248.8 98.1682 1248.38 97.7617 1247.87 97.7617C1247.35 97.7617 1246.93 98.1682 1246.93 98.6679C1246.93 99.1675 1247.35 99.5741 1247.87 99.5741ZM1242.43 93.3379C1242.95 93.3379 1243.36 92.9313 1243.36 92.4316C1243.36 91.932 1242.95 91.5254 1242.43 91.5254C1241.92 91.5254 1241.5 91.932 1241.5 92.4316C1241.5 92.5993 1241.55 92.7544 1241.63 92.8892C1241.65 92.9087 1241.67 92.9252 1241.68 92.9463C1241.7 92.9687 1241.71 92.9933 1241.73 93.0166C1241.9 93.2114 1242.15 93.3379 1242.43 93.3379ZM1281.44 81.5261C1281.44 81.0264 1281.02 80.6198 1280.51 80.6198C1280 80.6198 1279.58 81.0264 1279.58 81.5261C1279.58 82.0257 1280 82.4323 1280.51 82.4323C1281.02 82.4323 1281.44 82.0257 1281.44 81.5261Z" stroke="white" mask="url(#path-5-outside-1_3_82)"/>
</svg>
