<svg width="1363" height="163" viewBox="0 0 1363 163" fill="none" xmlns="http://www.w3.org/2000/svg">
<path d="M0 15C0 6.71573 6.71573 0 15 0H37V163H15C6.71573 163 0 156.284 0 148V15Z" fill="#424242"/>
<rect width="1097" height="163" transform="translate(37)" fill="#F0F0F0"/>
<path d="M95.472 59.728C95.2 59.84 94.952 59.864 94.728 59.8C94.52 59.736 94.352 59.616 94.224 59.44C94.096 59.264 94.024 59.072 94.008 58.864C93.992 58.64 94.04 58.432 94.152 58.24C94.264 58.032 94.448 57.872 94.704 57.76L105.168 53.368V54.856L94.704 50.464C94.448 50.352 94.264 50.2 94.152 50.008C94.04 49.8 93.992 49.584 94.008 49.36C94.024 49.136 94.096 48.936 94.224 48.76C94.352 48.584 94.52 48.464 94.728 48.4C94.952 48.336 95.2 48.36 95.472 48.472L105.072 52.552C105.808 52.856 106.176 53.368 106.176 54.088C106.176 54.456 106.08 54.776 105.888 55.048C105.712 55.304 105.44 55.512 105.072 55.672L95.472 59.728ZM123.626 61.24C121.866 61.24 120.354 60.888 119.09 60.184C117.842 59.464 116.882 58.456 116.21 57.16C115.538 55.848 115.202 54.304 115.202 52.528C115.202 51.2 115.394 50.008 115.778 48.952C116.162 47.88 116.714 46.968 117.434 46.216C118.154 45.448 119.034 44.864 120.074 44.464C121.13 44.048 122.314 43.84 123.626 43.84C124.506 43.84 125.37 43.952 126.218 44.176C127.066 44.4 127.81 44.72 128.45 45.136C128.786 45.344 129.01 45.6 129.122 45.904C129.234 46.192 129.258 46.48 129.194 46.768C129.13 47.04 128.994 47.272 128.786 47.464C128.594 47.656 128.346 47.768 128.042 47.8C127.754 47.816 127.434 47.712 127.082 47.488C126.586 47.168 126.05 46.936 125.474 46.792C124.898 46.648 124.314 46.576 123.722 46.576C122.586 46.576 121.626 46.808 120.842 47.272C120.058 47.736 119.466 48.408 119.066 49.288C118.666 50.168 118.466 51.248 118.466 52.528C118.466 53.792 118.666 54.872 119.066 55.768C119.466 56.664 120.058 57.344 120.842 57.808C121.626 58.272 122.586 58.504 123.722 58.504C124.33 58.504 124.93 58.432 125.522 58.288C126.114 58.128 126.674 57.888 127.202 57.568C127.554 57.36 127.866 57.272 128.138 57.304C128.426 57.32 128.666 57.416 128.858 57.592C129.05 57.768 129.178 57.992 129.242 58.264C129.306 58.52 129.29 58.792 129.194 59.08C129.098 59.352 128.906 59.592 128.618 59.8C127.978 60.264 127.21 60.624 126.314 60.88C125.434 61.12 124.538 61.24 123.626 61.24ZM136.287 61.24C135.071 61.24 134.015 60.992 133.119 60.496C132.223 60 131.527 59.296 131.031 58.384C130.535 57.456 130.287 56.368 130.287 55.12C130.287 54.176 130.423 53.336 130.695 52.6C130.983 51.848 131.391 51.208 131.919 50.68C132.447 50.136 133.079 49.728 133.815 49.456C134.551 49.168 135.375 49.024 136.287 49.024C137.503 49.024 138.559 49.272 139.455 49.768C140.351 50.264 141.047 50.968 141.543 51.88C142.039 52.792 142.287 53.872 142.287 55.12C142.287 56.064 142.143 56.912 141.855 57.664C141.583 58.416 141.183 59.064 140.655 59.608C140.127 60.136 139.495 60.544 138.759 60.832C138.023 61.104 137.199 61.24 136.287 61.24ZM136.287 58.96C136.879 58.96 137.399 58.816 137.847 58.528C138.295 58.24 138.639 57.816 138.879 57.256C139.135 56.68 139.263 55.968 139.263 55.12C139.263 53.84 138.991 52.888 138.447 52.264C137.903 51.624 137.183 51.304 136.287 51.304C135.695 51.304 135.175 51.448 134.727 51.736C134.279 52.008 133.927 52.432 133.671 53.008C133.431 53.568 133.311 54.272 133.311 55.12C133.311 56.384 133.583 57.344 134.127 58C134.671 58.64 135.391 58.96 136.287 58.96ZM146.251 61.192C145.771 61.192 145.403 61.064 145.147 60.808C144.891 60.536 144.763 60.152 144.763 59.656V50.584C144.763 50.088 144.891 49.712 145.147 49.456C145.403 49.2 145.763 49.072 146.227 49.072C146.691 49.072 147.051 49.2 147.307 49.456C147.563 49.712 147.691 50.088 147.691 50.584V52.216L147.427 51.616C147.779 50.768 148.323 50.128 149.059 49.696C149.811 49.248 150.659 49.024 151.603 49.024C152.547 49.024 153.323 49.2 153.931 49.552C154.539 49.904 154.995 50.44 155.299 51.16C155.603 51.864 155.755 52.76 155.755 53.848V59.656C155.755 60.152 155.627 60.536 155.371 60.808C155.115 61.064 154.747 61.192 154.267 61.192C153.787 61.192 153.411 61.064 153.139 60.808C152.883 60.536 152.755 60.152 152.755 59.656V53.992C152.755 53.08 152.579 52.416 152.227 52C151.891 51.584 151.363 51.376 150.643 51.376C149.763 51.376 149.059 51.656 148.531 52.216C148.019 52.76 147.763 53.488 147.763 54.4V59.656C147.763 60.68 147.259 61.192 146.251 61.192ZM163.437 61.192C163.037 61.192 162.685 61.088 162.381 60.88C162.093 60.672 161.853 60.352 161.661 59.92L157.845 51.064C157.701 50.712 157.645 50.384 157.677 50.08C157.725 49.776 157.869 49.536 158.109 49.36C158.365 49.168 158.709 49.072 159.141 49.072C159.509 49.072 159.805 49.16 160.029 49.336C160.253 49.496 160.453 49.808 160.629 50.272L163.869 58.36H163.149L166.485 50.248C166.661 49.8 166.861 49.496 167.085 49.336C167.325 49.16 167.645 49.072 168.045 49.072C168.397 49.072 168.677 49.168 168.885 49.36C169.093 49.536 169.221 49.776 169.269 50.08C169.317 50.368 169.261 50.688 169.101 51.04L165.213 59.92C165.037 60.352 164.797 60.672 164.493 60.88C164.205 61.088 163.853 61.192 163.437 61.192ZM176.459 61.24C175.243 61.24 174.187 60.992 173.291 60.496C172.395 60 171.699 59.296 171.203 58.384C170.707 57.456 170.459 56.368 170.459 55.12C170.459 54.176 170.595 53.336 170.867 52.6C171.155 51.848 171.563 51.208 172.091 50.68C172.619 50.136 173.251 49.728 173.987 49.456C174.723 49.168 175.547 49.024 176.459 49.024C177.675 49.024 178.731 49.272 179.627 49.768C180.523 50.264 181.219 50.968 181.715 51.88C182.211 52.792 182.459 53.872 182.459 55.12C182.459 56.064 182.315 56.912 182.027 57.664C181.755 58.416 181.355 59.064 180.827 59.608C180.299 60.136 179.667 60.544 178.931 60.832C178.195 61.104 177.371 61.24 176.459 61.24ZM176.459 58.96C177.051 58.96 177.571 58.816 178.019 58.528C178.467 58.24 178.811 57.816 179.051 57.256C179.307 56.68 179.435 55.968 179.435 55.12C179.435 53.84 179.163 52.888 178.619 52.264C178.075 51.624 177.355 51.304 176.459 51.304C175.867 51.304 175.347 51.448 174.899 51.736C174.451 52.008 174.099 52.432 173.843 53.008C173.603 53.568 173.483 54.272 173.483 55.12C173.483 56.384 173.755 57.344 174.299 58C174.843 58.64 175.563 58.96 176.459 58.96ZM191.943 61.192C191.511 61.192 191.151 61.096 190.863 60.904C190.591 60.696 190.367 60.392 190.191 59.992L183.927 45.928C183.751 45.528 183.703 45.176 183.783 44.872C183.863 44.568 184.031 44.328 184.287 44.152C184.543 43.976 184.847 43.888 185.199 43.888C185.663 43.888 186.007 43.992 186.231 44.2C186.471 44.392 186.671 44.688 186.831 45.088L192.519 58.264H191.487L197.151 45.064C197.327 44.68 197.535 44.392 197.775 44.2C198.015 43.992 198.351 43.888 198.783 43.888C199.135 43.888 199.423 43.976 199.647 44.152C199.887 44.328 200.039 44.568 200.103 44.872C200.167 45.176 200.111 45.528 199.935 45.928L193.671 59.992C193.495 60.392 193.271 60.696 192.999 60.904C192.743 61.096 192.391 61.192 191.943 61.192ZM206.328 61.24C205 61.24 203.856 60.992 202.896 60.496C201.936 60 201.192 59.296 200.664 58.384C200.152 57.472 199.896 56.392 199.896 55.144C199.896 53.928 200.144 52.864 200.64 51.952C201.152 51.04 201.848 50.328 202.728 49.816C203.624 49.288 204.64 49.024 205.776 49.024C206.608 49.024 207.352 49.16 208.008 49.432C208.68 49.704 209.248 50.096 209.712 50.608C210.192 51.12 210.552 51.744 210.792 52.48C211.048 53.2 211.176 54.016 211.176 54.928C211.176 55.216 211.072 55.44 210.864 55.6C210.672 55.744 210.392 55.816 210.024 55.816H202.32V54.088H209.064L208.68 54.448C208.68 53.712 208.568 53.096 208.344 52.6C208.136 52.104 207.824 51.728 207.408 51.472C207.008 51.2 206.504 51.064 205.896 51.064C205.224 51.064 204.648 51.224 204.168 51.544C203.704 51.848 203.344 52.288 203.088 52.864C202.848 53.424 202.728 54.096 202.728 54.88V55.048C202.728 56.36 203.032 57.344 203.64 58C204.264 58.64 205.176 58.96 206.376 58.96C206.792 58.96 207.256 58.912 207.768 58.816C208.296 58.704 208.792 58.52 209.256 58.264C209.592 58.072 209.888 57.992 210.144 58.024C210.4 58.04 210.6 58.128 210.744 58.288C210.904 58.448 211 58.648 211.032 58.888C211.064 59.112 211.016 59.344 210.888 59.584C210.776 59.824 210.576 60.032 210.288 60.208C209.728 60.56 209.08 60.824 208.344 61C207.624 61.16 206.952 61.24 206.328 61.24ZM215.088 61.192C214.592 61.192 214.208 61.064 213.936 60.808C213.68 60.536 213.552 60.152 213.552 59.656V50.584C213.552 50.088 213.68 49.712 213.936 49.456C214.192 49.2 214.552 49.072 215.016 49.072C215.48 49.072 215.84 49.2 216.096 49.456C216.352 49.712 216.48 50.088 216.48 50.584V52.096H216.24C216.464 51.136 216.904 50.408 217.56 49.912C218.216 49.416 219.088 49.12 220.176 49.024C220.512 48.992 220.776 49.08 220.968 49.288C221.176 49.48 221.296 49.784 221.328 50.2C221.36 50.6 221.264 50.928 221.04 51.184C220.832 51.424 220.512 51.568 220.08 51.616L219.552 51.664C218.576 51.76 217.84 52.064 217.344 52.576C216.848 53.072 216.6 53.776 216.6 54.688V59.656C216.6 60.152 216.472 60.536 216.216 60.808C215.96 61.064 215.584 61.192 215.088 61.192ZM227.129 61.24C226.441 61.24 225.713 61.168 224.945 61.024C224.177 60.88 223.489 60.632 222.881 60.28C222.625 60.12 222.441 59.936 222.329 59.728C222.233 59.504 222.193 59.288 222.209 59.08C222.241 58.856 222.321 58.664 222.449 58.504C222.593 58.344 222.769 58.24 222.977 58.192C223.201 58.144 223.441 58.184 223.697 58.312C224.337 58.616 224.937 58.832 225.497 58.96C226.057 59.072 226.609 59.128 227.153 59.128C227.921 59.128 228.489 59 228.857 58.744C229.241 58.472 229.433 58.12 229.433 57.688C229.433 57.32 229.305 57.04 229.049 56.848C228.809 56.64 228.441 56.488 227.945 56.392L225.545 55.936C224.553 55.744 223.793 55.384 223.265 54.856C222.753 54.312 222.497 53.616 222.497 52.768C222.497 52 222.705 51.336 223.121 50.776C223.553 50.216 224.145 49.784 224.897 49.48C225.649 49.176 226.513 49.024 227.489 49.024C228.193 49.024 228.849 49.104 229.457 49.264C230.081 49.408 230.681 49.64 231.257 49.96C231.497 50.088 231.657 50.256 231.737 50.464C231.833 50.672 231.857 50.888 231.809 51.112C231.761 51.32 231.665 51.512 231.521 51.688C231.377 51.848 231.193 51.952 230.969 52C230.761 52.032 230.521 51.984 230.249 51.856C229.753 51.6 229.273 51.416 228.809 51.304C228.361 51.192 227.929 51.136 227.513 51.136C226.729 51.136 226.145 51.272 225.761 51.544C225.393 51.816 225.209 52.176 225.209 52.624C225.209 52.96 225.321 53.24 225.545 53.464C225.769 53.688 226.113 53.84 226.577 53.92L228.977 54.376C230.017 54.568 230.801 54.92 231.329 55.432C231.873 55.944 232.145 56.632 232.145 57.496C232.145 58.664 231.689 59.584 230.777 60.256C229.865 60.912 228.649 61.24 227.129 61.24ZM240.336 61.24C239.008 61.24 237.864 60.992 236.904 60.496C235.944 60 235.2 59.296 234.672 58.384C234.16 57.472 233.904 56.392 233.904 55.144C233.904 53.928 234.152 52.864 234.648 51.952C235.16 51.04 235.856 50.328 236.736 49.816C237.632 49.288 238.648 49.024 239.784 49.024C240.616 49.024 241.36 49.16 242.016 49.432C242.688 49.704 243.256 50.096 243.72 50.608C244.2 51.12 244.56 51.744 244.8 52.48C245.056 53.2 245.184 54.016 245.184 54.928C245.184 55.216 245.08 55.44 244.872 55.6C244.68 55.744 244.4 55.816 244.032 55.816H236.328V54.088H243.072L242.688 54.448C242.688 53.712 242.576 53.096 242.352 52.6C242.144 52.104 241.832 51.728 241.416 51.472C241.016 51.2 240.512 51.064 239.904 51.064C239.232 51.064 238.656 51.224 238.176 51.544C237.712 51.848 237.352 52.288 237.096 52.864C236.856 53.424 236.736 54.096 236.736 54.88V55.048C236.736 56.36 237.04 57.344 237.648 58C238.272 58.64 239.184 58.96 240.384 58.96C240.8 58.96 241.264 58.912 241.776 58.816C242.304 58.704 242.8 58.52 243.264 58.264C243.6 58.072 243.896 57.992 244.152 58.024C244.408 58.04 244.608 58.128 244.752 58.288C244.912 58.448 245.008 58.648 245.04 58.888C245.072 59.112 245.024 59.344 244.896 59.584C244.784 59.824 244.584 60.032 244.296 60.208C243.736 60.56 243.088 60.824 242.352 61C241.632 61.16 240.96 61.24 240.336 61.24Z" fill="#888888"/>
<path d="M108.648 119.528C107.368 119.528 106.024 119.432 104.616 119.24C103.24 119.08 101.928 118.824 100.68 118.472C99.432 118.12 98.312 117.704 97.32 117.224C96.456 116.808 95.848 116.264 95.496 115.592C95.144 114.888 95.016 114.152 95.112 113.384C95.208 112.616 95.48 111.944 95.928 111.368C96.376 110.76 96.968 110.36 97.704 110.168C98.44 109.944 99.272 110.04 100.2 110.456C101.416 111.032 102.792 111.48 104.328 111.8C105.864 112.12 107.304 112.28 108.648 112.28C110.76 112.28 112.232 112.008 113.064 111.464C113.928 110.888 114.36 110.184 114.36 109.352C114.36 108.616 114.056 108.024 113.448 107.576C112.872 107.128 111.832 106.744 110.328 106.424L104.712 105.224C101.64 104.584 99.352 103.464 97.848 101.864C96.344 100.264 95.592 98.2 95.592 95.672C95.592 94.008 95.928 92.504 96.6 91.16C97.304 89.784 98.28 88.616 99.528 87.656C100.808 86.696 102.312 85.96 104.04 85.448C105.8 84.904 107.752 84.632 109.896 84.632C111.56 84.632 113.24 84.824 114.936 85.208C116.664 85.56 118.152 86.104 119.4 86.84C120.136 87.224 120.664 87.752 120.984 88.424C121.304 89.096 121.432 89.8 121.368 90.536C121.304 91.24 121.048 91.864 120.6 92.408C120.184 92.952 119.608 93.32 118.872 93.512C118.168 93.672 117.32 93.544 116.328 93.128C115.4 92.712 114.344 92.408 113.16 92.216C112.008 91.992 110.888 91.88 109.8 91.88C108.616 91.88 107.608 92.024 106.776 92.312C105.944 92.568 105.304 92.952 104.856 93.464C104.44 93.976 104.232 94.568 104.232 95.24C104.232 95.912 104.504 96.488 105.048 96.968C105.624 97.416 106.664 97.8 108.168 98.12L113.736 99.32C116.84 99.992 119.16 101.096 120.696 102.632C122.232 104.168 123 106.168 123 108.632C123 110.296 122.664 111.8 121.992 113.144C121.32 114.488 120.36 115.64 119.112 116.6C117.864 117.528 116.36 118.248 114.6 118.76C112.84 119.272 110.856 119.528 108.648 119.528ZM133.204 128.072C132.212 128.072 131.412 127.816 130.804 127.304C130.196 126.792 129.812 126.12 129.652 125.288C129.524 124.456 129.668 123.576 130.084 122.648L133.3 115.688V119.144L125.092 100.376C124.676 99.416 124.532 98.52 124.66 97.688C124.82 96.856 125.252 96.2 125.956 95.72C126.66 95.208 127.62 94.952 128.836 94.952C129.86 94.952 130.676 95.192 131.284 95.672C131.924 96.12 132.5 97.016 133.012 98.36L137.812 110.84H136.18L141.268 98.312C141.78 97 142.356 96.12 142.996 95.672C143.668 95.192 144.564 94.952 145.684 94.952C146.644 94.952 147.412 95.208 147.988 95.72C148.564 96.2 148.916 96.856 149.044 97.688C149.172 98.52 149.028 99.416 148.612 100.376L137.716 124.856C137.14 126.136 136.5 126.984 135.796 127.4C135.124 127.848 134.26 128.072 133.204 128.072ZM161.248 119.528C159.84 119.528 158.4 119.416 156.928 119.192C155.488 119 154.176 118.632 152.992 118.088C152.192 117.768 151.616 117.336 151.264 116.792C150.944 116.248 150.784 115.672 150.784 115.064C150.816 114.456 150.992 113.912 151.312 113.432C151.664 112.92 152.112 112.568 152.656 112.376C153.232 112.152 153.872 112.168 154.576 112.424C155.92 112.904 157.12 113.256 158.176 113.48C159.264 113.672 160.304 113.768 161.296 113.768C162.48 113.768 163.328 113.608 163.84 113.288C164.352 112.936 164.608 112.488 164.608 111.944C164.608 111.464 164.432 111.096 164.08 110.84C163.76 110.584 163.296 110.408 162.688 110.312L157.36 109.448C155.376 109.096 153.84 108.376 152.752 107.288C151.664 106.168 151.12 104.712 151.12 102.92C151.12 101.256 151.584 99.832 152.512 98.648C153.472 97.432 154.768 96.504 156.4 95.864C158.064 95.192 159.968 94.856 162.112 94.856C163.552 94.856 164.864 94.968 166.048 95.192C167.232 95.384 168.384 95.752 169.504 96.296C170.208 96.584 170.704 97 170.992 97.544C171.28 98.088 171.392 98.664 171.328 99.272C171.264 99.848 171.056 100.392 170.704 100.904C170.384 101.384 169.936 101.72 169.36 101.912C168.784 102.072 168.112 102.024 167.344 101.768C166.288 101.352 165.344 101.048 164.512 100.856C163.712 100.664 162.96 100.568 162.256 100.568C160.944 100.568 160.016 100.744 159.472 101.096C158.928 101.448 158.656 101.896 158.656 102.44C158.656 102.856 158.8 103.208 159.088 103.496C159.376 103.752 159.824 103.928 160.432 104.024L165.76 104.936C167.808 105.256 169.376 105.96 170.464 107.048C171.584 108.104 172.144 109.544 172.144 111.368C172.144 113.96 171.152 115.976 169.168 117.416C167.184 118.824 164.544 119.528 161.248 119.528ZM187.802 119.528C185.402 119.528 183.418 119.16 181.85 118.424C180.314 117.688 179.162 116.584 178.394 115.112C177.626 113.608 177.242 111.736 177.242 109.496V101.672H175.61C174.586 101.672 173.786 101.4 173.21 100.856C172.666 100.312 172.394 99.528 172.394 98.504C172.394 97.48 172.666 96.712 173.21 96.2C173.786 95.656 174.586 95.384 175.61 95.384H177.242V92.408C177.242 91 177.61 89.928 178.346 89.192C179.082 88.456 180.138 88.088 181.514 88.088C182.89 88.088 183.946 88.456 184.682 89.192C185.418 89.928 185.786 91 185.786 92.408V95.384H189.722C190.778 95.384 191.578 95.656 192.122 96.2C192.698 96.712 192.986 97.48 192.986 98.504C192.986 99.528 192.698 100.312 192.122 100.856C191.578 101.4 190.778 101.672 189.722 101.672H185.786V109.208C185.786 110.392 186.058 111.272 186.602 111.848C187.178 112.392 188.074 112.664 189.29 112.664C189.738 112.664 190.17 112.616 190.586 112.52C191.002 112.424 191.386 112.376 191.738 112.376C192.25 112.344 192.666 112.504 192.986 112.856C193.306 113.176 193.466 113.928 193.466 115.112C193.466 116.072 193.322 116.888 193.034 117.56C192.746 118.2 192.234 118.664 191.498 118.952C191.05 119.112 190.442 119.24 189.674 119.336C188.906 119.464 188.282 119.528 187.802 119.528ZM208.485 119.528C205.605 119.528 203.109 119.032 200.997 118.04C198.917 117.016 197.317 115.576 196.197 113.72C195.077 111.864 194.517 109.672 194.517 107.144C194.517 104.712 195.045 102.584 196.101 100.76C197.189 98.904 198.661 97.464 200.517 96.44C202.405 95.384 204.549 94.856 206.949 94.856C208.709 94.856 210.309 95.144 211.749 95.72C213.189 96.264 214.421 97.08 215.445 98.168C216.469 99.224 217.237 100.504 217.749 102.008C218.293 103.512 218.565 105.192 218.565 107.048C218.565 107.688 218.389 108.168 218.037 108.488C217.685 108.776 217.125 108.92 216.357 108.92H201.669V104.888H212.325L211.557 105.512C211.557 104.328 211.397 103.368 211.077 102.632C210.757 101.896 210.277 101.336 209.637 100.952C209.029 100.568 208.261 100.376 207.333 100.376C206.341 100.376 205.477 100.616 204.741 101.096C204.037 101.544 203.493 102.216 203.109 103.112C202.725 104.008 202.533 105.128 202.533 106.472V106.904C202.533 109.176 203.029 110.808 204.021 111.8C205.045 112.76 206.613 113.24 208.725 113.24C209.429 113.24 210.229 113.16 211.125 113C212.053 112.808 212.933 112.552 213.765 112.232C214.597 111.912 215.317 111.864 215.925 112.088C216.533 112.28 216.997 112.632 217.317 113.144C217.669 113.624 217.861 114.184 217.893 114.824C217.925 115.432 217.781 116.04 217.461 116.648C217.141 117.224 216.613 117.672 215.877 117.992C214.757 118.504 213.557 118.888 212.277 119.144C211.029 119.4 209.765 119.528 208.485 119.528ZM226.566 119.432C225.222 119.432 224.182 119.064 223.446 118.328C222.71 117.592 222.342 116.52 222.342 115.112V99.224C222.342 97.848 222.694 96.792 223.398 96.056C224.134 95.32 225.174 94.952 226.518 94.952C227.862 94.952 228.886 95.32 229.59 96.056C230.294 96.792 230.646 97.848 230.646 99.224V101.864L230.118 99.512C230.79 98.104 231.782 96.984 233.094 96.152C234.438 95.288 236.022 94.856 237.846 94.856C239.574 94.856 241.046 95.272 242.262 96.104C243.51 96.936 244.406 98.2 244.95 99.896H244.278C245.014 98.328 246.118 97.096 247.59 96.2C249.062 95.304 250.694 94.856 252.486 94.856C254.342 94.856 255.862 95.224 257.046 95.96C258.23 96.664 259.11 97.784 259.686 99.32C260.294 100.824 260.598 102.728 260.598 105.032V115.112C260.598 116.52 260.214 117.592 259.446 118.328C258.71 119.064 257.654 119.432 256.278 119.432C254.934 119.432 253.894 119.064 253.158 118.328C252.422 117.592 252.054 116.52 252.054 115.112V105.272C252.054 103.896 251.846 102.904 251.43 102.296C251.014 101.688 250.326 101.384 249.366 101.384C248.182 101.384 247.27 101.8 246.63 102.632C246.022 103.464 245.718 104.648 245.718 106.184V115.112C245.718 116.52 245.35 117.592 244.614 118.328C243.878 119.064 242.822 119.432 241.446 119.432C240.07 119.432 239.014 119.064 238.278 118.328C237.542 117.592 237.174 116.52 237.174 115.112V105.272C237.174 103.896 236.966 102.904 236.55 102.296C236.134 101.688 235.446 101.384 234.486 101.384C233.334 101.384 232.438 101.8 231.798 102.632C231.19 103.464 230.886 104.648 230.886 106.184V115.112C230.886 117.992 229.446 119.432 226.566 119.432ZM284.477 119C282.973 119 281.821 118.616 281.021 117.848C280.253 117.048 279.869 115.912 279.869 114.44V89.72C279.869 88.248 280.253 87.128 281.021 86.36C281.821 85.56 282.973 85.16 284.477 85.16H293.885C299.773 85.16 304.317 86.632 307.517 89.576C310.749 92.52 312.365 96.68 312.365 102.056C312.365 104.744 311.949 107.144 311.117 109.256C310.285 111.336 309.085 113.112 307.517 114.584C305.949 116.024 304.013 117.128 301.709 117.896C299.437 118.632 296.829 119 293.885 119H284.477ZM288.701 111.848H293.309C295.005 111.848 296.461 111.64 297.677 111.224C298.925 110.808 299.949 110.2 300.749 109.4C301.581 108.6 302.189 107.592 302.573 106.376C302.989 105.16 303.197 103.72 303.197 102.056C303.197 98.728 302.381 96.28 300.749 94.712C299.117 93.112 296.637 92.312 293.309 92.312H288.701V111.848ZM329.891 119.528C327.011 119.528 324.515 119.032 322.403 118.04C320.323 117.016 318.723 115.576 317.603 113.72C316.483 111.864 315.923 109.672 315.923 107.144C315.923 104.712 316.451 102.584 317.507 100.76C318.595 98.904 320.067 97.464 321.923 96.44C323.811 95.384 325.955 94.856 328.355 94.856C330.115 94.856 331.715 95.144 333.155 95.72C334.595 96.264 335.827 97.08 336.851 98.168C337.875 99.224 338.643 100.504 339.155 102.008C339.699 103.512 339.971 105.192 339.971 107.048C339.971 107.688 339.795 108.168 339.443 108.488C339.091 108.776 338.531 108.92 337.763 108.92H323.075V104.888H333.731L332.963 105.512C332.963 104.328 332.803 103.368 332.483 102.632C332.163 101.896 331.683 101.336 331.043 100.952C330.435 100.568 329.667 100.376 328.739 100.376C327.747 100.376 326.883 100.616 326.147 101.096C325.443 101.544 324.899 102.216 324.515 103.112C324.131 104.008 323.939 105.128 323.939 106.472V106.904C323.939 109.176 324.435 110.808 325.427 111.8C326.451 112.76 328.019 113.24 330.131 113.24C330.835 113.24 331.635 113.16 332.531 113C333.459 112.808 334.339 112.552 335.171 112.232C336.003 111.912 336.723 111.864 337.331 112.088C337.939 112.28 338.403 112.632 338.723 113.144C339.075 113.624 339.267 114.184 339.299 114.824C339.331 115.432 339.187 116.04 338.867 116.648C338.547 117.224 338.019 117.672 337.283 117.992C336.163 118.504 334.963 118.888 333.683 119.144C332.435 119.4 331.171 119.528 329.891 119.528ZM353.06 119.528C351.652 119.528 350.212 119.416 348.74 119.192C347.3 119 345.988 118.632 344.804 118.088C344.004 117.768 343.428 117.336 343.076 116.792C342.756 116.248 342.596 115.672 342.596 115.064C342.628 114.456 342.804 113.912 343.124 113.432C343.476 112.92 343.924 112.568 344.468 112.376C345.044 112.152 345.684 112.168 346.388 112.424C347.732 112.904 348.932 113.256 349.988 113.48C351.076 113.672 352.116 113.768 353.108 113.768C354.292 113.768 355.14 113.608 355.652 113.288C356.164 112.936 356.42 112.488 356.42 111.944C356.42 111.464 356.244 111.096 355.892 110.84C355.572 110.584 355.108 110.408 354.5 110.312L349.172 109.448C347.188 109.096 345.652 108.376 344.564 107.288C343.476 106.168 342.932 104.712 342.932 102.92C342.932 101.256 343.396 99.832 344.324 98.648C345.284 97.432 346.58 96.504 348.212 95.864C349.876 95.192 351.78 94.856 353.924 94.856C355.364 94.856 356.676 94.968 357.86 95.192C359.044 95.384 360.196 95.752 361.316 96.296C362.02 96.584 362.516 97 362.804 97.544C363.092 98.088 363.204 98.664 363.14 99.272C363.076 99.848 362.868 100.392 362.516 100.904C362.196 101.384 361.748 101.72 361.172 101.912C360.596 102.072 359.924 102.024 359.156 101.768C358.1 101.352 357.156 101.048 356.324 100.856C355.524 100.664 354.772 100.568 354.068 100.568C352.756 100.568 351.828 100.744 351.284 101.096C350.74 101.448 350.468 101.896 350.468 102.44C350.468 102.856 350.612 103.208 350.9 103.496C351.188 103.752 351.636 103.928 352.244 104.024L357.572 104.936C359.62 105.256 361.188 105.96 362.276 107.048C363.396 108.104 363.956 109.544 363.956 111.368C363.956 113.96 362.964 115.976 360.98 117.416C358.996 118.824 356.356 119.528 353.06 119.528ZM371.689 119.432C370.345 119.432 369.305 119.032 368.569 118.232C367.833 117.432 367.465 116.28 367.465 114.776V99.608C367.465 98.104 367.833 96.952 368.569 96.152C369.305 95.352 370.345 94.952 371.689 94.952C373.065 94.952 374.121 95.352 374.857 96.152C375.625 96.952 376.009 98.104 376.009 99.608V114.776C376.009 116.28 375.641 117.432 374.905 118.232C374.169 119.032 373.097 119.432 371.689 119.432ZM371.689 91.544C370.185 91.544 369.017 91.192 368.185 90.488C367.385 89.784 366.985 88.76 366.985 87.416C366.985 86.104 367.385 85.096 368.185 84.392C369.017 83.688 370.185 83.336 371.689 83.336C373.257 83.336 374.441 83.688 375.241 84.392C376.041 85.096 376.441 86.104 376.441 87.416C376.441 88.76 376.041 89.784 375.241 90.488C374.441 91.192 373.257 91.544 371.689 91.544ZM392.677 128.168C390.917 128.168 389.269 128.04 387.733 127.784C386.197 127.56 384.869 127.224 383.749 126.776C382.821 126.456 382.165 125.992 381.781 125.384C381.397 124.776 381.221 124.136 381.253 123.464C381.285 122.792 381.461 122.184 381.781 121.64C382.133 121.096 382.597 120.696 383.173 120.44C383.749 120.216 384.389 120.232 385.093 120.488C386.501 121.064 387.781 121.432 388.933 121.592C390.085 121.784 391.061 121.88 391.861 121.88C393.813 121.88 395.269 121.464 396.229 120.632C397.221 119.832 397.717 118.568 397.717 116.84V113.816H398.101C397.621 115.16 396.645 116.264 395.173 117.128C393.701 117.96 392.101 118.376 390.373 118.376C388.261 118.376 386.421 117.896 384.853 116.936C383.285 115.944 382.053 114.568 381.157 112.808C380.293 111.048 379.861 108.984 379.861 106.616C379.861 104.824 380.117 103.208 380.629 101.768C381.141 100.328 381.845 99.096 382.741 98.072C383.669 97.048 384.773 96.264 386.053 95.72C387.365 95.144 388.805 94.856 390.373 94.856C392.165 94.856 393.765 95.272 395.173 96.104C396.613 96.936 397.573 98.024 398.053 99.368L397.573 101.336V99.224C397.573 97.848 397.941 96.792 398.677 96.056C399.445 95.32 400.501 94.952 401.845 94.952C403.189 94.952 404.213 95.32 404.917 96.056C405.653 96.792 406.021 97.848 406.021 99.224V115.832C406.021 119.928 404.869 123 402.565 125.048C400.261 127.128 396.965 128.168 392.677 128.168ZM393.013 112.088C393.973 112.088 394.789 111.88 395.461 111.464C396.133 111.016 396.661 110.392 397.045 109.592C397.429 108.76 397.621 107.768 397.621 106.616C397.621 104.888 397.205 103.544 396.373 102.584C395.541 101.624 394.421 101.144 393.013 101.144C392.117 101.144 391.317 101.368 390.613 101.816C389.909 102.232 389.365 102.856 388.981 103.688C388.629 104.488 388.453 105.464 388.453 106.616C388.453 108.344 388.869 109.688 389.701 110.648C390.533 111.608 391.637 112.088 393.013 112.088ZM415.236 119.432C413.892 119.432 412.852 119.064 412.116 118.328C411.38 117.592 411.012 116.52 411.012 115.112V99.224C411.012 97.848 411.364 96.792 412.068 96.056C412.804 95.32 413.844 94.952 415.188 94.952C416.532 94.952 417.556 95.32 418.26 96.056C418.964 96.792 419.316 97.848 419.316 99.224V101.48L418.788 99.512C419.556 98.008 420.644 96.856 422.052 96.056C423.492 95.256 425.124 94.856 426.948 94.856C428.836 94.856 430.388 95.224 431.604 95.96C432.82 96.664 433.732 97.784 434.34 99.32C434.948 100.824 435.252 102.728 435.252 105.032V115.112C435.252 116.52 434.884 117.592 434.148 118.328C433.412 119.064 432.356 119.432 430.98 119.432C429.604 119.432 428.548 119.064 427.812 118.328C427.076 117.592 426.708 116.52 426.708 115.112V105.368C426.708 103.928 426.452 102.904 425.94 102.296C425.46 101.688 424.74 101.384 423.78 101.384C422.5 101.384 421.476 101.8 420.708 102.632C419.94 103.432 419.556 104.52 419.556 105.896V115.112C419.556 117.992 418.116 119.432 415.236 119.432Z" fill="black"/>
<path d="M1134 0H1348C1356.28 0 1363 6.71573 1363 15V148C1363 156.284 1356.28 163 1348 163H1134V0Z" fill="#02103C"/>
<path d="M1248.5 51.6667C1257.07 51.6667 1264.74 52.9907 1270.29 55.1784C1273.06 56.2717 1275.33 57.5902 1276.91 59.0895C1278.49 60.591 1279.42 62.3052 1279.42 64.1667C1279.42 66.0281 1278.49 67.7423 1276.91 69.2438C1275.33 70.7432 1273.06 72.0616 1270.29 73.1549C1264.74 75.3426 1257.07 76.6666 1248.5 76.6667C1239.93 76.6667 1232.26 75.3427 1226.71 73.1549C1223.94 72.0616 1221.67 70.7432 1220.09 69.2438C1218.51 67.7423 1217.58 66.0281 1217.58 64.1667C1217.58 62.3052 1218.51 60.591 1220.09 59.0895C1221.67 57.5901 1223.94 56.2717 1226.71 55.1784C1232.26 52.9906 1239.93 51.6667 1248.5 51.6667ZM1248.5 55.3337C1242.07 55.3337 1235.28 56.2867 1230.11 57.9147C1227.52 58.7295 1225.37 59.7039 1223.88 60.7917C1222.37 61.8873 1221.63 63.0283 1221.63 64.1667C1221.63 65.305 1222.37 66.446 1223.88 67.5417C1225.37 68.6295 1227.52 69.6039 1230.11 70.4186C1235.28 72.0466 1242.07 72.9997 1248.5 72.9997C1254.93 72.9996 1261.72 72.0466 1266.89 70.4186C1269.48 69.6038 1271.63 68.6296 1273.12 67.5417C1274.63 66.446 1275.38 65.305 1275.38 64.1667C1275.38 63.0283 1274.63 61.8873 1273.12 60.7917C1271.63 59.7037 1269.48 58.7296 1266.89 57.9147C1261.72 56.2868 1254.93 55.3337 1248.5 55.3337Z" fill="white" stroke="white"/>
<path d="M1277.4 62.3333C1277.91 62.3333 1278.42 62.5126 1278.8 62.848C1279.19 63.1851 1279.42 63.6575 1279.42 64.1663V74.8333C1279.42 76.6948 1278.49 78.409 1276.91 79.9105C1275.33 81.4099 1273.06 82.7283 1270.29 83.8216C1264.74 86.0093 1257.07 87.3333 1248.5 87.3333C1239.93 87.3333 1232.26 86.0094 1226.71 83.8216C1223.94 82.7283 1221.67 81.4099 1220.09 79.9105C1218.51 78.409 1217.58 76.6948 1217.58 74.8333V64.1663C1217.58 63.6574 1217.81 63.1851 1218.2 62.848C1218.58 62.5128 1219.09 62.3334 1219.6 62.3333C1220.12 62.3333 1220.63 62.5126 1221.01 62.848C1221.39 63.1851 1221.63 63.6574 1221.63 64.1663V74.8333C1221.63 75.9717 1222.37 77.1127 1223.88 78.2083C1225.37 79.2961 1227.52 80.2705 1230.11 81.0853C1235.28 82.7133 1242.07 83.6663 1248.5 83.6663C1254.93 83.6663 1261.72 82.7132 1266.89 81.0853C1269.48 80.2704 1271.63 79.2963 1273.12 78.2083C1274.63 77.1127 1275.38 75.9717 1275.38 74.8333V64.1663C1275.38 63.6575 1275.61 63.1851 1275.99 62.848C1276.37 62.5126 1276.88 62.3333 1277.4 62.3333Z" fill="white" stroke="white"/>
<path d="M1277.4 73C1277.91 73 1278.42 73.1793 1278.8 73.5146C1279.19 73.8518 1279.42 74.3242 1279.42 74.833V86.833C1279.42 88.6945 1278.49 90.4086 1276.91 91.9102C1275.33 93.4096 1273.06 94.7289 1270.29 95.8223C1264.74 98.0099 1257.07 99.333 1248.5 99.333C1239.93 99.333 1232.26 98.01 1226.71 95.8223C1223.94 94.7289 1221.67 93.4096 1220.09 91.9102C1218.51 90.4087 1217.58 88.6944 1217.58 86.833V74.833L1217.59 74.6445C1217.64 74.2084 1217.86 73.8097 1218.2 73.5146C1218.58 73.1795 1219.09 73.0001 1219.6 73C1220.12 73 1220.63 73.1793 1221.01 73.5146C1221.39 73.8518 1221.63 74.3241 1221.63 74.833V86.833C1221.63 87.9713 1222.37 89.1123 1223.88 90.208C1225.37 91.2959 1227.52 92.2711 1230.11 93.0859C1235.28 94.7139 1242.07 95.667 1248.5 95.667C1254.93 95.667 1261.72 94.7139 1266.89 93.0859C1269.48 92.2711 1271.63 91.296 1273.12 90.208C1274.63 89.1124 1275.38 87.9713 1275.38 86.833V74.833C1275.38 74.3242 1275.61 73.8518 1275.99 73.5146C1276.37 73.1793 1276.88 73 1277.4 73Z" fill="white" stroke="white"/>
<path d="M1277.4 85C1277.91 85 1278.42 85.1793 1278.8 85.5146C1279.19 85.8518 1279.42 86.3242 1279.42 86.833V98.833C1279.42 100.694 1278.49 102.409 1276.91 103.91C1275.33 105.41 1273.06 106.729 1270.29 107.822C1264.74 110.01 1257.07 111.333 1248.5 111.333C1239.93 111.333 1232.26 110.01 1226.71 107.822C1223.94 106.729 1221.67 105.41 1220.09 103.91C1218.51 102.409 1217.58 100.694 1217.58 98.833V86.833L1217.59 86.6445C1217.64 86.2084 1217.86 85.8097 1218.2 85.5146C1218.58 85.1795 1219.09 85.0001 1219.6 85C1220.12 85 1220.63 85.1793 1221.01 85.5146C1221.39 85.8518 1221.63 86.3241 1221.63 86.833V98.833C1221.63 99.9713 1222.37 101.112 1223.88 102.208C1225.37 103.296 1227.52 104.271 1230.11 105.086C1235.28 106.714 1242.07 107.667 1248.5 107.667C1254.93 107.667 1261.72 106.714 1266.89 105.086C1269.48 104.271 1271.63 103.296 1273.12 102.208C1274.63 101.112 1275.38 99.9713 1275.38 98.833V86.833C1275.38 86.3242 1275.61 85.8518 1275.99 85.5146C1276.37 85.1793 1276.88 85 1277.4 85Z" fill="white" stroke="white"/>
</svg>
